<?xml version="1.0" encoding="utf-8" standalone="no"?>
<!DOCTYPE svg PUBLIC "-//W3C//DTD SVG 1.1//EN"
  "http://www.w3.org/Graphics/SVG/1.1/DTD/svg11.dtd">
<!-- Created with matplotlib (https://matplotlib.org/) -->
<svg height="288pt" version="1.1" viewBox="0 0 432 288" width="432pt" xmlns="http://www.w3.org/2000/svg" xmlns:xlink="http://www.w3.org/1999/xlink">
 <defs>
  <style type="text/css">
*{stroke-linecap:butt;stroke-linejoin:round;}
  </style>
 </defs>
 <g id="figure_1">
  <g id="patch_1">
   <path d="M 0 288 
L 432 288 
L 432 0 
L 0 0 
z
" style="fill:#ffffff;"/>
  </g>
  <g id="axes_1">
   <g id="patch_2">
    <path d="M 58.8 236.58 
L 422.4 236.58 
L 422.4 9.6 
L 58.8 9.6 
z
" style="fill:#ffffff;"/>
   </g>
   <g id="matplotlib.axis_1">
    <g id="xtick_1">
     <g id="line2d_1">
      <path clip-path="url(#p960e0438bf)" d="M 58.8 236.58 
L 58.8 9.6 
" style="fill:none;stroke:#cccccc;stroke-linecap:round;stroke-width:0.8;"/>
     </g>
     <g id="line2d_2">
      <defs>
       <path d="M 0 0 
L 0 4.8 
" id="mc25294eb5c" style="stroke:#262626;"/>
      </defs>
      <g>
       <use style="fill:#262626;stroke:#262626;" x="58.8" xlink:href="#mc25294eb5c" y="236.58"/>
      </g>
     </g>
     <g id="text_1">
      <!-- 0.00 -->
      <defs>
       <path d="M 51.703125 34.421875 
Q 51.703125 24.515625 49.828125 17.75 
Q 47.953125 10.984375 44.703125 6.8125 
Q 41.453125 2.640625 37.0625 0.828125 
Q 32.671875 -0.984375 27.6875 -0.984375 
Q 22.65625 -0.984375 18.3125 0.828125 
Q 13.96875 2.640625 10.765625 6.78125 
Q 7.5625 10.9375 5.734375 17.703125 
Q 3.90625 24.46875 3.90625 34.421875 
Q 3.90625 44.828125 5.734375 51.640625 
Q 7.5625 58.453125 10.78125 62.5 
Q 14.015625 66.546875 18.40625 68.1875 
Q 22.796875 69.828125 27.984375 69.828125 
Q 32.90625 69.828125 37.21875 68.1875 
Q 41.546875 66.546875 44.765625 62.5 
Q 48 58.453125 49.84375 51.640625 
Q 51.703125 44.828125 51.703125 34.421875 
z
M 42.78125 34.421875 
Q 42.78125 42.625 41.796875 48.0625 
Q 40.828125 53.515625 38.921875 56.765625 
Q 37.015625 60.015625 34.25 61.359375 
Q 31.5 62.703125 27.984375 62.703125 
Q 24.265625 62.703125 21.4375 61.328125 
Q 18.609375 59.96875 16.671875 56.71875 
Q 14.75 53.46875 13.765625 48.015625 
Q 12.796875 42.578125 12.796875 34.421875 
Q 12.796875 26.515625 13.796875 21.09375 
Q 14.796875 15.671875 16.71875 12.375 
Q 18.65625 9.078125 21.4375 7.640625 
Q 24.21875 6.203125 27.78125 6.203125 
Q 31.25 6.203125 34.03125 7.640625 
Q 36.8125 9.078125 38.734375 12.375 
Q 40.671875 15.671875 41.71875 21.09375 
Q 42.78125 26.515625 42.78125 34.421875 
z
" id="LiberationSans-48"/>
       <path d="M 9.125 0 
L 9.125 10.6875 
L 18.65625 10.6875 
L 18.65625 0 
z
" id="LiberationSans-46"/>
      </defs>
      <g style="fill:#262626;" transform="translate(45.177344 255.025625)scale(0.14 -0.14)">
       <use xlink:href="#LiberationSans-48"/>
       <use x="55.615234" xlink:href="#LiberationSans-46"/>
       <use x="83.398438" xlink:href="#LiberationSans-48"/>
       <use x="139.013672" xlink:href="#LiberationSans-48"/>
      </g>
     </g>
    </g>
    <g id="xtick_2">
     <g id="line2d_3">
      <path clip-path="url(#p960e0438bf)" d="M 172.425 236.58 
L 172.425 9.6 
" style="fill:none;stroke:#cccccc;stroke-linecap:round;stroke-width:0.8;"/>
     </g>
     <g id="line2d_4">
      <g>
       <use style="fill:#262626;stroke:#262626;" x="172.425" xlink:href="#mc25294eb5c" y="236.58"/>
      </g>
     </g>
     <g id="text_2">
      <!-- 0.05 -->
      <defs>
       <path d="M 51.421875 22.40625 
Q 51.421875 17.234375 49.859375 12.9375 
Q 48.296875 8.640625 45.21875 5.53125 
Q 42.140625 2.4375 37.578125 0.71875 
Q 33.015625 -0.984375 27 -0.984375 
Q 21.578125 -0.984375 17.546875 0.28125 
Q 13.53125 1.5625 10.734375 3.78125 
Q 7.953125 6 6.3125 8.984375 
Q 4.6875 11.96875 4 15.375 
L 12.890625 16.40625 
Q 13.421875 14.453125 14.390625 12.625 
Q 15.375 10.796875 17.0625 9.34375 
Q 18.75 7.90625 21.21875 7.046875 
Q 23.6875 6.203125 27.203125 6.203125 
Q 30.609375 6.203125 33.390625 7.25 
Q 36.1875 8.296875 38.15625 10.34375 
Q 40.140625 12.40625 41.203125 15.375 
Q 42.28125 18.359375 42.28125 22.21875 
Q 42.28125 25.390625 41.25 28.046875 
Q 40.234375 30.71875 38.328125 32.640625 
Q 36.421875 34.578125 33.65625 35.640625 
Q 30.90625 36.71875 27.390625 36.71875 
Q 25.203125 36.71875 23.34375 36.328125 
Q 21.484375 35.9375 19.890625 35.25 
Q 18.3125 34.578125 17.015625 33.671875 
Q 15.71875 32.765625 14.59375 31.78125 
L 6 31.78125 
L 8.296875 68.796875 
L 47.40625 68.796875 
L 47.40625 61.328125 
L 16.3125 61.328125 
L 14.984375 39.5 
Q 17.328125 41.3125 20.84375 42.59375 
Q 24.359375 43.890625 29.203125 43.890625 
Q 34.328125 43.890625 38.421875 42.328125 
Q 42.53125 40.765625 45.40625 37.90625 
Q 48.296875 35.0625 49.859375 31.109375 
Q 51.421875 27.15625 51.421875 22.40625 
z
" id="LiberationSans-53"/>
      </defs>
      <g style="fill:#262626;" transform="translate(158.802344 255.025625)scale(0.14 -0.14)">
       <use xlink:href="#LiberationSans-48"/>
       <use x="55.615234" xlink:href="#LiberationSans-46"/>
       <use x="83.398438" xlink:href="#LiberationSans-48"/>
       <use x="139.013672" xlink:href="#LiberationSans-53"/>
      </g>
     </g>
    </g>
    <g id="xtick_3">
     <g id="line2d_5">
      <path clip-path="url(#p960e0438bf)" d="M 286.05 236.58 
L 286.05 9.6 
" style="fill:none;stroke:#cccccc;stroke-linecap:round;stroke-width:0.8;"/>
     </g>
     <g id="line2d_6">
      <g>
       <use style="fill:#262626;stroke:#262626;" x="286.05" xlink:href="#mc25294eb5c" y="236.58"/>
      </g>
     </g>
     <g id="text_3">
      <!-- 0.10 -->
      <defs>
       <path d="M 7.625 0 
L 7.625 7.46875 
L 25.140625 7.46875 
L 25.140625 60.40625 
L 9.625 49.3125 
L 9.625 57.625 
L 25.875 68.796875 
L 33.984375 68.796875 
L 33.984375 7.46875 
L 50.734375 7.46875 
L 50.734375 0 
z
" id="LiberationSans-49"/>
      </defs>
      <g style="fill:#262626;" transform="translate(272.427344 255.025625)scale(0.14 -0.14)">
       <use xlink:href="#LiberationSans-48"/>
       <use x="55.615234" xlink:href="#LiberationSans-46"/>
       <use x="83.398438" xlink:href="#LiberationSans-49"/>
       <use x="139.013672" xlink:href="#LiberationSans-48"/>
      </g>
     </g>
    </g>
    <g id="xtick_4">
     <g id="line2d_7">
      <path clip-path="url(#p960e0438bf)" d="M 399.675 236.58 
L 399.675 9.6 
" style="fill:none;stroke:#cccccc;stroke-linecap:round;stroke-width:0.8;"/>
     </g>
     <g id="line2d_8">
      <g>
       <use style="fill:#262626;stroke:#262626;" x="399.675" xlink:href="#mc25294eb5c" y="236.58"/>
      </g>
     </g>
     <g id="text_4">
      <!-- 0.15 -->
      <g style="fill:#262626;" transform="translate(386.052344 255.025625)scale(0.14 -0.14)">
       <use xlink:href="#LiberationSans-48"/>
       <use x="55.615234" xlink:href="#LiberationSans-46"/>
       <use x="83.398438" xlink:href="#LiberationSans-49"/>
       <use x="139.013672" xlink:href="#LiberationSans-53"/>
      </g>
     </g>
    </g>
    <g id="xtick_5">
     <g id="line2d_9">
      <defs>
       <path d="M 0 0 
L 0 3.2 
" id="m1d37697576" style="stroke:#262626;stroke-width:0.8;"/>
      </defs>
      <g>
       <use style="fill:#262626;stroke:#262626;stroke-width:0.8;" x="81.525" xlink:href="#m1d37697576" y="236.58"/>
      </g>
     </g>
    </g>
    <g id="xtick_6">
     <g id="line2d_10">
      <g>
       <use style="fill:#262626;stroke:#262626;stroke-width:0.8;" x="104.25" xlink:href="#m1d37697576" y="236.58"/>
      </g>
     </g>
    </g>
    <g id="xtick_7">
     <g id="line2d_11">
      <g>
       <use style="fill:#262626;stroke:#262626;stroke-width:0.8;" x="126.975" xlink:href="#m1d37697576" y="236.58"/>
      </g>
     </g>
    </g>
    <g id="xtick_8">
     <g id="line2d_12">
      <g>
       <use style="fill:#262626;stroke:#262626;stroke-width:0.8;" x="149.7" xlink:href="#m1d37697576" y="236.58"/>
      </g>
     </g>
    </g>
    <g id="xtick_9">
     <g id="line2d_13">
      <g>
       <use style="fill:#262626;stroke:#262626;stroke-width:0.8;" x="195.15" xlink:href="#m1d37697576" y="236.58"/>
      </g>
     </g>
    </g>
    <g id="xtick_10">
     <g id="line2d_14">
      <g>
       <use style="fill:#262626;stroke:#262626;stroke-width:0.8;" x="217.875" xlink:href="#m1d37697576" y="236.58"/>
      </g>
     </g>
    </g>
    <g id="xtick_11">
     <g id="line2d_15">
      <g>
       <use style="fill:#262626;stroke:#262626;stroke-width:0.8;" x="240.6" xlink:href="#m1d37697576" y="236.58"/>
      </g>
     </g>
    </g>
    <g id="xtick_12">
     <g id="line2d_16">
      <g>
       <use style="fill:#262626;stroke:#262626;stroke-width:0.8;" x="263.325" xlink:href="#m1d37697576" y="236.58"/>
      </g>
     </g>
    </g>
    <g id="xtick_13">
     <g id="line2d_17">
      <g>
       <use style="fill:#262626;stroke:#262626;stroke-width:0.8;" x="308.775" xlink:href="#m1d37697576" y="236.58"/>
      </g>
     </g>
    </g>
    <g id="xtick_14">
     <g id="line2d_18">
      <g>
       <use style="fill:#262626;stroke:#262626;stroke-width:0.8;" x="331.5" xlink:href="#m1d37697576" y="236.58"/>
      </g>
     </g>
    </g>
    <g id="xtick_15">
     <g id="line2d_19">
      <g>
       <use style="fill:#262626;stroke:#262626;stroke-width:0.8;" x="354.225" xlink:href="#m1d37697576" y="236.58"/>
      </g>
     </g>
    </g>
    <g id="xtick_16">
     <g id="line2d_20">
      <g>
       <use style="fill:#262626;stroke:#262626;stroke-width:0.8;" x="376.95" xlink:href="#m1d37697576" y="236.58"/>
      </g>
     </g>
    </g>
    <g id="xtick_17">
     <g id="line2d_21">
      <g>
       <use style="fill:#262626;stroke:#262626;stroke-width:0.8;" x="422.4" xlink:href="#m1d37697576" y="236.58"/>
      </g>
     </g>
    </g>
    <g id="text_5">
     <!-- Time (s) -->
     <defs>
      <path d="M 35.15625 61.1875 
L 35.15625 0 
L 25.875 0 
L 25.875 61.1875 
L 2.25 61.1875 
L 2.25 68.796875 
L 58.796875 68.796875 
L 58.796875 61.1875 
z
" id="LiberationSans-84"/>
      <path d="M 6.6875 64.0625 
L 6.6875 72.46875 
L 15.484375 72.46875 
L 15.484375 64.0625 
z
M 6.6875 0 
L 6.6875 52.828125 
L 15.484375 52.828125 
L 15.484375 0 
z
" id="LiberationSans-105"/>
      <path d="M 37.5 0 
L 37.5 33.5 
Q 37.5 37.359375 37.015625 39.9375 
Q 36.53125 42.53125 35.375 44.109375 
Q 34.234375 45.703125 32.375 46.359375 
Q 30.515625 47.015625 27.828125 47.015625 
Q 25.046875 47.015625 22.796875 45.921875 
Q 20.5625 44.828125 18.96875 42.75 
Q 17.390625 40.671875 16.53125 37.625 
Q 15.671875 34.578125 15.671875 30.609375 
L 15.671875 0 
L 6.9375 0 
L 6.9375 41.546875 
Q 6.9375 43.21875 6.90625 45.046875 
Q 6.890625 46.875 6.828125 48.5 
Q 6.78125 50.140625 6.734375 51.3125 
Q 6.6875 52.484375 6.640625 52.828125 
L 14.9375 52.828125 
Q 14.984375 52.59375 15.03125 51.515625 
Q 15.09375 50.4375 15.15625 49.046875 
Q 15.234375 47.65625 15.28125 46.21875 
Q 15.328125 44.78125 15.328125 43.796875 
L 15.484375 43.796875 
Q 16.65625 46.09375 18.015625 47.953125 
Q 19.390625 49.8125 21.21875 51.09375 
Q 23.046875 52.390625 25.40625 53.09375 
Q 27.78125 53.8125 30.90625 53.8125 
Q 36.921875 53.8125 40.40625 51.421875 
Q 43.890625 49.03125 45.265625 43.796875 
L 45.40625 43.796875 
Q 46.578125 46.09375 48.046875 47.953125 
Q 49.515625 49.8125 51.46875 51.09375 
Q 53.421875 52.390625 55.859375 53.09375 
Q 58.296875 53.8125 61.421875 53.8125 
Q 65.4375 53.8125 68.328125 52.734375 
Q 71.234375 51.65625 73.09375 49.40625 
Q 74.953125 47.171875 75.828125 43.625 
Q 76.703125 40.09375 76.703125 35.203125 
L 76.703125 0 
L 68.015625 0 
L 68.015625 33.5 
Q 68.015625 37.359375 67.53125 39.9375 
Q 67.046875 42.53125 65.890625 44.109375 
Q 64.75 45.703125 62.890625 46.359375 
Q 61.03125 47.015625 58.34375 47.015625 
Q 55.5625 47.015625 53.3125 45.96875 
Q 51.078125 44.921875 49.484375 42.875 
Q 47.90625 40.828125 47.046875 37.75 
Q 46.1875 34.671875 46.1875 30.609375 
L 46.1875 0 
z
" id="LiberationSans-109"/>
      <path d="M 13.484375 24.5625 
Q 13.484375 20.40625 14.328125 16.90625 
Q 15.1875 13.421875 16.96875 10.90625 
Q 18.75 8.40625 21.53125 7 
Q 24.3125 5.609375 28.21875 5.609375 
Q 33.9375 5.609375 37.375 7.90625 
Q 40.828125 10.203125 42.046875 13.71875 
L 49.75 11.53125 
Q 48.921875 9.328125 47.4375 7.109375 
Q 45.953125 4.890625 43.453125 3.09375 
Q 40.96875 1.3125 37.234375 0.15625 
Q 33.5 -0.984375 28.21875 -0.984375 
Q 16.5 -0.984375 10.375 6 
Q 4.25 12.984375 4.25 26.765625 
Q 4.25 34.1875 6.09375 39.328125 
Q 7.953125 44.484375 11.171875 47.703125 
Q 14.40625 50.921875 18.703125 52.359375 
Q 23 53.8125 27.875 53.8125 
Q 34.515625 53.8125 38.984375 51.65625 
Q 43.453125 49.515625 46.15625 45.71875 
Q 48.875 41.9375 50.015625 36.8125 
Q 51.171875 31.6875 51.171875 25.734375 
L 51.171875 24.5625 
z
M 42.09375 31.296875 
Q 41.359375 39.65625 37.84375 43.484375 
Q 34.328125 47.3125 27.734375 47.3125 
Q 25.53125 47.3125 23.109375 46.609375 
Q 20.703125 45.90625 18.65625 44.09375 
Q 16.609375 42.28125 15.1875 39.171875 
Q 13.765625 36.078125 13.578125 31.296875 
z
" id="LiberationSans-101"/>
      <path id="LiberationSans-32"/>
      <path d="M 6.203125 25.984375 
Q 6.203125 32.765625 7.21875 38.96875 
Q 8.25 45.171875 10.4375 50.875 
Q 12.640625 56.59375 16.0625 61.953125 
Q 19.484375 67.328125 24.21875 72.46875 
L 32.71875 72.46875 
Q 28.125 67.328125 24.78125 61.9375 
Q 21.4375 56.546875 19.28125 50.796875 
Q 17.140625 45.0625 16.09375 38.859375 
Q 15.046875 32.671875 15.046875 25.875 
Q 15.046875 19.09375 16.09375 12.890625 
Q 17.140625 6.6875 19.28125 0.921875 
Q 21.4375 -4.828125 24.78125 -10.203125 
Q 28.125 -15.578125 32.71875 -20.703125 
L 24.21875 -20.703125 
Q 19.484375 -15.578125 16.0625 -10.203125 
Q 12.640625 -4.828125 10.4375 0.875 
Q 8.25 6.59375 7.21875 12.765625 
Q 6.203125 18.953125 6.203125 25.78125 
z
" id="LiberationSans-40"/>
      <path d="M 46.390625 14.59375 
Q 46.390625 10.890625 44.9375 7.984375 
Q 43.5 5.078125 40.765625 3.09375 
Q 38.03125 1.125 34.046875 0.0625 
Q 30.078125 -0.984375 24.953125 -0.984375 
Q 20.359375 -0.984375 16.671875 -0.265625 
Q 12.984375 0.4375 10.203125 2 
Q 7.421875 3.5625 5.53125 6.125 
Q 3.65625 8.6875 2.78125 12.40625 
L 10.546875 13.921875 
Q 11.671875 9.671875 15.1875 7.6875 
Q 18.703125 5.71875 24.953125 5.71875 
Q 27.78125 5.71875 30.140625 6.109375 
Q 32.515625 6.5 34.21875 7.453125 
Q 35.9375 8.40625 36.890625 9.984375 
Q 37.84375 11.578125 37.84375 13.921875 
Q 37.84375 16.3125 36.71875 17.84375 
Q 35.59375 19.390625 33.59375 20.40625 
Q 31.59375 21.4375 28.734375 22.1875 
Q 25.875 22.953125 22.46875 23.875 
Q 19.28125 24.703125 16.15625 25.734375 
Q 13.03125 26.765625 10.515625 28.4375 
Q 8.015625 30.125 6.453125 32.609375 
Q 4.890625 35.109375 4.890625 38.875 
Q 4.890625 46.09375 10.03125 49.875 
Q 15.1875 53.65625 25.046875 53.65625 
Q 33.796875 53.65625 38.9375 50.578125 
Q 44.09375 47.515625 45.453125 40.71875 
L 37.546875 39.75 
Q 37.109375 41.796875 35.9375 43.1875 
Q 34.765625 44.578125 33.109375 45.4375 
Q 31.453125 46.296875 29.375 46.65625 
Q 27.296875 47.015625 25.046875 47.015625 
Q 19.09375 47.015625 16.25 45.203125 
Q 13.421875 43.40625 13.421875 39.75 
Q 13.421875 37.59375 14.46875 36.203125 
Q 15.53125 34.8125 17.40625 33.859375 
Q 19.28125 32.90625 21.921875 32.203125 
Q 24.5625 31.5 27.734375 30.71875 
Q 29.828125 30.171875 32.03125 29.5625 
Q 34.234375 28.953125 36.296875 28.09375 
Q 38.375 27.25 40.203125 26.09375 
Q 42.046875 24.953125 43.40625 23.34375 
Q 44.78125 21.734375 45.578125 19.578125 
Q 46.390625 17.4375 46.390625 14.59375 
z
" id="LiberationSans-115"/>
      <path d="M 27.09375 25.78125 
Q 27.09375 18.953125 26.0625 12.765625 
Q 25.046875 6.59375 22.84375 0.875 
Q 20.65625 -4.828125 17.234375 -10.203125 
Q 13.8125 -15.578125 9.078125 -20.703125 
L 0.59375 -20.703125 
Q 5.171875 -15.578125 8.515625 -10.203125 
Q 11.859375 -4.828125 14 0.921875 
Q 16.15625 6.6875 17.203125 12.890625 
Q 18.265625 19.09375 18.265625 25.875 
Q 18.265625 32.671875 17.203125 38.859375 
Q 16.15625 45.0625 14 50.796875 
Q 11.859375 56.546875 8.515625 61.9375 
Q 5.171875 67.328125 0.59375 72.46875 
L 9.078125 72.46875 
Q 13.8125 67.328125 17.234375 61.953125 
Q 20.65625 56.59375 22.84375 50.875 
Q 25.046875 45.171875 26.0625 38.96875 
Q 27.09375 32.765625 27.09375 25.984375 
z
" id="LiberationSans-41"/>
     </defs>
     <g style="fill:#262626;" transform="translate(207.612187 274.975)scale(0.18 -0.18)">
      <use xlink:href="#LiberationSans-84"/>
      <use x="61.037109" xlink:href="#LiberationSans-105"/>
      <use x="83.253906" xlink:href="#LiberationSans-109"/>
      <use x="166.554688" xlink:href="#LiberationSans-101"/>
      <use x="222.169922" xlink:href="#LiberationSans-32"/>
      <use x="249.953125" xlink:href="#LiberationSans-40"/>
      <use x="283.253906" xlink:href="#LiberationSans-115"/>
      <use x="333.253906" xlink:href="#LiberationSans-41"/>
     </g>
    </g>
   </g>
   <g id="matplotlib.axis_2">
    <g id="ytick_1">
     <g id="line2d_22">
      <path clip-path="url(#p960e0438bf)" d="M 58.8 236.58 
L 422.4 236.58 
" style="fill:none;stroke:#cccccc;stroke-linecap:round;stroke-width:0.8;"/>
     </g>
     <g id="text_6">
      <!-- 0.4 -->
      <defs>
       <path d="M 43.015625 15.578125 
L 43.015625 0 
L 34.71875 0 
L 34.71875 15.578125 
L 2.296875 15.578125 
L 2.296875 22.40625 
L 33.796875 68.796875 
L 43.015625 68.796875 
L 43.015625 22.515625 
L 52.6875 22.515625 
L 52.6875 15.578125 
z
M 34.71875 58.890625 
Q 34.625 58.640625 34.234375 57.9375 
Q 33.84375 57.234375 33.34375 56.34375 
Q 32.859375 55.46875 32.34375 54.5625 
Q 31.84375 53.65625 31.453125 53.078125 
L 13.8125 27.09375 
Q 13.578125 26.703125 13.109375 26.0625 
Q 12.640625 25.4375 12.15625 24.78125 
Q 11.671875 24.125 11.171875 23.484375 
Q 10.6875 22.859375 10.40625 22.515625 
L 34.71875 22.515625 
z
" id="LiberationSans-52"/>
      </defs>
      <g style="fill:#262626;" transform="translate(31.04 241.652812)scale(0.14 -0.14)">
       <use xlink:href="#LiberationSans-48"/>
       <use x="55.615234" xlink:href="#LiberationSans-46"/>
       <use x="83.398438" xlink:href="#LiberationSans-52"/>
      </g>
     </g>
    </g>
    <g id="ytick_2">
     <g id="line2d_23">
      <path clip-path="url(#p960e0438bf)" d="M 58.8 207.848354 
L 422.4 207.848354 
" style="fill:none;stroke:#cccccc;stroke-linecap:round;stroke-width:0.8;"/>
     </g>
     <g id="text_7">
      <!-- 0.5 -->
      <g style="fill:#262626;" transform="translate(31.04 212.921167)scale(0.14 -0.14)">
       <use xlink:href="#LiberationSans-48"/>
       <use x="55.615234" xlink:href="#LiberationSans-46"/>
       <use x="83.398438" xlink:href="#LiberationSans-53"/>
      </g>
     </g>
    </g>
    <g id="ytick_3">
     <g id="line2d_24">
      <path clip-path="url(#p960e0438bf)" d="M 58.8 179.116709 
L 422.4 179.116709 
" style="fill:none;stroke:#cccccc;stroke-linecap:round;stroke-width:0.8;"/>
     </g>
     <g id="text_8">
      <!-- 0.6 -->
      <defs>
       <path d="M 51.21875 22.515625 
Q 51.21875 17.328125 49.78125 13 
Q 48.34375 8.6875 45.53125 5.578125 
Q 42.71875 2.484375 38.5625 0.75 
Q 34.421875 -0.984375 29 -0.984375 
Q 23 -0.984375 18.5 1.3125 
Q 14.015625 3.609375 11.03125 7.921875 
Q 8.0625 12.25 6.5625 18.53125 
Q 5.078125 24.8125 5.078125 32.8125 
Q 5.078125 42 6.765625 48.921875 
Q 8.453125 55.859375 11.625 60.5 
Q 14.796875 65.140625 19.359375 67.484375 
Q 23.921875 69.828125 29.6875 69.828125 
Q 33.203125 69.828125 36.28125 69.09375 
Q 39.359375 68.359375 41.875 66.71875 
Q 44.390625 65.09375 46.28125 62.40625 
Q 48.1875 59.71875 49.3125 55.8125 
L 40.921875 54.296875 
Q 39.546875 58.734375 36.546875 60.71875 
Q 33.546875 62.703125 29.59375 62.703125 
Q 25.984375 62.703125 23.046875 60.984375 
Q 20.125 59.28125 18.0625 55.875 
Q 16.015625 52.484375 14.90625 47.359375 
Q 13.8125 42.234375 13.8125 35.40625 
Q 16.21875 39.84375 20.5625 42.15625 
Q 24.90625 44.484375 30.515625 44.484375 
Q 35.203125 44.484375 39.015625 42.96875 
Q 42.828125 41.453125 45.53125 38.59375 
Q 48.25 35.75 49.734375 31.671875 
Q 51.21875 27.59375 51.21875 22.515625 
z
M 42.28125 22.125 
Q 42.28125 25.6875 41.40625 28.5625 
Q 40.53125 31.453125 38.765625 33.46875 
Q 37.015625 35.5 34.421875 36.59375 
Q 31.84375 37.703125 28.421875 37.703125 
Q 26.03125 37.703125 23.578125 36.984375 
Q 21.140625 36.28125 19.15625 34.6875 
Q 17.1875 33.109375 15.9375 30.515625 
Q 14.703125 27.9375 14.703125 24.21875 
Q 14.703125 20.40625 15.671875 17.109375 
Q 16.65625 13.8125 18.484375 11.375 
Q 20.3125 8.9375 22.890625 7.515625 
Q 25.484375 6.109375 28.71875 6.109375 
Q 31.890625 6.109375 34.40625 7.203125 
Q 36.921875 8.296875 38.671875 10.375 
Q 40.4375 12.453125 41.359375 15.421875 
Q 42.28125 18.40625 42.28125 22.125 
z
" id="LiberationSans-54"/>
      </defs>
      <g style="fill:#262626;" transform="translate(31.04 184.189521)scale(0.14 -0.14)">
       <use xlink:href="#LiberationSans-48"/>
       <use x="55.615234" xlink:href="#LiberationSans-46"/>
       <use x="83.398438" xlink:href="#LiberationSans-54"/>
      </g>
     </g>
    </g>
    <g id="ytick_4">
     <g id="line2d_25">
      <path clip-path="url(#p960e0438bf)" d="M 58.8 150.385063 
L 422.4 150.385063 
" style="fill:none;stroke:#cccccc;stroke-linecap:round;stroke-width:0.8;"/>
     </g>
     <g id="text_9">
      <!-- 0.7 -->
      <defs>
       <path d="M 50.59375 61.671875 
Q 45.40625 53.765625 41.0625 46.453125 
Q 36.71875 39.15625 33.59375 31.75 
Q 30.46875 24.359375 28.734375 16.578125 
Q 27 8.796875 27 0 
L 17.828125 0 
Q 17.828125 8.25 19.78125 16.1875 
Q 21.734375 24.125 25.046875 31.765625 
Q 28.375 39.40625 32.765625 46.78125 
Q 37.15625 54.15625 42.09375 61.328125 
L 5.125 61.328125 
L 5.125 68.796875 
L 50.59375 68.796875 
z
" id="LiberationSans-55"/>
      </defs>
      <g style="fill:#262626;" transform="translate(31.04 155.457876)scale(0.14 -0.14)">
       <use xlink:href="#LiberationSans-48"/>
       <use x="55.615234" xlink:href="#LiberationSans-46"/>
       <use x="83.398438" xlink:href="#LiberationSans-55"/>
      </g>
     </g>
    </g>
    <g id="ytick_5">
     <g id="line2d_26">
      <path clip-path="url(#p960e0438bf)" d="M 58.8 121.653418 
L 422.4 121.653418 
" style="fill:none;stroke:#cccccc;stroke-linecap:round;stroke-width:0.8;"/>
     </g>
     <g id="text_10">
      <!-- 0.8 -->
      <defs>
       <path d="M 51.265625 19.1875 
Q 51.265625 14.796875 49.875 11.109375 
Q 48.484375 7.421875 45.625 4.734375 
Q 42.78125 2.046875 38.328125 0.53125 
Q 33.890625 -0.984375 27.828125 -0.984375 
Q 21.78125 -0.984375 17.359375 0.53125 
Q 12.9375 2.046875 10.03125 4.703125 
Q 7.125 7.375 5.734375 11.0625 
Q 4.34375 14.75 4.34375 19.09375 
Q 4.34375 22.859375 5.484375 25.78125 
Q 6.640625 28.71875 8.5625 30.828125 
Q 10.5 32.953125 12.96875 34.25 
Q 15.4375 35.546875 18.0625 35.984375 
L 18.0625 36.1875 
Q 15.1875 36.859375 12.90625 38.375 
Q 10.640625 39.890625 9.09375 42.015625 
Q 7.5625 44.140625 6.75 46.71875 
Q 5.953125 49.3125 5.953125 52.203125 
Q 5.953125 55.8125 7.34375 59 
Q 8.734375 62.203125 11.46875 64.625 
Q 14.203125 67.046875 18.25 68.4375 
Q 22.3125 69.828125 27.640625 69.828125 
Q 33.25 69.828125 37.375 68.40625 
Q 41.5 67 44.203125 64.578125 
Q 46.921875 62.15625 48.234375 58.9375 
Q 49.5625 55.71875 49.5625 52.09375 
Q 49.5625 49.265625 48.75 46.671875 
Q 47.953125 44.09375 46.40625 41.96875 
Q 44.875 39.84375 42.59375 38.34375 
Q 40.328125 36.859375 37.359375 36.28125 
L 37.359375 36.078125 
Q 40.328125 35.59375 42.859375 34.296875 
Q 45.40625 33.015625 47.265625 30.890625 
Q 49.125 28.765625 50.1875 25.828125 
Q 51.265625 22.90625 51.265625 19.1875 
z
M 40.4375 51.609375 
Q 40.4375 54.203125 39.765625 56.34375 
Q 39.109375 58.5 37.59375 60.03125 
Q 36.078125 61.578125 33.640625 62.421875 
Q 31.203125 63.28125 27.640625 63.28125 
Q 24.171875 63.28125 21.78125 62.421875 
Q 19.390625 61.578125 17.84375 60.03125 
Q 16.3125 58.5 15.625 56.34375 
Q 14.9375 54.203125 14.9375 51.609375 
Q 14.9375 49.5625 15.46875 47.40625 
Q 16.015625 45.265625 17.421875 43.5 
Q 18.84375 41.75 21.328125 40.625 
Q 23.828125 39.5 27.734375 39.5 
Q 31.890625 39.5 34.40625 40.625 
Q 36.921875 41.75 38.25 43.5 
Q 39.59375 45.265625 40.015625 47.40625 
Q 40.4375 49.5625 40.4375 51.609375 
z
M 42.140625 20.015625 
Q 42.140625 22.515625 41.453125 24.828125 
Q 40.765625 27.15625 39.109375 28.9375 
Q 37.453125 30.71875 34.640625 31.8125 
Q 31.84375 32.90625 27.640625 32.90625 
Q 23.78125 32.90625 21.0625 31.8125 
Q 18.359375 30.71875 16.671875 28.90625 
Q 14.984375 27.09375 14.203125 24.71875 
Q 13.421875 22.359375 13.421875 19.828125 
Q 13.421875 16.65625 14.203125 14.03125 
Q 14.984375 11.421875 16.6875 9.546875 
Q 18.40625 7.671875 21.1875 6.640625 
Q 23.96875 5.609375 27.9375 5.609375 
Q 31.9375 5.609375 34.671875 6.640625 
Q 37.40625 7.671875 39.0625 9.546875 
Q 40.71875 11.421875 41.421875 14.078125 
Q 42.140625 16.75 42.140625 20.015625 
z
" id="LiberationSans-56"/>
      </defs>
      <g style="fill:#262626;" transform="translate(31.04 126.72623)scale(0.14 -0.14)">
       <use xlink:href="#LiberationSans-48"/>
       <use x="55.615234" xlink:href="#LiberationSans-46"/>
       <use x="83.398438" xlink:href="#LiberationSans-56"/>
      </g>
     </g>
    </g>
    <g id="ytick_6">
     <g id="line2d_27">
      <path clip-path="url(#p960e0438bf)" d="M 58.8 92.921772 
L 422.4 92.921772 
" style="fill:none;stroke:#cccccc;stroke-linecap:round;stroke-width:0.8;"/>
     </g>
     <g id="text_11">
      <!-- 0.9 -->
      <defs>
       <path d="M 50.875 35.796875 
Q 50.875 26.609375 49.140625 19.703125 
Q 47.40625 12.796875 44.1875 8.203125 
Q 40.96875 3.609375 36.34375 1.3125 
Q 31.734375 -0.984375 25.984375 -0.984375 
Q 22.015625 -0.984375 18.84375 -0.171875 
Q 15.671875 0.640625 13.171875 2.34375 
Q 10.6875 4.046875 8.921875 6.78125 
Q 7.171875 9.515625 6.109375 13.375 
L 14.5 14.703125 
Q 15.875 10.25 18.78125 8.171875 
Q 21.6875 6.109375 26.125 6.109375 
Q 29.6875 6.109375 32.640625 7.78125 
Q 35.59375 9.46875 37.671875 12.84375 
Q 39.75 16.21875 40.921875 21.296875 
Q 42.09375 26.375 42.1875 33.203125 
Q 41.15625 30.90625 39.375 29.09375 
Q 37.59375 27.296875 35.328125 26.046875 
Q 33.0625 24.8125 30.421875 24.140625 
Q 27.78125 23.484375 25.09375 23.484375 
Q 20.40625 23.484375 16.625 25.171875 
Q 12.84375 26.859375 10.203125 29.875 
Q 7.5625 32.90625 6.125 37.171875 
Q 4.6875 41.453125 4.6875 46.6875 
Q 4.6875 52 6.21875 56.296875 
Q 7.765625 60.59375 10.6875 63.59375 
Q 13.625 66.609375 17.890625 68.21875 
Q 22.171875 69.828125 27.59375 69.828125 
Q 39.0625 69.828125 44.96875 61.328125 
Q 50.875 52.828125 50.875 35.796875 
z
M 41.3125 44.28125 
Q 41.3125 48.09375 40.40625 51.453125 
Q 39.5 54.828125 37.71875 57.3125 
Q 35.9375 59.8125 33.328125 61.25 
Q 30.71875 62.703125 27.296875 62.703125 
Q 24.125 62.703125 21.578125 61.578125 
Q 19.046875 60.453125 17.28125 58.375 
Q 15.53125 56.296875 14.578125 53.3125 
Q 13.625 50.34375 13.625 46.6875 
Q 13.625 43.21875 14.46875 40.234375 
Q 15.328125 37.25 17.03125 35.078125 
Q 18.75 32.90625 21.28125 31.65625 
Q 23.828125 30.421875 27.203125 30.421875 
Q 29.640625 30.421875 32.15625 31.25 
Q 34.671875 32.078125 36.6875 33.78125 
Q 38.71875 35.5 40.015625 38.109375 
Q 41.3125 40.71875 41.3125 44.28125 
z
" id="LiberationSans-57"/>
      </defs>
      <g style="fill:#262626;" transform="translate(31.04 97.994585)scale(0.14 -0.14)">
       <use xlink:href="#LiberationSans-48"/>
       <use x="55.615234" xlink:href="#LiberationSans-46"/>
       <use x="83.398438" xlink:href="#LiberationSans-57"/>
      </g>
     </g>
    </g>
    <g id="ytick_7">
     <g id="line2d_28">
      <path clip-path="url(#p960e0438bf)" d="M 58.8 64.190127 
L 422.4 64.190127 
" style="fill:none;stroke:#cccccc;stroke-linecap:round;stroke-width:0.8;"/>
     </g>
     <g id="text_12">
      <!-- 1.0 -->
      <g style="fill:#262626;" transform="translate(31.04 69.262939)scale(0.14 -0.14)">
       <use xlink:href="#LiberationSans-49"/>
       <use x="55.615234" xlink:href="#LiberationSans-46"/>
       <use x="83.398438" xlink:href="#LiberationSans-48"/>
      </g>
     </g>
    </g>
    <g id="ytick_8">
     <g id="line2d_29">
      <path clip-path="url(#p960e0438bf)" d="M 58.8 35.458481 
L 422.4 35.458481 
" style="fill:none;stroke:#cccccc;stroke-linecap:round;stroke-width:0.8;"/>
     </g>
     <g id="text_13">
      <!-- 1.1 -->
      <g style="fill:#262626;" transform="translate(31.04 40.531294)scale(0.14 -0.14)">
       <use xlink:href="#LiberationSans-49"/>
       <use x="55.615234" xlink:href="#LiberationSans-46"/>
       <use x="83.398438" xlink:href="#LiberationSans-49"/>
      </g>
     </g>
    </g>
    <g id="text_14">
     <!-- Test Accuracy -->
     <defs>
      <path d="M 27.046875 0.390625 
Q 25.046875 -0.140625 22.96875 -0.453125 
Q 20.90625 -0.78125 18.171875 -0.78125 
Q 7.625 -0.78125 7.625 11.1875 
L 7.625 46.4375 
L 1.515625 46.4375 
L 1.515625 52.828125 
L 7.953125 52.828125 
L 10.546875 64.65625 
L 16.40625 64.65625 
L 16.40625 52.828125 
L 26.171875 52.828125 
L 26.171875 46.4375 
L 16.40625 46.4375 
L 16.40625 13.09375 
Q 16.40625 9.28125 17.640625 7.734375 
Q 18.890625 6.203125 21.96875 6.203125 
Q 23.25 6.203125 24.4375 6.390625 
Q 25.640625 6.59375 27.046875 6.890625 
z
" id="LiberationSans-116"/>
      <path d="M 56.984375 0 
L 49.125 20.125 
L 17.78125 20.125 
L 9.859375 0 
L 0.203125 0 
L 28.265625 68.796875 
L 38.875 68.796875 
L 66.5 0 
z
M 37.5 50.09375 
Q 36.71875 52.046875 36 54.046875 
Q 35.296875 56.0625 34.765625 57.6875 
Q 34.234375 59.328125 33.859375 60.421875 
Q 33.5 61.53125 33.453125 61.765625 
Q 33.34375 61.53125 33 60.40625 
Q 32.671875 59.28125 32.109375 57.609375 
Q 31.546875 55.953125 30.828125 53.953125 
Q 30.125 51.953125 29.390625 50 
L 20.609375 27.390625 
L 46.34375 27.390625 
z
" id="LiberationSans-65"/>
      <path d="M 13.421875 26.65625 
Q 13.421875 22.125 14.078125 18.3125 
Q 14.75 14.5 16.3125 11.734375 
Q 17.875 8.984375 20.4375 7.46875 
Q 23 5.953125 26.765625 5.953125 
Q 31.453125 5.953125 34.59375 8.484375 
Q 37.75 11.03125 38.484375 16.3125 
L 47.359375 15.71875 
Q 46.921875 12.453125 45.453125 9.421875 
Q 44 6.390625 41.484375 4.09375 
Q 38.96875 1.8125 35.34375 0.40625 
Q 31.734375 -0.984375 27 -0.984375 
Q 20.796875 -0.984375 16.453125 1.109375 
Q 12.109375 3.21875 9.390625 6.90625 
Q 6.6875 10.59375 5.46875 15.59375 
Q 4.25 20.609375 4.25 26.46875 
Q 4.25 31.78125 5.125 35.859375 
Q 6 39.9375 7.59375 42.984375 
Q 9.1875 46.046875 11.328125 48.125 
Q 13.484375 50.203125 15.984375 51.4375 
Q 18.5 52.6875 21.28125 53.25 
Q 24.078125 53.8125 26.90625 53.8125 
Q 31.34375 53.8125 34.8125 52.59375 
Q 38.28125 51.375 40.796875 49.25 
Q 43.3125 47.125 44.875 44.234375 
Q 46.4375 41.359375 47.078125 38.03125 
L 38.03125 37.359375 
Q 37.359375 41.75 34.5625 44.328125 
Q 31.78125 46.921875 26.65625 46.921875 
Q 22.90625 46.921875 20.390625 45.671875 
Q 17.875 44.4375 16.3125 41.921875 
Q 14.75 39.40625 14.078125 35.59375 
Q 13.421875 31.78125 13.421875 26.65625 
z
" id="LiberationSans-99"/>
      <path d="M 15.328125 52.828125 
L 15.328125 19.34375 
Q 15.328125 15.484375 15.890625 12.890625 
Q 16.453125 10.296875 17.71875 8.703125 
Q 19 7.125 21.0625 6.46875 
Q 23.140625 5.8125 26.21875 5.8125 
Q 29.34375 5.8125 31.859375 6.90625 
Q 34.375 8.015625 36.15625 10.078125 
Q 37.9375 12.15625 38.90625 15.203125 
Q 39.890625 18.265625 39.890625 22.21875 
L 39.890625 52.828125 
L 48.6875 52.828125 
L 48.6875 11.28125 
Q 48.6875 9.625 48.703125 7.78125 
Q 48.734375 5.953125 48.78125 4.3125 
Q 48.828125 2.6875 48.875 1.515625 
Q 48.921875 0.34375 48.96875 0 
L 40.671875 0 
Q 40.625 0.25 40.578125 1.3125 
Q 40.53125 2.390625 40.453125 3.78125 
Q 40.375 5.171875 40.328125 6.609375 
Q 40.28125 8.0625 40.28125 9.03125 
L 40.140625 9.03125 
Q 38.875 6.734375 37.359375 4.875 
Q 35.84375 3.03125 33.84375 1.734375 
Q 31.84375 0.4375 29.25 -0.265625 
Q 26.65625 -0.984375 23.25 -0.984375 
Q 18.84375 -0.984375 15.671875 0.09375 
Q 12.5 1.171875 10.453125 3.421875 
Q 8.40625 5.671875 7.453125 9.1875 
Q 6.5 12.703125 6.5 17.625 
L 6.5 52.828125 
z
" id="LiberationSans-117"/>
      <path d="M 6.9375 0 
L 6.9375 40.53125 
Q 6.9375 42.1875 6.90625 43.921875 
Q 6.890625 45.65625 6.828125 47.265625 
Q 6.78125 48.875 6.734375 50.28125 
Q 6.6875 51.703125 6.640625 52.828125 
L 14.9375 52.828125 
Q 14.984375 51.703125 15.0625 50.265625 
Q 15.140625 48.828125 15.203125 47.3125 
Q 15.28125 45.796875 15.296875 44.40625 
Q 15.328125 43.015625 15.328125 42.046875 
L 15.53125 42.046875 
Q 16.453125 45.0625 17.5 47.28125 
Q 18.5625 49.515625 19.96875 50.953125 
Q 21.390625 52.390625 23.34375 53.09375 
Q 25.296875 53.8125 28.078125 53.8125 
Q 29.15625 53.8125 30.125 53.640625 
Q 31.109375 53.46875 31.640625 53.328125 
L 31.640625 45.265625 
Q 30.765625 45.515625 29.59375 45.625 
Q 28.421875 45.75 26.953125 45.75 
Q 23.921875 45.75 21.796875 44.375 
Q 19.671875 43.015625 18.328125 40.59375 
Q 17 38.1875 16.359375 34.84375 
Q 15.71875 31.5 15.71875 27.546875 
L 15.71875 0 
z
" id="LiberationSans-114"/>
      <path d="M 20.21875 -0.984375 
Q 12.25 -0.984375 8.25 3.21875 
Q 4.25 7.421875 4.25 14.75 
Q 4.25 19.96875 6.21875 23.3125 
Q 8.203125 26.65625 11.390625 28.5625 
Q 14.59375 30.46875 18.6875 31.203125 
Q 22.796875 31.9375 27.046875 32.03125 
L 38.921875 32.234375 
L 38.921875 35.109375 
Q 38.921875 38.375 38.234375 40.671875 
Q 37.546875 42.96875 36.125 44.375 
Q 34.71875 45.796875 32.59375 46.453125 
Q 30.46875 47.125 27.59375 47.125 
Q 25.046875 47.125 23 46.75 
Q 20.953125 46.390625 19.4375 45.4375 
Q 17.921875 44.484375 16.984375 42.84375 
Q 16.0625 41.21875 15.765625 38.71875 
L 6.59375 39.546875 
Q 7.078125 42.671875 8.4375 45.28125 
Q 9.8125 47.90625 12.328125 49.796875 
Q 14.84375 51.703125 18.625 52.75 
Q 22.40625 53.8125 27.78125 53.8125 
Q 37.75 53.8125 42.765625 49.234375 
Q 47.796875 44.671875 47.796875 36.03125 
L 47.796875 13.28125 
Q 47.796875 9.375 48.828125 7.390625 
Q 49.859375 5.421875 52.734375 5.421875 
Q 53.46875 5.421875 54.203125 5.515625 
Q 54.9375 5.609375 55.609375 5.765625 
L 55.609375 0.296875 
Q 53.953125 -0.09375 52.3125 -0.28125 
Q 50.6875 -0.484375 48.828125 -0.484375 
Q 46.34375 -0.484375 44.5625 0.171875 
Q 42.78125 0.828125 41.65625 2.171875 
Q 40.53125 3.515625 39.9375 5.484375 
Q 39.359375 7.46875 39.203125 10.109375 
L 38.921875 10.109375 
Q 37.5 7.5625 35.8125 5.515625 
Q 34.125 3.46875 31.875 2.03125 
Q 29.640625 0.59375 26.78125 -0.1875 
Q 23.921875 -0.984375 20.21875 -0.984375 
z
M 22.21875 5.609375 
Q 26.421875 5.609375 29.5625 7.140625 
Q 32.71875 8.6875 34.78125 11.078125 
Q 36.859375 13.484375 37.890625 16.3125 
Q 38.921875 19.140625 38.921875 21.734375 
L 38.921875 26.078125 
L 29.296875 25.875 
Q 26.078125 25.828125 23.171875 25.40625 
Q 20.265625 25 18.0625 23.78125 
Q 15.875 22.5625 14.578125 20.359375 
Q 13.28125 18.171875 13.28125 14.59375 
Q 13.28125 10.296875 15.59375 7.953125 
Q 17.921875 5.609375 22.21875 5.609375 
z
" id="LiberationSans-97"/>
      <path d="M 29.5 0 
Q 27.640625 -4.78125 25.703125 -8.609375 
Q 23.78125 -12.453125 21.390625 -15.15625 
Q 19 -17.875 16.0625 -19.3125 
Q 13.140625 -20.75 9.328125 -20.75 
Q 7.671875 -20.75 6.25 -20.65625 
Q 4.828125 -20.5625 3.265625 -20.21875 
L 3.265625 -13.625 
Q 4.203125 -13.765625 5.375 -13.84375 
Q 6.546875 -13.921875 7.375 -13.921875 
Q 11.234375 -13.921875 14.546875 -11.03125 
Q 17.875 -8.15625 20.359375 -1.859375 
L 21.1875 0.25 
L 0.25 52.828125 
L 9.625 52.828125 
L 20.75 23.640625 
Q 21.234375 22.3125 21.984375 20.109375 
Q 22.75 17.921875 23.5 15.71875 
Q 24.265625 13.53125 24.84375 11.765625 
Q 25.4375 10.015625 25.53125 9.578125 
Q 25.6875 10.109375 26.25 11.6875 
Q 26.8125 13.28125 27.515625 15.234375 
Q 28.21875 17.1875 28.953125 19.1875 
Q 29.6875 21.1875 30.171875 22.65625 
L 40.53125 52.828125 
L 49.8125 52.828125 
z
" id="LiberationSans-121"/>
     </defs>
     <g style="fill:#262626;" transform="translate(23.305 180.079688)rotate(-90)scale(0.18 -0.18)">
      <use xlink:href="#LiberationSans-84"/>
      <use x="60.912109" xlink:href="#LiberationSans-101"/>
      <use x="116.527344" xlink:href="#LiberationSans-115"/>
      <use x="166.527344" xlink:href="#LiberationSans-116"/>
      <use x="194.310547" xlink:href="#LiberationSans-32"/>
      <use x="222.015625" xlink:href="#LiberationSans-65"/>
      <use x="288.714844" xlink:href="#LiberationSans-99"/>
      <use x="338.714844" xlink:href="#LiberationSans-99"/>
      <use x="388.714844" xlink:href="#LiberationSans-117"/>
      <use x="444.330078" xlink:href="#LiberationSans-114"/>
      <use x="477.630859" xlink:href="#LiberationSans-97"/>
      <use x="533.246094" xlink:href="#LiberationSans-99"/>
      <use x="583.246094" xlink:href="#LiberationSans-121"/>
     </g>
    </g>
   </g>
   <g id="PolyCollection_1">
    <path clip-path="url(#p960e0438bf)" d="M 58.8 207.848354 
L 58.8 207.848354 
L 61.0725 207.848354 
L 63.345 207.848354 
L 65.6175 207.848354 
L 67.89 207.848354 
L 70.1625 207.848354 
L 72.435 207.848354 
L 74.7075 207.848354 
L 76.98 207.848354 
L 79.2525 207.848354 
L 81.525 207.848354 
L 83.7975 207.848354 
L 86.07 207.848354 
L 88.3425 204.256899 
L 90.615 175.525253 
L 92.8875 153.364924 
L 95.16 162.247524 
L 97.4325 162.247524 
L 99.705 147.881702 
L 101.9775 163.02635 
L 104.25 135.413364 
L 106.5225 133.016704 
L 108.795 133.016704 
L 111.0675 144.375351 
L 113.34 144.375351 
L 115.6125 142.733191 
L 117.885 142.733191 
L 120.1575 138.321319 
L 122.43 138.321319 
L 124.7025 138.321319 
L 126.975 138.321319 
L 129.2475 138.321319 
L 131.52 138.321319 
L 133.7925 138.321319 
L 136.065 138.321319 
L 138.3375 138.321319 
L 140.61 138.321319 
L 142.8825 138.321319 
L 145.155 138.321319 
L 147.4275 138.321319 
L 149.7 138.321319 
L 151.9725 138.321319 
L 154.245 138.321319 
L 156.5175 138.321319 
L 158.79 138.321319 
L 161.0625 138.321319 
L 163.335 138.321319 
L 165.6075 138.321319 
L 167.88 138.321319 
L 170.1525 135.550279 
L 172.425 135.550279 
L 174.6975 135.550279 
L 176.97 135.550279 
L 179.2425 135.550279 
L 181.515 135.550279 
L 183.7875 135.550279 
L 186.06 135.550279 
L 188.3325 135.550279 
L 190.605 135.550279 
L 192.8775 135.550279 
L 195.15 135.550279 
L 197.4225 135.550279 
L 199.695 135.550279 
L 201.9675 135.550279 
L 204.24 135.550279 
L 206.5125 135.550279 
L 208.785 135.550279 
L 211.0575 135.550279 
L 213.33 135.550279 
L 215.6025 124.987019 
L 217.875 124.987019 
L 220.1475 125.244873 
L 222.42 125.244873 
L 224.6925 125.244873 
L 226.965 125.244873 
L 229.2375 125.244873 
L 231.51 125.244873 
L 233.7825 125.244873 
L 236.055 114.470506 
L 238.3275 114.470506 
L 240.6 114.470506 
L 242.8725 114.470506 
L 245.145 114.470506 
L 247.4175 114.589825 
L 249.69 114.589825 
L 251.9625 114.589825 
L 254.235 114.589825 
L 256.5075 114.589825 
L 258.78 114.589825 
L 261.0525 114.589825 
L 263.325 114.589825 
L 265.5975 114.589825 
L 267.87 114.589825 
L 270.1425 114.589825 
L 272.415 114.589825 
L 274.6875 114.589825 
L 276.96 114.589825 
L 279.2325 114.589825 
L 281.505 114.589825 
L 283.7775 114.589825 
L 286.05 114.589825 
L 288.3225 114.589825 
L 290.595 114.589825 
L 292.8675 114.589825 
L 295.14 113.238114 
L 297.4125 113.238114 
L 299.685 113.238114 
L 301.9575 113.238114 
L 304.23 113.238114 
L 306.5025 113.238114 
L 308.775 113.238114 
L 311.0475 113.238114 
L 313.32 113.238114 
L 315.5925 113.238114 
L 317.865 113.238114 
L 320.1375 113.238114 
L 322.41 113.238114 
L 324.6825 113.238114 
L 326.955 113.238114 
L 329.2275 113.238114 
L 331.5 113.238114 
L 333.7725 113.238114 
L 336.045 113.238114 
L 338.3175 113.238114 
L 340.59 113.238114 
L 342.8625 113.238114 
L 345.135 113.238114 
L 347.4075 113.238114 
L 349.68 114.589825 
L 351.9525 114.589825 
L 354.225 114.589825 
L 356.4975 114.589825 
L 358.77 114.589825 
L 361.0425 114.589825 
L 363.315 114.589825 
L 365.5875 114.589825 
L 367.86 114.589825 
L 370.1325 114.589825 
L 372.405 114.589825 
L 374.6775 114.589825 
L 376.95 114.589825 
L 379.2225 114.589825 
L 381.495 114.589825 
L 383.7675 114.589825 
L 386.04 114.589825 
L 388.3125 114.589825 
L 390.585 114.589825 
L 392.8575 114.589825 
L 395.13 114.589825 
L 397.4025 114.589825 
L 399.675 114.589825 
L 401.9475 114.589825 
L 404.22 114.589825 
L 406.4925 114.589825 
L 408.765 114.589825 
L 411.0375 114.589825 
L 413.31 114.589825 
L 415.5825 114.589825 
L 417.855 114.589825 
L 420.1275 114.589825 
L 422.4 114.589825 
L 424.6725 114.589825 
L 426.945 114.589825 
L 429.2175 114.589825 
L 431.49 114.589825 
L 433.7625 114.589825 
L 436.035 114.589825 
L 438.3075 114.589825 
L 440.58 114.589825 
L 442.8525 114.589825 
L 445.125 114.589825 
L 447.3975 114.589825 
L 449.67 114.589825 
L 451.9425 114.589825 
L 454.215 114.589825 
L 456.4875 114.589825 
L 458.76 114.589825 
L 461.0325 114.589825 
L 463.305 114.589825 
L 465.5775 114.589825 
L 467.85 114.589825 
L 470.1225 114.589825 
L 472.395 114.589825 
L 474.6675 114.589825 
L 476.94 114.589825 
L 479.2125 114.589825 
L 481.485 114.589825 
L 483.7575 114.589825 
L 486.03 114.589825 
L 488.3025 114.589825 
L 490.575 114.589825 
L 492.8475 114.589825 
L 495.12 114.589825 
L 497.3925 114.589825 
L 499.665 114.589825 
L 501.9375 114.589825 
L 504.21 114.589825 
L 506.4825 114.589825 
L 508.755 114.589825 
L 511.0275 114.589825 
L 513.3 114.589825 
L 515.5725 114.589825 
L 517.845 114.589825 
L 520.1175 114.589825 
L 522.39 114.589825 
L 524.6625 114.589825 
L 526.935 114.589825 
L 529.2075 114.589825 
L 531.48 114.589825 
L 533.7525 114.589825 
L 536.025 114.589825 
L 538.2975 114.589825 
L 540.57 114.589825 
L 542.8425 114.589825 
L 545.115 114.589825 
L 547.3875 114.589825 
L 549.66 114.589825 
L 551.9325 114.589825 
L 554.205 114.589825 
L 556.4775 114.589825 
L 558.75 114.589825 
L 561.0225 114.589825 
L 563.295 114.589825 
L 565.5675 114.589825 
L 567.84 114.589825 
L 570.1125 114.589825 
L 572.385 114.589825 
L 574.6575 114.589825 
L 576.93 114.589825 
L 579.2025 114.589825 
L 581.475 114.589825 
L 583.7475 114.589825 
L 586.02 114.589825 
L 588.2925 114.589825 
L 590.565 114.589825 
L 592.8375 114.589825 
L 595.11 114.589825 
L 597.3825 114.589825 
L 599.655 114.589825 
L 601.9275 114.589825 
L 604.2 114.589825 
L 606.4725 114.589825 
L 608.745 114.589825 
L 611.0175 114.589825 
L 613.29 114.589825 
L 615.5625 114.589825 
L 617.835 114.589825 
L 620.1075 114.589825 
L 622.38 114.589825 
L 624.6525 114.589825 
L 626.925 114.589825 
L 629.1975 114.589825 
L 631.47 114.589825 
L 633.7425 114.589825 
L 636.015 114.589825 
L 638.2875 114.589825 
L 640.56 114.589825 
L 642.8325 114.589825 
L 645.105 114.589825 
L 647.3775 114.589825 
L 649.65 114.589825 
L 651.9225 114.589825 
L 654.195 114.589825 
L 656.4675 114.589825 
L 658.74 114.589825 
L 661.0125 114.589825 
L 663.285 114.589825 
L 665.5575 114.589825 
L 667.83 114.589825 
L 670.1025 114.589825 
L 672.375 114.589825 
L 674.6475 114.589825 
L 676.92 114.589825 
L 679.1925 114.589825 
L 681.465 114.589825 
L 683.7375 114.589825 
L 686.01 114.589825 
L 688.2825 114.589825 
L 690.555 114.589825 
L 692.8275 114.589825 
L 695.1 114.589825 
L 697.3725 114.589825 
L 699.645 114.589825 
L 701.9175 114.589825 
L 704.19 114.589825 
L 706.4625 114.589825 
L 708.735 114.589825 
L 711.0075 114.589825 
L 713.28 114.589825 
L 715.5525 114.589825 
L 717.825 114.589825 
L 720.0975 114.589825 
L 722.37 114.589825 
L 724.6425 114.589825 
L 726.915 114.589825 
L 729.1875 114.589825 
L 731.46 114.589825 
L 733.7325 114.589825 
L 736.005 114.589825 
L 738.2775 114.589825 
L 740.55 114.589825 
L 742.8225 114.589825 
L 745.095 114.589825 
L 747.3675 114.589825 
L 749.64 114.589825 
L 751.9125 114.589825 
L 754.185 114.589825 
L 756.4575 114.589825 
L 758.73 114.589825 
L 761.0025 114.589825 
L 763.275 114.589825 
L 765.5475 114.589825 
L 767.82 114.589825 
L 770.0925 114.589825 
L 772.365 114.589825 
L 774.6375 114.589825 
L 776.91 114.589825 
L 779.1825 114.589825 
L 781.455 114.589825 
L 783.7275 114.589825 
L 786 114.589825 
L 788.2725 114.589825 
L 790.545 114.589825 
L 792.8175 114.589825 
L 795.09 114.589825 
L 795.09 78.436631 
L 795.09 78.436631 
L 792.8175 78.436631 
L 790.545 78.436631 
L 788.2725 78.436631 
L 786 78.436631 
L 783.7275 78.436631 
L 781.455 78.436631 
L 779.1825 78.436631 
L 776.91 78.436631 
L 774.6375 78.436631 
L 772.365 78.436631 
L 770.0925 78.436631 
L 767.82 78.436631 
L 765.5475 78.436631 
L 763.275 78.436631 
L 761.0025 78.436631 
L 758.73 78.436631 
L 756.4575 78.436631 
L 754.185 78.436631 
L 751.9125 78.436631 
L 749.64 78.436631 
L 747.3675 78.436631 
L 745.095 78.436631 
L 742.8225 78.436631 
L 740.55 78.436631 
L 738.2775 78.436631 
L 736.005 78.436631 
L 733.7325 78.436631 
L 731.46 78.436631 
L 729.1875 78.436631 
L 726.915 78.436631 
L 724.6425 78.436631 
L 722.37 78.436631 
L 720.0975 78.436631 
L 717.825 78.436631 
L 715.5525 78.436631 
L 713.28 78.436631 
L 711.0075 78.436631 
L 708.735 78.436631 
L 706.4625 78.436631 
L 704.19 78.436631 
L 701.9175 78.436631 
L 699.645 78.436631 
L 697.3725 78.436631 
L 695.1 78.436631 
L 692.8275 78.436631 
L 690.555 78.436631 
L 688.2825 78.436631 
L 686.01 78.436631 
L 683.7375 78.436631 
L 681.465 78.436631 
L 679.1925 78.436631 
L 676.92 78.436631 
L 674.6475 78.436631 
L 672.375 78.436631 
L 670.1025 78.436631 
L 667.83 78.436631 
L 665.5575 78.436631 
L 663.285 78.436631 
L 661.0125 78.436631 
L 658.74 78.436631 
L 656.4675 78.436631 
L 654.195 78.436631 
L 651.9225 78.436631 
L 649.65 78.436631 
L 647.3775 78.436631 
L 645.105 78.436631 
L 642.8325 78.436631 
L 640.56 78.436631 
L 638.2875 78.436631 
L 636.015 78.436631 
L 633.7425 78.436631 
L 631.47 78.436631 
L 629.1975 78.436631 
L 626.925 78.436631 
L 624.6525 78.436631 
L 622.38 78.436631 
L 620.1075 78.436631 
L 617.835 78.436631 
L 615.5625 78.436631 
L 613.29 78.436631 
L 611.0175 78.436631 
L 608.745 78.436631 
L 606.4725 78.436631 
L 604.2 78.436631 
L 601.9275 78.436631 
L 599.655 78.436631 
L 597.3825 78.436631 
L 595.11 78.436631 
L 592.8375 78.436631 
L 590.565 78.436631 
L 588.2925 78.436631 
L 586.02 78.436631 
L 583.7475 78.436631 
L 581.475 78.436631 
L 579.2025 78.436631 
L 576.93 78.436631 
L 574.6575 78.436631 
L 572.385 78.436631 
L 570.1125 78.436631 
L 567.84 78.436631 
L 565.5675 78.436631 
L 563.295 78.436631 
L 561.0225 78.436631 
L 558.75 78.436631 
L 556.4775 78.436631 
L 554.205 78.436631 
L 551.9325 78.436631 
L 549.66 78.436631 
L 547.3875 78.436631 
L 545.115 78.436631 
L 542.8425 78.436631 
L 540.57 78.436631 
L 538.2975 78.436631 
L 536.025 78.436631 
L 533.7525 78.436631 
L 531.48 78.436631 
L 529.2075 78.436631 
L 526.935 78.436631 
L 524.6625 78.436631 
L 522.39 78.436631 
L 520.1175 78.436631 
L 517.845 78.436631 
L 515.5725 78.436631 
L 513.3 78.436631 
L 511.0275 78.436631 
L 508.755 78.436631 
L 506.4825 78.436631 
L 504.21 78.436631 
L 501.9375 78.436631 
L 499.665 78.436631 
L 497.3925 78.436631 
L 495.12 78.436631 
L 492.8475 78.436631 
L 490.575 78.436631 
L 488.3025 78.436631 
L 486.03 78.436631 
L 483.7575 78.436631 
L 481.485 78.436631 
L 479.2125 78.436631 
L 476.94 78.436631 
L 474.6675 78.436631 
L 472.395 78.436631 
L 470.1225 78.436631 
L 467.85 78.436631 
L 465.5775 78.436631 
L 463.305 78.436631 
L 461.0325 78.436631 
L 458.76 78.436631 
L 456.4875 78.436631 
L 454.215 78.436631 
L 451.9425 78.436631 
L 449.67 78.436631 
L 447.3975 78.436631 
L 445.125 78.436631 
L 442.8525 78.436631 
L 440.58 78.436631 
L 438.3075 78.436631 
L 436.035 78.436631 
L 433.7625 78.436631 
L 431.49 78.436631 
L 429.2175 78.436631 
L 426.945 78.436631 
L 424.6725 78.436631 
L 422.4 78.436631 
L 420.1275 78.436631 
L 417.855 78.436631 
L 415.5825 78.436631 
L 413.31 78.436631 
L 411.0375 78.436631 
L 408.765 78.436631 
L 406.4925 78.436631 
L 404.22 78.436631 
L 401.9475 78.436631 
L 399.675 78.436631 
L 397.4025 78.436631 
L 395.13 78.436631 
L 392.8575 78.436631 
L 390.585 78.436631 
L 388.3125 78.436631 
L 386.04 78.436631 
L 383.7675 78.436631 
L 381.495 78.436631 
L 379.2225 78.436631 
L 376.95 78.436631 
L 374.6775 78.436631 
L 372.405 78.436631 
L 370.1325 78.436631 
L 367.86 78.436631 
L 365.5875 78.436631 
L 363.315 78.436631 
L 361.0425 78.436631 
L 358.77 78.436631 
L 356.4975 78.436631 
L 354.225 78.436631 
L 351.9525 78.436631 
L 349.68 78.436631 
L 347.4075 72.605431 
L 345.135 72.605431 
L 342.8625 72.605431 
L 340.59 72.605431 
L 338.3175 72.605431 
L 336.045 72.605431 
L 333.7725 72.605431 
L 331.5 72.605431 
L 329.2275 72.605431 
L 326.955 72.605431 
L 324.6825 72.605431 
L 322.41 72.605431 
L 320.1375 72.605431 
L 317.865 72.605431 
L 315.5925 72.605431 
L 313.32 72.605431 
L 311.0475 72.605431 
L 308.775 72.605431 
L 306.5025 72.605431 
L 304.23 72.605431 
L 301.9575 72.605431 
L 299.685 72.605431 
L 297.4125 72.605431 
L 295.14 72.605431 
L 292.8675 78.436631 
L 290.595 78.436631 
L 288.3225 78.436631 
L 286.05 78.436631 
L 283.7775 78.436631 
L 281.505 78.436631 
L 279.2325 78.436631 
L 276.96 78.436631 
L 274.6875 78.436631 
L 272.415 78.436631 
L 270.1425 78.436631 
L 267.87 78.436631 
L 265.5975 78.436631 
L 263.325 78.436631 
L 261.0525 78.436631 
L 258.78 78.436631 
L 256.5075 78.436631 
L 254.235 78.436631 
L 251.9625 78.436631 
L 249.69 78.436631 
L 247.4175 78.436631 
L 245.145 85.738861 
L 242.8725 85.738861 
L 240.6 85.738861 
L 238.3275 85.738861 
L 236.055 85.738861 
L 233.7825 82.147405 
L 231.51 82.147405 
L 229.2375 82.147405 
L 226.965 82.147405 
L 224.6925 82.147405 
L 222.42 82.147405 
L 220.1475 82.147405 
L 217.875 75.222349 
L 215.6025 75.222349 
L 213.33 71.841999 
L 211.0575 71.841999 
L 208.785 71.841999 
L 206.5125 71.841999 
L 204.24 71.841999 
L 201.9675 71.841999 
L 199.695 71.841999 
L 197.4225 71.841999 
L 195.15 71.841999 
L 192.8775 71.841999 
L 190.605 71.841999 
L 188.3325 71.841999 
L 186.06 71.841999 
L 183.7875 71.841999 
L 181.515 71.841999 
L 179.2425 71.841999 
L 176.97 71.841999 
L 174.6975 71.841999 
L 172.425 71.841999 
L 170.1525 71.841999 
L 167.88 76.253871 
L 165.6075 76.253871 
L 163.335 76.253871 
L 161.0625 76.253871 
L 158.79 76.253871 
L 156.5175 76.253871 
L 154.245 76.253871 
L 151.9725 76.253871 
L 149.7 76.253871 
L 147.4275 76.253871 
L 145.155 76.253871 
L 142.8825 76.253871 
L 140.61 76.253871 
L 138.3375 76.253871 
L 136.065 76.253871 
L 133.7925 76.253871 
L 131.52 76.253871 
L 129.2475 76.253871 
L 126.975 76.253871 
L 124.7025 76.253871 
L 122.43 76.253871 
L 120.1575 76.253871 
L 117.885 79.02491 
L 115.6125 79.02491 
L 113.34 84.565661 
L 111.0675 84.565661 
L 108.795 95.924309 
L 106.5225 95.924309 
L 104.25 86.344738 
L 101.9775 87.463397 
L 99.705 95.425134 
L 97.4325 109.790957 
L 95.16 109.790957 
L 92.8875 125.856468 
L 90.615 161.15943 
L 88.3425 189.891076 
L 86.07 207.848354 
L 83.7975 207.848354 
L 81.525 207.848354 
L 79.2525 207.848354 
L 76.98 207.848354 
L 74.7075 207.848354 
L 72.435 207.848354 
L 70.1625 207.848354 
L 67.89 207.848354 
L 65.6175 207.848354 
L 63.345 207.848354 
L 61.0725 207.848354 
L 58.8 207.848354 
z
" style="fill:#e41a1c;fill-opacity:0.2;stroke:#e41a1c;stroke-opacity:0.2;stroke-width:0.8;"/>
   </g>
   <g id="PolyCollection_2">
    <path clip-path="url(#p960e0438bf)" d="M 58.8 207.848354 
L 58.8 207.848354 
L 61.0725 207.848354 
L 63.345 207.848354 
L 65.6175 207.848354 
L 67.89 207.848354 
L 70.1625 207.848354 
L 72.435 207.848354 
L 74.7075 207.848354 
L 76.98 207.848354 
L 79.2525 207.848354 
L 81.525 207.848354 
L 83.7975 207.848354 
L 86.07 211.43981 
L 88.3425 211.43981 
L 90.615 211.43981 
L 92.8875 211.43981 
L 95.16 211.43981 
L 97.4325 215.031266 
L 99.705 222.333496 
L 101.9775 222.333496 
L 104.25 225.547778 
L 106.5225 225.547778 
L 108.795 225.547778 
L 111.0675 228.791212 
L 113.34 232.788555 
L 115.6125 232.988544 
L 117.885 238.202014 
L 120.1575 190.97917 
L 122.43 220.497119 
L 124.7025 231.601232 
L 126.975 213.404356 
L 129.2475 182.708165 
L 131.52 206.131296 
L 133.7925 168.342342 
L 136.065 191.765473 
L 138.3375 161.15943 
L 140.61 193.482532 
L 142.8825 157.567975 
L 145.155 161.15943 
L 147.4275 153.976519 
L 149.7 150.385063 
L 151.9725 160.547836 
L 154.245 151.496264 
L 156.5175 160.547836 
L 158.79 157.687293 
L 161.0625 156.335582 
L 163.335 156.335582 
L 165.6075 156.335582 
L 167.88 156.962098 
L 170.1525 156.962098 
L 172.425 153.718664 
L 174.6975 153.718664 
L 176.97 143.321471 
L 179.2425 131.81619 
L 181.515 128.955648 
L 183.7875 128.955648 
L 186.06 128.955648 
L 188.3325 128.955648 
L 190.605 128.955648 
L 192.8775 128.955648 
L 195.15 128.955648 
L 197.4225 119.01724 
L 199.695 119.01724 
L 201.9675 119.01724 
L 204.24 119.01724 
L 206.5125 119.01724 
L 208.785 110.879051 
L 211.0575 110.879051 
L 213.33 110.879051 
L 215.6025 108.398795 
L 217.875 108.398795 
L 220.1475 92.921772 
L 222.42 96.513228 
L 224.6925 96.513228 
L 226.965 96.513228 
L 229.2375 96.513228 
L 231.51 96.513228 
L 233.7825 94.032972 
L 236.055 94.032972 
L 238.3275 94.032972 
L 240.6 94.032972 
L 242.8725 94.032972 
L 245.145 94.032972 
L 247.4175 94.032972 
L 249.69 89.330316 
L 251.9625 89.330316 
L 254.235 89.330316 
L 256.5075 89.330316 
L 258.78 89.330316 
L 261.0525 90.285595 
L 263.325 90.285595 
L 265.5975 90.285595 
L 267.87 90.285595 
L 270.1425 90.285595 
L 272.415 90.285595 
L 274.6875 90.285595 
L 276.96 90.285595 
L 279.2325 90.285595 
L 281.505 90.285595 
L 283.7775 88.718722 
L 286.05 88.718722 
L 288.3225 88.718722 
L 290.595 88.718722 
L 292.8675 88.718722 
L 295.14 88.718722 
L 297.4125 88.718722 
L 299.685 88.718722 
L 301.9575 88.718722 
L 304.23 88.718722 
L 306.5025 88.718722 
L 308.775 88.718722 
L 311.0475 88.718722 
L 313.32 88.718722 
L 315.5925 88.718722 
L 317.865 88.718722 
L 320.1375 88.718722 
L 322.41 88.718722 
L 324.6825 88.718722 
L 326.955 88.718722 
L 329.2275 88.718722 
L 331.5 88.718722 
L 333.7725 88.718722 
L 336.045 88.718722 
L 338.3175 88.718722 
L 340.59 88.718722 
L 342.8625 88.718722 
L 345.135 88.718722 
L 347.4075 88.718722 
L 349.68 85.738861 
L 351.9525 85.738861 
L 354.225 85.738861 
L 356.4975 85.738861 
L 358.77 85.738861 
L 361.0425 85.738861 
L 363.315 85.738861 
L 365.5875 85.738861 
L 367.86 85.738861 
L 370.1325 85.738861 
L 372.405 85.738861 
L 374.6775 85.738861 
L 376.95 85.738861 
L 379.2225 85.738861 
L 381.495 85.738861 
L 383.7675 85.738861 
L 386.04 85.738861 
L 388.3125 85.738861 
L 390.585 85.738861 
L 392.8575 85.738861 
L 395.13 85.738861 
L 397.4025 74.964494 
L 399.675 74.964494 
L 401.9475 74.964494 
L 404.22 74.964494 
L 406.4925 74.964494 
L 408.765 74.964494 
L 411.0375 74.964494 
L 413.31 74.964494 
L 415.5825 74.964494 
L 417.855 74.964494 
L 420.1275 74.964494 
L 422.4 74.964494 
L 424.6725 74.964494 
L 426.945 74.964494 
L 429.2175 74.964494 
L 431.49 74.964494 
L 433.7625 74.964494 
L 436.035 74.964494 
L 438.3075 74.964494 
L 440.58 74.964494 
L 442.8525 74.964494 
L 445.125 74.964494 
L 447.3975 74.964494 
L 449.67 74.964494 
L 451.9425 74.964494 
L 454.215 74.964494 
L 456.4875 74.964494 
L 458.76 74.964494 
L 461.0325 74.964494 
L 463.305 74.964494 
L 465.5775 74.964494 
L 467.85 74.964494 
L 470.1225 74.964494 
L 472.395 74.964494 
L 474.6675 74.964494 
L 476.94 74.964494 
L 479.2125 74.964494 
L 481.485 74.964494 
L 483.7575 74.964494 
L 486.03 74.964494 
L 488.3025 74.964494 
L 490.575 74.964494 
L 492.8475 74.964494 
L 495.12 74.964494 
L 497.3925 74.964494 
L 499.665 74.964494 
L 501.9375 74.964494 
L 504.21 74.964494 
L 506.4825 74.964494 
L 508.755 74.964494 
L 511.0275 74.964494 
L 513.3 74.964494 
L 515.5725 74.964494 
L 517.845 74.964494 
L 520.1175 74.964494 
L 522.39 74.964494 
L 524.6625 74.964494 
L 526.935 74.964494 
L 529.2075 74.964494 
L 531.48 74.964494 
L 533.7525 74.964494 
L 536.025 74.964494 
L 538.2975 74.964494 
L 540.57 74.964494 
L 542.8425 74.964494 
L 545.115 74.964494 
L 547.3875 74.964494 
L 549.66 74.964494 
L 551.9325 74.964494 
L 554.205 74.964494 
L 556.4775 74.964494 
L 558.75 74.964494 
L 561.0225 74.964494 
L 563.295 74.964494 
L 565.5675 74.964494 
L 567.84 74.964494 
L 570.1125 74.964494 
L 572.385 74.964494 
L 574.6575 74.964494 
L 576.93 74.964494 
L 579.2025 74.964494 
L 581.475 74.964494 
L 583.7475 74.964494 
L 586.02 74.964494 
L 588.2925 74.964494 
L 590.565 74.964494 
L 592.8375 74.964494 
L 595.11 74.964494 
L 597.3825 74.964494 
L 599.655 74.964494 
L 601.9275 74.964494 
L 604.2 74.964494 
L 606.4725 74.964494 
L 608.745 74.964494 
L 611.0175 74.964494 
L 613.29 74.964494 
L 615.5625 74.964494 
L 617.835 74.964494 
L 620.1075 74.964494 
L 622.38 74.964494 
L 624.6525 74.964494 
L 626.925 74.964494 
L 629.1975 74.964494 
L 631.47 74.964494 
L 633.7425 74.964494 
L 636.015 74.964494 
L 638.2875 74.964494 
L 640.56 74.964494 
L 642.8325 74.964494 
L 645.105 74.964494 
L 647.3775 74.964494 
L 649.65 74.964494 
L 651.9225 74.964494 
L 654.195 74.964494 
L 656.4675 74.964494 
L 658.74 74.964494 
L 661.0125 74.964494 
L 663.285 74.964494 
L 665.5575 74.964494 
L 667.83 74.964494 
L 670.1025 74.964494 
L 672.375 74.964494 
L 674.6475 74.964494 
L 676.92 74.964494 
L 679.1925 74.964494 
L 681.465 74.964494 
L 683.7375 74.964494 
L 686.01 74.964494 
L 688.2825 74.964494 
L 690.555 74.964494 
L 692.8275 74.964494 
L 695.1 74.964494 
L 697.3725 74.964494 
L 699.645 74.964494 
L 701.9175 74.964494 
L 704.19 74.964494 
L 706.4625 74.964494 
L 708.735 74.964494 
L 711.0075 74.964494 
L 713.28 74.964494 
L 715.5525 74.964494 
L 717.825 74.964494 
L 720.0975 74.964494 
L 722.37 74.964494 
L 724.6425 74.964494 
L 726.915 74.964494 
L 729.1875 74.964494 
L 731.46 74.964494 
L 733.7325 74.964494 
L 736.005 74.964494 
L 738.2775 74.964494 
L 740.55 74.964494 
L 742.8225 74.964494 
L 745.095 74.964494 
L 747.3675 74.964494 
L 749.64 74.964494 
L 751.9125 74.964494 
L 754.185 74.964494 
L 756.4575 74.964494 
L 758.73 74.964494 
L 761.0025 74.964494 
L 763.275 74.964494 
L 765.5475 74.964494 
L 767.82 74.964494 
L 770.0925 74.964494 
L 772.365 74.964494 
L 774.6375 74.964494 
L 776.91 74.964494 
L 779.1825 74.964494 
L 781.455 74.964494 
L 783.7275 74.964494 
L 786 74.964494 
L 788.2725 74.964494 
L 790.545 74.964494 
L 792.8175 74.964494 
L 795.09 74.964494 
L 795.09 60.598671 
L 795.09 60.598671 
L 792.8175 60.598671 
L 790.545 60.598671 
L 788.2725 60.598671 
L 786 60.598671 
L 783.7275 60.598671 
L 781.455 60.598671 
L 779.1825 60.598671 
L 776.91 60.598671 
L 774.6375 60.598671 
L 772.365 60.598671 
L 770.0925 60.598671 
L 767.82 60.598671 
L 765.5475 60.598671 
L 763.275 60.598671 
L 761.0025 60.598671 
L 758.73 60.598671 
L 756.4575 60.598671 
L 754.185 60.598671 
L 751.9125 60.598671 
L 749.64 60.598671 
L 747.3675 60.598671 
L 745.095 60.598671 
L 742.8225 60.598671 
L 740.55 60.598671 
L 738.2775 60.598671 
L 736.005 60.598671 
L 733.7325 60.598671 
L 731.46 60.598671 
L 729.1875 60.598671 
L 726.915 60.598671 
L 724.6425 60.598671 
L 722.37 60.598671 
L 720.0975 60.598671 
L 717.825 60.598671 
L 715.5525 60.598671 
L 713.28 60.598671 
L 711.0075 60.598671 
L 708.735 60.598671 
L 706.4625 60.598671 
L 704.19 60.598671 
L 701.9175 60.598671 
L 699.645 60.598671 
L 697.3725 60.598671 
L 695.1 60.598671 
L 692.8275 60.598671 
L 690.555 60.598671 
L 688.2825 60.598671 
L 686.01 60.598671 
L 683.7375 60.598671 
L 681.465 60.598671 
L 679.1925 60.598671 
L 676.92 60.598671 
L 674.6475 60.598671 
L 672.375 60.598671 
L 670.1025 60.598671 
L 667.83 60.598671 
L 665.5575 60.598671 
L 663.285 60.598671 
L 661.0125 60.598671 
L 658.74 60.598671 
L 656.4675 60.598671 
L 654.195 60.598671 
L 651.9225 60.598671 
L 649.65 60.598671 
L 647.3775 60.598671 
L 645.105 60.598671 
L 642.8325 60.598671 
L 640.56 60.598671 
L 638.2875 60.598671 
L 636.015 60.598671 
L 633.7425 60.598671 
L 631.47 60.598671 
L 629.1975 60.598671 
L 626.925 60.598671 
L 624.6525 60.598671 
L 622.38 60.598671 
L 620.1075 60.598671 
L 617.835 60.598671 
L 615.5625 60.598671 
L 613.29 60.598671 
L 611.0175 60.598671 
L 608.745 60.598671 
L 606.4725 60.598671 
L 604.2 60.598671 
L 601.9275 60.598671 
L 599.655 60.598671 
L 597.3825 60.598671 
L 595.11 60.598671 
L 592.8375 60.598671 
L 590.565 60.598671 
L 588.2925 60.598671 
L 586.02 60.598671 
L 583.7475 60.598671 
L 581.475 60.598671 
L 579.2025 60.598671 
L 576.93 60.598671 
L 574.6575 60.598671 
L 572.385 60.598671 
L 570.1125 60.598671 
L 567.84 60.598671 
L 565.5675 60.598671 
L 563.295 60.598671 
L 561.0225 60.598671 
L 558.75 60.598671 
L 556.4775 60.598671 
L 554.205 60.598671 
L 551.9325 60.598671 
L 549.66 60.598671 
L 547.3875 60.598671 
L 545.115 60.598671 
L 542.8425 60.598671 
L 540.57 60.598671 
L 538.2975 60.598671 
L 536.025 60.598671 
L 533.7525 60.598671 
L 531.48 60.598671 
L 529.2075 60.598671 
L 526.935 60.598671 
L 524.6625 60.598671 
L 522.39 60.598671 
L 520.1175 60.598671 
L 517.845 60.598671 
L 515.5725 60.598671 
L 513.3 60.598671 
L 511.0275 60.598671 
L 508.755 60.598671 
L 506.4825 60.598671 
L 504.21 60.598671 
L 501.9375 60.598671 
L 499.665 60.598671 
L 497.3925 60.598671 
L 495.12 60.598671 
L 492.8475 60.598671 
L 490.575 60.598671 
L 488.3025 60.598671 
L 486.03 60.598671 
L 483.7575 60.598671 
L 481.485 60.598671 
L 479.2125 60.598671 
L 476.94 60.598671 
L 474.6675 60.598671 
L 472.395 60.598671 
L 470.1225 60.598671 
L 467.85 60.598671 
L 465.5775 60.598671 
L 463.305 60.598671 
L 461.0325 60.598671 
L 458.76 60.598671 
L 456.4875 60.598671 
L 454.215 60.598671 
L 451.9425 60.598671 
L 449.67 60.598671 
L 447.3975 60.598671 
L 445.125 60.598671 
L 442.8525 60.598671 
L 440.58 60.598671 
L 438.3075 60.598671 
L 436.035 60.598671 
L 433.7625 60.598671 
L 431.49 60.598671 
L 429.2175 60.598671 
L 426.945 60.598671 
L 424.6725 60.598671 
L 422.4 60.598671 
L 420.1275 60.598671 
L 417.855 60.598671 
L 415.5825 60.598671 
L 413.31 60.598671 
L 411.0375 60.598671 
L 408.765 60.598671 
L 406.4925 60.598671 
L 404.22 60.598671 
L 401.9475 60.598671 
L 399.675 60.598671 
L 397.4025 60.598671 
L 395.13 57.007215 
L 392.8575 57.007215 
L 390.585 57.007215 
L 388.3125 57.007215 
L 386.04 57.007215 
L 383.7675 57.007215 
L 381.495 57.007215 
L 379.2225 57.007215 
L 376.95 57.007215 
L 374.6775 57.007215 
L 372.405 57.007215 
L 370.1325 57.007215 
L 367.86 57.007215 
L 365.5875 57.007215 
L 363.315 57.007215 
L 361.0425 57.007215 
L 358.77 57.007215 
L 356.4975 57.007215 
L 354.225 57.007215 
L 351.9525 57.007215 
L 349.68 57.007215 
L 347.4075 61.210266 
L 345.135 61.210266 
L 342.8625 61.210266 
L 340.59 61.210266 
L 338.3175 61.210266 
L 336.045 61.210266 
L 333.7725 61.210266 
L 331.5 61.210266 
L 329.2275 61.210266 
L 326.955 61.210266 
L 324.6825 61.210266 
L 322.41 61.210266 
L 320.1375 61.210266 
L 317.865 61.210266 
L 315.5925 61.210266 
L 313.32 61.210266 
L 311.0475 61.210266 
L 308.775 61.210266 
L 306.5025 61.210266 
L 304.23 61.210266 
L 301.9575 61.210266 
L 299.685 61.210266 
L 297.4125 61.210266 
L 295.14 61.210266 
L 292.8675 61.210266 
L 290.595 61.210266 
L 288.3225 61.210266 
L 286.05 61.210266 
L 283.7775 61.210266 
L 281.505 66.826304 
L 279.2325 66.826304 
L 276.96 66.826304 
L 274.6875 66.826304 
L 272.415 66.826304 
L 270.1425 66.826304 
L 267.87 66.826304 
L 265.5975 66.826304 
L 263.325 66.826304 
L 261.0525 66.826304 
L 258.78 74.964494 
L 256.5075 74.964494 
L 254.235 74.964494 
L 251.9625 74.964494 
L 249.69 74.964494 
L 247.4175 77.444749 
L 245.145 77.444749 
L 242.8725 77.444749 
L 240.6 77.444749 
L 238.3275 77.444749 
L 236.055 77.444749 
L 233.7825 77.444749 
L 231.51 82.147405 
L 229.2375 82.147405 
L 226.965 82.147405 
L 224.6925 82.147405 
L 222.42 82.147405 
L 220.1475 92.921772 
L 217.875 91.810572 
L 215.6025 91.810572 
L 213.33 96.513228 
L 211.0575 96.513228 
L 208.785 96.513228 
L 206.5125 95.55795 
L 204.24 95.55795 
L 201.9675 95.55795 
L 199.695 95.55795 
L 197.4225 95.55795 
L 195.15 92.802453 
L 192.8775 92.802453 
L 190.605 92.802453 
L 188.3325 92.802453 
L 186.06 92.802453 
L 183.7875 92.802453 
L 181.515 92.802453 
L 179.2425 104.307734 
L 176.97 107.168276 
L 174.6975 103.953994 
L 172.425 103.953994 
L 170.1525 107.893472 
L 167.88 107.893472 
L 165.6075 115.702899 
L 163.335 115.702899 
L 161.0625 115.702899 
L 158.79 121.534099 
L 156.5175 133.039379 
L 154.245 134.90804 
L 151.9725 133.039379 
L 149.7 150.385063 
L 147.4275 139.610696 
L 145.155 146.793608 
L 142.8825 128.836329 
L 140.61 136.019241 
L 138.3375 146.793608 
L 136.065 123.370476 
L 133.7925 153.976519 
L 131.52 137.736299 
L 129.2475 139.610696 
L 126.975 130.463239 
L 124.7025 133.815097 
L 122.43 152.102122 
L 120.1575 138.522602 
L 117.885 170.311784 
L 115.6125 161.15943 
L 113.34 146.993597 
L 111.0675 179.722586 
L 108.795 175.783108 
L 106.5225 175.783108 
L 104.25 175.783108 
L 101.9775 186.180301 
L 99.705 186.180301 
L 97.4325 186.29962 
L 95.16 197.073987 
L 92.8875 197.073987 
L 90.615 197.073987 
L 88.3425 197.073987 
L 86.07 197.073987 
L 83.7975 207.848354 
L 81.525 207.848354 
L 79.2525 207.848354 
L 76.98 207.848354 
L 74.7075 207.848354 
L 72.435 207.848354 
L 70.1625 207.848354 
L 67.89 207.848354 
L 65.6175 207.848354 
L 63.345 207.848354 
L 61.0725 207.848354 
L 58.8 207.848354 
z
" style="fill:#377eb8;fill-opacity:0.2;stroke:#377eb8;stroke-opacity:0.2;stroke-width:0.8;"/>
   </g>
   <g id="PolyCollection_3">
    <path clip-path="url(#p960e0438bf)" d="M 58.8 207.848354 
L 58.8 207.848354 
L 61.0725 207.848354 
L 63.345 207.848354 
L 65.6175 207.848354 
L 67.89 207.848354 
L 70.1625 207.848354 
L 72.435 207.848354 
L 74.7075 207.848354 
L 76.98 207.848354 
L 79.2525 207.848354 
L 81.525 207.848354 
L 83.7975 207.848354 
L 86.07 208.959555 
L 88.3425 199.442254 
L 90.615 173.844354 
L 92.8875 178.647748 
L 95.16 158.741174 
L 97.4325 164.805265 
L 99.705 139.352841 
L 101.9775 139.610696 
L 104.25 133.016704 
L 106.5225 156.842353 
L 108.795 132.427785 
L 111.0675 157.622353 
L 113.34 157.622353 
L 115.6125 137.641254 
L 117.885 152.141735 
L 120.1575 147.920278 
L 122.43 142.47653 
L 124.7025 147.920278 
L 126.975 142.47653 
L 129.2475 142.47653 
L 131.52 137.641254 
L 133.7925 142.47653 
L 136.065 133.312042 
L 138.3375 133.312042 
L 140.61 125.244873 
L 142.8825 125.244873 
L 145.155 125.244873 
L 147.4275 125.244873 
L 149.7 125.244873 
L 151.9725 125.244873 
L 154.245 125.244873 
L 156.5175 118.650881 
L 158.79 118.650881 
L 161.0625 118.650881 
L 163.335 118.650881 
L 165.6075 118.650881 
L 167.88 118.650881 
L 170.1525 118.650881 
L 172.425 118.650881 
L 174.6975 118.650881 
L 176.97 118.650881 
L 179.2425 118.650881 
L 181.515 118.650881 
L 183.7875 118.650881 
L 186.06 118.650881 
L 188.3325 118.650881 
L 190.605 118.650881 
L 192.8775 118.650881 
L 195.15 118.650881 
L 197.4225 118.650881 
L 199.695 118.650881 
L 201.9675 110.267456 
L 204.24 104.651417 
L 206.5125 103.084545 
L 208.785 103.084545 
L 211.0575 103.084545 
L 213.33 103.084545 
L 215.6025 103.084545 
L 217.875 103.084545 
L 220.1475 103.084545 
L 222.42 103.084545 
L 224.6925 103.084545 
L 226.965 103.084545 
L 229.2375 103.084545 
L 231.51 103.084545 
L 233.7825 103.084545 
L 236.055 103.084545 
L 238.3275 103.084545 
L 240.6 103.084545 
L 242.8725 103.084545 
L 245.145 103.084545 
L 247.4175 103.084545 
L 249.69 100.104684 
L 251.9625 89.330316 
L 254.235 89.330316 
L 256.5075 78.555949 
L 258.78 82.147405 
L 261.0525 82.147405 
L 263.325 82.147405 
L 265.5975 82.147405 
L 267.87 79.66715 
L 270.1425 79.66715 
L 272.415 79.66715 
L 274.6875 79.66715 
L 276.96 79.66715 
L 279.2325 79.66715 
L 281.505 79.66715 
L 283.7775 79.66715 
L 286.05 79.66715 
L 288.3225 79.66715 
L 290.595 79.66715 
L 292.8675 79.66715 
L 295.14 79.66715 
L 297.4125 79.66715 
L 299.685 79.66715 
L 301.9575 79.66715 
L 304.23 79.66715 
L 306.5025 79.66715 
L 308.775 79.66715 
L 311.0475 79.66715 
L 313.32 74.964494 
L 315.5925 74.964494 
L 317.865 74.964494 
L 320.1375 74.964494 
L 322.41 74.964494 
L 324.6825 74.964494 
L 326.955 74.964494 
L 329.2275 74.964494 
L 331.5 74.964494 
L 333.7725 74.964494 
L 336.045 74.964494 
L 338.3175 74.964494 
L 340.59 74.964494 
L 342.8625 74.964494 
L 345.135 74.964494 
L 347.4075 74.964494 
L 349.68 74.964494 
L 351.9525 74.964494 
L 354.225 74.964494 
L 356.4975 74.964494 
L 358.77 74.964494 
L 361.0425 74.964494 
L 363.315 74.964494 
L 365.5875 74.964494 
L 367.86 74.964494 
L 370.1325 74.964494 
L 372.405 74.964494 
L 374.6775 74.964494 
L 376.95 64.190127 
L 379.2225 64.190127 
L 381.495 64.190127 
L 383.7675 64.190127 
L 386.04 64.190127 
L 388.3125 64.190127 
L 390.585 64.190127 
L 392.8575 64.190127 
L 395.13 64.190127 
L 397.4025 64.190127 
L 399.675 64.190127 
L 401.9475 64.190127 
L 404.22 64.190127 
L 406.4925 64.190127 
L 408.765 64.190127 
L 411.0375 64.190127 
L 413.31 64.190127 
L 415.5825 64.190127 
L 417.855 64.190127 
L 420.1275 64.190127 
L 422.4 64.190127 
L 424.6725 64.190127 
L 426.945 64.190127 
L 429.2175 64.190127 
L 431.49 64.190127 
L 433.7625 64.190127 
L 436.035 64.190127 
L 438.3075 64.190127 
L 440.58 64.190127 
L 442.8525 64.190127 
L 445.125 64.190127 
L 447.3975 64.190127 
L 449.67 64.190127 
L 451.9425 64.190127 
L 454.215 64.190127 
L 456.4875 64.190127 
L 458.76 64.190127 
L 461.0325 64.190127 
L 463.305 64.190127 
L 465.5775 64.190127 
L 467.85 64.190127 
L 470.1225 64.190127 
L 472.395 64.190127 
L 474.6675 64.190127 
L 476.94 64.190127 
L 479.2125 64.190127 
L 481.485 64.190127 
L 483.7575 64.190127 
L 486.03 64.190127 
L 488.3025 64.190127 
L 490.575 64.190127 
L 492.8475 64.190127 
L 495.12 64.190127 
L 497.3925 64.190127 
L 499.665 64.190127 
L 501.9375 64.190127 
L 504.21 64.190127 
L 506.4825 64.190127 
L 508.755 64.190127 
L 511.0275 64.190127 
L 513.3 64.190127 
L 515.5725 64.190127 
L 517.845 64.190127 
L 520.1175 64.190127 
L 522.39 64.190127 
L 524.6625 64.190127 
L 526.935 64.190127 
L 529.2075 64.190127 
L 531.48 64.190127 
L 533.7525 64.190127 
L 536.025 64.190127 
L 538.2975 64.190127 
L 540.57 64.190127 
L 542.8425 64.190127 
L 545.115 64.190127 
L 547.3875 64.190127 
L 549.66 64.190127 
L 551.9325 64.190127 
L 554.205 64.190127 
L 556.4775 64.190127 
L 558.75 64.190127 
L 561.0225 64.190127 
L 563.295 64.190127 
L 565.5675 64.190127 
L 567.84 64.190127 
L 570.1125 64.190127 
L 572.385 64.190127 
L 574.6575 64.190127 
L 576.93 64.190127 
L 579.2025 64.190127 
L 581.475 64.190127 
L 583.7475 64.190127 
L 586.02 64.190127 
L 588.2925 64.190127 
L 590.565 64.190127 
L 592.8375 64.190127 
L 595.11 64.190127 
L 597.3825 64.190127 
L 599.655 64.190127 
L 601.9275 64.190127 
L 604.2 64.190127 
L 606.4725 64.190127 
L 608.745 64.190127 
L 611.0175 64.190127 
L 613.29 64.190127 
L 615.5625 64.190127 
L 617.835 64.190127 
L 620.1075 64.190127 
L 622.38 64.190127 
L 624.6525 64.190127 
L 626.925 64.190127 
L 629.1975 64.190127 
L 631.47 64.190127 
L 633.7425 64.190127 
L 636.015 64.190127 
L 638.2875 64.190127 
L 640.56 64.190127 
L 642.8325 64.190127 
L 645.105 64.190127 
L 647.3775 64.190127 
L 649.65 64.190127 
L 651.9225 64.190127 
L 654.195 64.190127 
L 656.4675 64.190127 
L 658.74 64.190127 
L 661.0125 64.190127 
L 663.285 64.190127 
L 665.5575 64.190127 
L 667.83 64.190127 
L 670.1025 64.190127 
L 672.375 64.190127 
L 674.6475 64.190127 
L 676.92 64.190127 
L 679.1925 64.190127 
L 681.465 64.190127 
L 683.7375 64.190127 
L 686.01 64.190127 
L 688.2825 64.190127 
L 690.555 64.190127 
L 692.8275 64.190127 
L 695.1 64.190127 
L 697.3725 64.190127 
L 699.645 64.190127 
L 701.9175 64.190127 
L 704.19 64.190127 
L 706.4625 64.190127 
L 708.735 64.190127 
L 711.0075 64.190127 
L 713.28 64.190127 
L 715.5525 64.190127 
L 717.825 64.190127 
L 720.0975 64.190127 
L 722.37 64.190127 
L 724.6425 64.190127 
L 726.915 64.190127 
L 729.1875 64.190127 
L 731.46 64.190127 
L 733.7325 64.190127 
L 736.005 64.190127 
L 738.2775 64.190127 
L 740.55 64.190127 
L 742.8225 64.190127 
L 745.095 64.190127 
L 747.3675 64.190127 
L 749.64 64.190127 
L 751.9125 64.190127 
L 754.185 64.190127 
L 756.4575 64.190127 
L 758.73 64.190127 
L 761.0025 64.190127 
L 763.275 64.190127 
L 765.5475 64.190127 
L 767.82 64.190127 
L 770.0925 64.190127 
L 772.365 64.190127 
L 774.6375 64.190127 
L 776.91 64.190127 
L 779.1825 64.190127 
L 781.455 64.190127 
L 783.7275 64.190127 
L 786 64.190127 
L 788.2725 64.190127 
L 790.545 64.190127 
L 792.8175 64.190127 
L 795.09 64.190127 
L 795.09 64.190127 
L 795.09 64.190127 
L 792.8175 64.190127 
L 790.545 64.190127 
L 788.2725 64.190127 
L 786 64.190127 
L 783.7275 64.190127 
L 781.455 64.190127 
L 779.1825 64.190127 
L 776.91 64.190127 
L 774.6375 64.190127 
L 772.365 64.190127 
L 770.0925 64.190127 
L 767.82 64.190127 
L 765.5475 64.190127 
L 763.275 64.190127 
L 761.0025 64.190127 
L 758.73 64.190127 
L 756.4575 64.190127 
L 754.185 64.190127 
L 751.9125 64.190127 
L 749.64 64.190127 
L 747.3675 64.190127 
L 745.095 64.190127 
L 742.8225 64.190127 
L 740.55 64.190127 
L 738.2775 64.190127 
L 736.005 64.190127 
L 733.7325 64.190127 
L 731.46 64.190127 
L 729.1875 64.190127 
L 726.915 64.190127 
L 724.6425 64.190127 
L 722.37 64.190127 
L 720.0975 64.190127 
L 717.825 64.190127 
L 715.5525 64.190127 
L 713.28 64.190127 
L 711.0075 64.190127 
L 708.735 64.190127 
L 706.4625 64.190127 
L 704.19 64.190127 
L 701.9175 64.190127 
L 699.645 64.190127 
L 697.3725 64.190127 
L 695.1 64.190127 
L 692.8275 64.190127 
L 690.555 64.190127 
L 688.2825 64.190127 
L 686.01 64.190127 
L 683.7375 64.190127 
L 681.465 64.190127 
L 679.1925 64.190127 
L 676.92 64.190127 
L 674.6475 64.190127 
L 672.375 64.190127 
L 670.1025 64.190127 
L 667.83 64.190127 
L 665.5575 64.190127 
L 663.285 64.190127 
L 661.0125 64.190127 
L 658.74 64.190127 
L 656.4675 64.190127 
L 654.195 64.190127 
L 651.9225 64.190127 
L 649.65 64.190127 
L 647.3775 64.190127 
L 645.105 64.190127 
L 642.8325 64.190127 
L 640.56 64.190127 
L 638.2875 64.190127 
L 636.015 64.190127 
L 633.7425 64.190127 
L 631.47 64.190127 
L 629.1975 64.190127 
L 626.925 64.190127 
L 624.6525 64.190127 
L 622.38 64.190127 
L 620.1075 64.190127 
L 617.835 64.190127 
L 615.5625 64.190127 
L 613.29 64.190127 
L 611.0175 64.190127 
L 608.745 64.190127 
L 606.4725 64.190127 
L 604.2 64.190127 
L 601.9275 64.190127 
L 599.655 64.190127 
L 597.3825 64.190127 
L 595.11 64.190127 
L 592.8375 64.190127 
L 590.565 64.190127 
L 588.2925 64.190127 
L 586.02 64.190127 
L 583.7475 64.190127 
L 581.475 64.190127 
L 579.2025 64.190127 
L 576.93 64.190127 
L 574.6575 64.190127 
L 572.385 64.190127 
L 570.1125 64.190127 
L 567.84 64.190127 
L 565.5675 64.190127 
L 563.295 64.190127 
L 561.0225 64.190127 
L 558.75 64.190127 
L 556.4775 64.190127 
L 554.205 64.190127 
L 551.9325 64.190127 
L 549.66 64.190127 
L 547.3875 64.190127 
L 545.115 64.190127 
L 542.8425 64.190127 
L 540.57 64.190127 
L 538.2975 64.190127 
L 536.025 64.190127 
L 533.7525 64.190127 
L 531.48 64.190127 
L 529.2075 64.190127 
L 526.935 64.190127 
L 524.6625 64.190127 
L 522.39 64.190127 
L 520.1175 64.190127 
L 517.845 64.190127 
L 515.5725 64.190127 
L 513.3 64.190127 
L 511.0275 64.190127 
L 508.755 64.190127 
L 506.4825 64.190127 
L 504.21 64.190127 
L 501.9375 64.190127 
L 499.665 64.190127 
L 497.3925 64.190127 
L 495.12 64.190127 
L 492.8475 64.190127 
L 490.575 64.190127 
L 488.3025 64.190127 
L 486.03 64.190127 
L 483.7575 64.190127 
L 481.485 64.190127 
L 479.2125 64.190127 
L 476.94 64.190127 
L 474.6675 64.190127 
L 472.395 64.190127 
L 470.1225 64.190127 
L 467.85 64.190127 
L 465.5775 64.190127 
L 463.305 64.190127 
L 461.0325 64.190127 
L 458.76 64.190127 
L 456.4875 64.190127 
L 454.215 64.190127 
L 451.9425 64.190127 
L 449.67 64.190127 
L 447.3975 64.190127 
L 445.125 64.190127 
L 442.8525 64.190127 
L 440.58 64.190127 
L 438.3075 64.190127 
L 436.035 64.190127 
L 433.7625 64.190127 
L 431.49 64.190127 
L 429.2175 64.190127 
L 426.945 64.190127 
L 424.6725 64.190127 
L 422.4 64.190127 
L 420.1275 64.190127 
L 417.855 64.190127 
L 415.5825 64.190127 
L 413.31 64.190127 
L 411.0375 64.190127 
L 408.765 64.190127 
L 406.4925 64.190127 
L 404.22 64.190127 
L 401.9475 64.190127 
L 399.675 64.190127 
L 397.4025 64.190127 
L 395.13 64.190127 
L 392.8575 64.190127 
L 390.585 64.190127 
L 388.3125 64.190127 
L 386.04 64.190127 
L 383.7675 64.190127 
L 381.495 64.190127 
L 379.2225 64.190127 
L 376.95 64.190127 
L 374.6775 60.598671 
L 372.405 60.598671 
L 370.1325 60.598671 
L 367.86 60.598671 
L 365.5875 60.598671 
L 363.315 60.598671 
L 361.0425 60.598671 
L 358.77 60.598671 
L 356.4975 60.598671 
L 354.225 60.598671 
L 351.9525 60.598671 
L 349.68 60.598671 
L 347.4075 60.598671 
L 345.135 60.598671 
L 342.8625 60.598671 
L 340.59 60.598671 
L 338.3175 60.598671 
L 336.045 60.598671 
L 333.7725 60.598671 
L 331.5 60.598671 
L 329.2275 60.598671 
L 326.955 60.598671 
L 324.6825 60.598671 
L 322.41 60.598671 
L 320.1375 60.598671 
L 317.865 60.598671 
L 315.5925 60.598671 
L 313.32 60.598671 
L 311.0475 63.078926 
L 308.775 63.078926 
L 306.5025 63.078926 
L 304.23 63.078926 
L 301.9575 63.078926 
L 299.685 63.078926 
L 297.4125 63.078926 
L 295.14 63.078926 
L 292.8675 63.078926 
L 290.595 63.078926 
L 288.3225 63.078926 
L 286.05 63.078926 
L 283.7775 63.078926 
L 281.505 63.078926 
L 279.2325 63.078926 
L 276.96 63.078926 
L 274.6875 63.078926 
L 272.415 63.078926 
L 270.1425 63.078926 
L 267.87 63.078926 
L 265.5975 67.781582 
L 263.325 67.781582 
L 261.0525 67.781582 
L 258.78 67.781582 
L 256.5075 78.555949 
L 254.235 74.964494 
L 251.9625 74.964494 
L 249.69 71.373038 
L 247.4175 75.576088 
L 245.145 75.576088 
L 242.8725 75.576088 
L 240.6 75.576088 
L 238.3275 75.576088 
L 236.055 75.576088 
L 233.7825 75.576088 
L 231.51 75.576088 
L 229.2375 75.576088 
L 226.965 75.576088 
L 224.6925 75.576088 
L 222.42 75.576088 
L 220.1475 75.576088 
L 217.875 75.576088 
L 215.6025 75.576088 
L 213.33 75.576088 
L 211.0575 75.576088 
L 208.785 75.576088 
L 206.5125 75.576088 
L 204.24 81.192127 
L 201.9675 82.759 
L 199.695 81.558486 
L 197.4225 81.558486 
L 195.15 81.558486 
L 192.8775 81.558486 
L 190.605 81.558486 
L 188.3325 81.558486 
L 186.06 81.558486 
L 183.7875 81.558486 
L 181.515 81.558486 
L 179.2425 81.558486 
L 176.97 81.558486 
L 174.6975 81.558486 
L 172.425 81.558486 
L 170.1525 81.558486 
L 167.88 81.558486 
L 165.6075 81.558486 
L 163.335 81.558486 
L 161.0625 81.558486 
L 158.79 81.558486 
L 156.5175 81.558486 
L 154.245 82.147405 
L 151.9725 82.147405 
L 149.7 82.147405 
L 147.4275 82.147405 
L 145.155 82.147405 
L 142.8825 82.147405 
L 140.61 82.147405 
L 138.3375 74.080237 
L 136.065 74.080237 
L 133.7925 72.098659 
L 131.52 69.751024 
L 129.2475 72.098659 
L 126.975 72.098659 
L 124.7025 66.654912 
L 122.43 72.098659 
L 120.1575 66.654912 
L 117.885 69.616366 
L 115.6125 69.751024 
L 113.34 78.501571 
L 111.0675 78.501571 
L 108.795 89.330316 
L 106.5225 86.464482 
L 104.25 95.924309 
L 101.9775 96.513228 
L 99.705 89.588171 
L 97.4325 85.684482 
L 95.16 98.931484 
L 92.8875 114.939467 
L 90.615 126.925773 
L 88.3425 144.425341 
L 86.07 192.371331 
L 83.7975 207.848354 
L 81.525 207.848354 
L 79.2525 207.848354 
L 76.98 207.848354 
L 74.7075 207.848354 
L 72.435 207.848354 
L 70.1625 207.848354 
L 67.89 207.848354 
L 65.6175 207.848354 
L 63.345 207.848354 
L 61.0725 207.848354 
L 58.8 207.848354 
z
" style="fill:#4daf4a;fill-opacity:0.2;stroke:#4daf4a;stroke-opacity:0.2;stroke-width:0.8;"/>
   </g>
   <g id="line2d_30">
    <path clip-path="url(#p960e0438bf)" d="M 58.8 207.848354 
L 86.07 207.848354 
L 88.3425 197.073987 
L 92.8875 139.610696 
L 95.16 136.019241 
L 97.4325 136.019241 
L 99.705 121.653418 
L 101.9775 125.244873 
L 104.25 110.879051 
L 106.5225 114.470506 
L 113.34 114.470506 
L 115.6125 110.879051 
L 117.885 110.879051 
L 120.1575 107.287595 
L 167.88 107.287595 
L 170.1525 103.696139 
L 213.33 103.696139 
L 215.6025 100.104684 
L 217.875 100.104684 
L 220.1475 103.696139 
L 233.7825 103.696139 
L 236.055 100.104684 
L 245.145 100.104684 
L 247.4175 96.513228 
L 292.8675 96.513228 
L 295.14 92.921772 
L 347.4075 92.921772 
L 349.68 96.513228 
L 433 96.513228 
L 433 96.513228 
" style="fill:none;stroke:#e41a1c;stroke-linecap:round;stroke-width:2;"/>
   </g>
   <g id="line2d_31">
    <path clip-path="url(#p960e0438bf)" d="M 58.8 207.848354 
L 83.7975 207.848354 
L 86.07 204.256899 
L 95.16 204.256899 
L 97.4325 200.665443 
L 99.705 204.256899 
L 101.9775 204.256899 
L 104.25 200.665443 
L 108.795 200.665443 
L 111.0675 204.256899 
L 113.34 189.891076 
L 117.885 204.256899 
L 120.1575 164.750886 
L 122.43 186.29962 
L 124.7025 182.708165 
L 129.2475 161.15943 
L 131.52 171.933797 
L 133.7925 161.15943 
L 138.3375 153.976519 
L 140.61 164.750886 
L 142.8825 143.202152 
L 145.155 153.976519 
L 147.4275 146.793608 
L 149.7 150.385063 
L 154.245 143.202152 
L 156.5175 146.793608 
L 158.79 139.610696 
L 161.0625 136.019241 
L 165.6075 136.019241 
L 167.88 132.427785 
L 170.1525 132.427785 
L 172.425 128.836329 
L 174.6975 128.836329 
L 176.97 125.244873 
L 181.515 110.879051 
L 195.15 110.879051 
L 197.4225 107.287595 
L 206.5125 107.287595 
L 208.785 103.696139 
L 213.33 103.696139 
L 215.6025 100.104684 
L 217.875 100.104684 
L 220.1475 92.921772 
L 222.42 89.330316 
L 231.51 89.330316 
L 233.7825 85.738861 
L 247.4175 85.738861 
L 249.69 82.147405 
L 258.78 82.147405 
L 261.0525 78.555949 
L 281.505 78.555949 
L 283.7775 74.964494 
L 347.4075 74.964494 
L 349.68 71.373038 
L 395.13 71.373038 
L 397.4025 67.781582 
L 433 67.781582 
L 433 67.781582 
" style="fill:none;stroke:#377eb8;stroke-linecap:round;stroke-width:2;"/>
   </g>
   <g id="line2d_32">
    <path clip-path="url(#p960e0438bf)" d="M 58.8 207.848354 
L 83.7975 207.848354 
L 86.07 200.665443 
L 88.3425 171.933797 
L 90.615 150.385063 
L 92.8875 146.793608 
L 95.16 128.836329 
L 97.4325 125.244873 
L 99.705 114.470506 
L 101.9775 118.061962 
L 104.25 114.470506 
L 106.5225 121.653418 
L 108.795 110.879051 
L 111.0675 118.061962 
L 113.34 118.061962 
L 115.6125 103.696139 
L 117.885 110.879051 
L 120.1575 107.287595 
L 129.2475 107.287595 
L 131.52 103.696139 
L 133.7925 107.287595 
L 136.065 103.696139 
L 154.245 103.696139 
L 156.5175 100.104684 
L 199.695 100.104684 
L 206.5125 89.330316 
L 247.4175 89.330316 
L 251.9625 82.147405 
L 254.235 82.147405 
L 258.78 74.964494 
L 265.5975 74.964494 
L 267.87 71.373038 
L 311.0475 71.373038 
L 313.32 67.781582 
L 374.6775 67.781582 
L 376.95 64.190127 
L 433 64.190127 
L 433 64.190127 
" style="fill:none;stroke:#4daf4a;stroke-linecap:round;stroke-width:2;"/>
   </g>
   <g id="line2d_33"/>
   <g id="line2d_34"/>
   <g id="line2d_35"/>
   <g id="line2d_36"/>
   <g id="patch_3">
    <path d="M 58.8 236.58 
L 58.8 9.6 
" style="fill:none;stroke:#cccccc;stroke-linecap:square;stroke-linejoin:miter;"/>
   </g>
   <g id="patch_4">
    <path d="M 422.4 236.58 
L 422.4 9.6 
" style="fill:none;stroke:#cccccc;stroke-linecap:square;stroke-linejoin:miter;"/>
   </g>
   <g id="patch_5">
    <path d="M 58.8 236.58 
L 422.4 236.58 
" style="fill:none;stroke:#cccccc;stroke-linecap:square;stroke-linejoin:miter;"/>
   </g>
   <g id="patch_6">
    <path d="M 58.8 9.6 
L 422.4 9.6 
" style="fill:none;stroke:#cccccc;stroke-linecap:square;stroke-linejoin:miter;"/>
   </g>
   <g id="legend_1">
    <g id="patch_7">
     <path d="M 68.6 80.951875 
L 177.209375 80.951875 
Q 180.009375 80.951875 180.009375 78.151875 
L 180.009375 19.4 
Q 180.009375 16.6 177.209375 16.6 
L 68.6 16.6 
Q 65.8 16.6 65.8 19.4 
L 65.8 78.151875 
Q 65.8 80.951875 68.6 80.951875 
z
" style="fill:#ffffff;opacity:0.8;stroke:#cccccc;stroke-linejoin:miter;stroke-width:0.8;"/>
    </g>
    <g id="line2d_37">
     <path d="M 71.4 27.445625 
L 99.4 27.445625 
" style="fill:none;stroke:#e41a1c;stroke-linecap:round;stroke-width:1.2;"/>
    </g>
    <g id="line2d_38"/>
    <g id="text_15">
     <!-- Tactile -->
     <defs>
      <path d="M 6.734375 0 
L 6.734375 72.46875 
L 15.53125 72.46875 
L 15.53125 0 
z
" id="LiberationSans-108"/>
     </defs>
     <g style="fill:#262626;" transform="translate(110.6 32.345625)scale(0.14 -0.14)">
      <use xlink:href="#LiberationSans-84"/>
      <use x="60.912109" xlink:href="#LiberationSans-97"/>
      <use x="116.527344" xlink:href="#LiberationSans-99"/>
      <use x="166.527344" xlink:href="#LiberationSans-116"/>
      <use x="194.310547" xlink:href="#LiberationSans-105"/>
      <use x="216.527344" xlink:href="#LiberationSans-108"/>
      <use x="238.744141" xlink:href="#LiberationSans-101"/>
     </g>
    </g>
    <g id="line2d_39">
     <path d="M 71.4 47.49625 
L 99.4 47.49625 
" style="fill:none;stroke:#377eb8;stroke-linecap:round;stroke-width:1.2;"/>
    </g>
    <g id="line2d_40"/>
    <g id="text_16">
     <!-- Vision -->
     <defs>
      <path d="M 38.1875 0 
L 28.515625 0 
L 0.4375 68.796875 
L 10.25 68.796875 
L 29.296875 20.359375 
Q 30.03125 18.171875 30.765625 15.984375 
Q 31.5 13.8125 32.078125 12.109375 
Q 32.765625 10.109375 33.40625 8.203125 
Q 33.984375 10.015625 34.671875 12.015625 
Q 35.25 13.71875 35.953125 15.859375 
Q 36.671875 18.015625 37.5 20.359375 
L 56.453125 68.796875 
L 66.265625 68.796875 
z
" id="LiberationSans-86"/>
      <path d="M 51.421875 26.46875 
Q 51.421875 12.59375 45.3125 5.796875 
Q 39.203125 -0.984375 27.59375 -0.984375 
Q 22.078125 -0.984375 17.71875 0.671875 
Q 13.375 2.34375 10.375 5.765625 
Q 7.375 9.1875 5.78125 14.328125 
Q 4.203125 19.484375 4.203125 26.46875 
Q 4.203125 53.8125 27.875 53.8125 
Q 34.03125 53.8125 38.5 52.09375 
Q 42.96875 50.390625 45.828125 46.96875 
Q 48.6875 43.5625 50.046875 38.421875 
Q 51.421875 33.296875 51.421875 26.46875 
z
M 42.1875 26.46875 
Q 42.1875 32.625 41.234375 36.625 
Q 40.28125 40.625 38.453125 43.015625 
Q 36.625 45.40625 33.984375 46.359375 
Q 31.34375 47.3125 28.03125 47.3125 
Q 24.65625 47.3125 21.9375 46.3125 
Q 19.234375 45.3125 17.328125 42.890625 
Q 15.4375 40.484375 14.421875 36.46875 
Q 13.421875 32.46875 13.421875 26.46875 
Q 13.421875 20.3125 14.5 16.28125 
Q 15.578125 12.25 17.453125 9.859375 
Q 19.34375 7.46875 21.90625 6.484375 
Q 24.46875 5.515625 27.484375 5.515625 
Q 30.859375 5.515625 33.59375 6.46875 
Q 36.328125 7.421875 38.234375 9.8125 
Q 40.140625 12.203125 41.15625 16.25 
Q 42.1875 20.3125 42.1875 26.46875 
z
" id="LiberationSans-111"/>
      <path d="M 40.28125 0 
L 40.28125 33.5 
Q 40.28125 37.359375 39.71875 39.9375 
Q 39.15625 42.53125 37.890625 44.109375 
Q 36.625 45.703125 34.546875 46.359375 
Q 32.46875 47.015625 29.390625 47.015625 
Q 26.265625 47.015625 23.75 45.921875 
Q 21.234375 44.828125 19.453125 42.75 
Q 17.671875 40.671875 16.6875 37.625 
Q 15.71875 34.578125 15.71875 30.609375 
L 15.71875 0 
L 6.9375 0 
L 6.9375 41.546875 
Q 6.9375 43.21875 6.90625 45.046875 
Q 6.890625 46.875 6.828125 48.5 
Q 6.78125 50.140625 6.734375 51.3125 
Q 6.6875 52.484375 6.640625 52.828125 
L 14.9375 52.828125 
Q 14.984375 52.59375 15.03125 51.515625 
Q 15.09375 50.4375 15.15625 49.046875 
Q 15.234375 47.65625 15.28125 46.21875 
Q 15.328125 44.78125 15.328125 43.796875 
L 15.484375 43.796875 
Q 16.75 46.09375 18.265625 47.953125 
Q 19.78125 49.8125 21.78125 51.09375 
Q 23.78125 52.390625 26.359375 53.09375 
Q 28.953125 53.8125 32.375 53.8125 
Q 36.765625 53.8125 39.9375 52.734375 
Q 43.109375 51.65625 45.15625 49.40625 
Q 47.21875 47.171875 48.171875 43.625 
Q 49.125 40.09375 49.125 35.203125 
L 49.125 0 
z
" id="LiberationSans-110"/>
     </defs>
     <g style="fill:#262626;" transform="translate(110.6 52.39625)scale(0.14 -0.14)">
      <use xlink:href="#LiberationSans-86"/>
      <use x="66.683594" xlink:href="#LiberationSans-105"/>
      <use x="88.900391" xlink:href="#LiberationSans-115"/>
      <use x="138.900391" xlink:href="#LiberationSans-105"/>
      <use x="161.117188" xlink:href="#LiberationSans-111"/>
      <use x="216.732422" xlink:href="#LiberationSans-110"/>
     </g>
    </g>
    <g id="line2d_41">
     <path d="M 71.4 67.546875 
L 99.4 67.546875 
" style="fill:none;stroke:#4daf4a;stroke-linecap:round;stroke-width:1.2;"/>
    </g>
    <g id="line2d_42"/>
    <g id="text_17">
     <!-- Combined -->
     <defs>
      <path d="M 38.671875 62.203125 
Q 32.8125 62.203125 28.296875 60.25 
Q 23.78125 58.296875 20.71875 54.6875 
Q 17.671875 51.078125 16.109375 46 
Q 14.546875 40.921875 14.546875 34.71875 
Q 14.546875 28.515625 16.234375 23.359375 
Q 17.921875 18.21875 21.0625 14.5 
Q 24.21875 10.796875 28.78125 8.734375 
Q 33.34375 6.6875 39.0625 6.6875 
Q 43.0625 6.6875 46.359375 7.734375 
Q 49.65625 8.796875 52.3125 10.6875 
Q 54.984375 12.59375 57.078125 15.203125 
Q 59.1875 17.828125 60.796875 21 
L 68.40625 17.1875 
Q 66.546875 13.328125 63.8125 10 
Q 61.078125 6.6875 57.390625 4.25 
Q 53.71875 1.8125 49.046875 0.40625 
Q 44.390625 -0.984375 38.625 -0.984375 
Q 30.28125 -0.984375 24 1.671875 
Q 17.71875 4.34375 13.5 9.109375 
Q 9.28125 13.875 7.171875 20.40625 
Q 5.078125 26.953125 5.078125 34.71875 
Q 5.078125 42.78125 7.296875 49.265625 
Q 9.515625 55.765625 13.78125 60.328125 
Q 18.0625 64.890625 24.3125 67.359375 
Q 30.5625 69.828125 38.578125 69.828125 
Q 49.5625 69.828125 56.9375 65.53125 
Q 64.3125 61.234375 67.78125 52.78125 
L 58.9375 49.859375 
Q 57.953125 52.296875 56.296875 54.515625 
Q 54.640625 56.734375 52.140625 58.4375 
Q 49.65625 60.15625 46.3125 61.171875 
Q 42.96875 62.203125 38.671875 62.203125 
z
" id="LiberationSans-67"/>
      <path d="M 51.421875 26.65625 
Q 51.421875 -0.984375 31.984375 -0.984375 
Q 25.984375 -0.984375 22 1.1875 
Q 18.015625 3.375 15.53125 8.203125 
L 15.4375 8.203125 
Q 15.4375 6.9375 15.359375 5.5625 
Q 15.28125 4.203125 15.203125 3.03125 
Q 15.140625 1.859375 15.0625 1.03125 
Q 14.984375 0.203125 14.9375 0 
L 6.453125 0 
Q 6.5 0.4375 6.546875 1.484375 
Q 6.59375 2.546875 6.640625 4 
Q 6.6875 5.46875 6.703125 7.21875 
Q 6.734375 8.984375 6.734375 10.890625 
L 6.734375 72.46875 
L 15.53125 72.46875 
L 15.53125 51.8125 
Q 15.53125 50.34375 15.5 49 
Q 15.484375 47.65625 15.4375 46.625 
Q 15.375 45.40625 15.328125 44.34375 
L 15.53125 44.34375 
Q 17.96875 49.421875 22 51.609375 
Q 26.03125 53.8125 31.984375 53.8125 
Q 42 53.8125 46.703125 47.0625 
Q 51.421875 40.328125 51.421875 26.65625 
z
M 42.1875 26.375 
Q 42.1875 31.84375 41.5 35.75 
Q 40.828125 39.65625 39.3125 42.15625 
Q 37.796875 44.671875 35.453125 45.84375 
Q 33.109375 47.015625 29.734375 47.015625 
Q 26.265625 47.015625 23.609375 45.890625 
Q 20.953125 44.78125 19.171875 42.28125 
Q 17.390625 39.796875 16.453125 35.734375 
Q 15.53125 31.6875 15.53125 25.828125 
Q 15.53125 20.171875 16.453125 16.3125 
Q 17.390625 12.453125 19.171875 10.03125 
Q 20.953125 7.625 23.578125 6.5625 
Q 26.21875 5.515625 29.640625 5.515625 
Q 32.859375 5.515625 35.203125 6.640625 
Q 37.546875 7.765625 39.109375 10.25 
Q 40.671875 12.75 41.421875 16.71875 
Q 42.1875 20.703125 42.1875 26.375 
z
" id="LiberationSans-98"/>
      <path d="M 40.09375 8.5 
Q 37.640625 3.421875 33.609375 1.21875 
Q 29.59375 -0.984375 23.640625 -0.984375 
Q 13.625 -0.984375 8.90625 5.75 
Q 4.203125 12.5 4.203125 26.171875 
Q 4.203125 53.8125 23.640625 53.8125 
Q 29.640625 53.8125 33.640625 51.609375 
Q 37.640625 49.421875 40.09375 44.625 
L 40.1875 44.625 
Q 40.1875 45.125 40.15625 46.171875 
Q 40.140625 47.21875 40.109375 48.359375 
Q 40.09375 49.515625 40.09375 50.53125 
Q 40.09375 51.5625 40.09375 52 
L 40.09375 72.46875 
L 48.875 72.46875 
L 48.875 10.890625 
Q 48.875 8.984375 48.890625 7.21875 
Q 48.921875 5.46875 48.96875 4 
Q 49.03125 2.546875 49.078125 1.484375 
Q 49.125 0.4375 49.171875 0 
L 40.765625 0 
Q 40.671875 0.484375 40.59375 1.390625 
Q 40.53125 2.296875 40.453125 3.46875 
Q 40.375 4.640625 40.328125 5.9375 
Q 40.28125 7.234375 40.28125 8.5 
z
M 13.421875 26.46875 
Q 13.421875 21 14.109375 17.09375 
Q 14.796875 13.1875 16.3125 10.671875 
Q 17.828125 8.15625 20.171875 6.984375 
Q 22.515625 5.8125 25.875 5.8125 
Q 29.34375 5.8125 32 6.9375 
Q 34.671875 8.0625 36.453125 10.578125 
Q 38.234375 13.09375 39.15625 17.140625 
Q 40.09375 21.1875 40.09375 27.046875 
Q 40.09375 32.671875 39.15625 36.546875 
Q 38.234375 40.4375 36.421875 42.828125 
Q 34.625 45.21875 32 46.265625 
Q 29.390625 47.3125 25.984375 47.3125 
Q 22.75 47.3125 20.40625 46.1875 
Q 18.0625 45.0625 16.5 42.578125 
Q 14.9375 40.09375 14.171875 36.109375 
Q 13.421875 32.125 13.421875 26.46875 
z
" id="LiberationSans-100"/>
     </defs>
     <g style="fill:#262626;" transform="translate(110.6 72.446875)scale(0.14 -0.14)">
      <use xlink:href="#LiberationSans-67"/>
      <use x="72.216797" xlink:href="#LiberationSans-111"/>
      <use x="127.832031" xlink:href="#LiberationSans-109"/>
      <use x="211.132812" xlink:href="#LiberationSans-98"/>
      <use x="266.748047" xlink:href="#LiberationSans-105"/>
      <use x="288.964844" xlink:href="#LiberationSans-110"/>
      <use x="344.580078" xlink:href="#LiberationSans-101"/>
      <use x="400.195312" xlink:href="#LiberationSans-100"/>
     </g>
    </g>
   </g>
  </g>
 </g>
 <defs>
  <clipPath id="p960e0438bf">
   <rect height="226.98" width="363.6" x="58.8" y="9.6"/>
  </clipPath>
 </defs>
</svg>
