<?xml version="1.0" encoding="utf-8" standalone="no"?>
<!DOCTYPE svg PUBLIC "-//W3C//DTD SVG 1.1//EN"
  "http://www.w3.org/Graphics/SVG/1.1/DTD/svg11.dtd">
<!-- Created with matplotlib (https://matplotlib.org/) -->
<svg height="288pt" version="1.1" viewBox="0 0 432 288" width="432pt" xmlns="http://www.w3.org/2000/svg" xmlns:xlink="http://www.w3.org/1999/xlink">
 <defs>
  <style type="text/css">
*{stroke-linecap:butt;stroke-linejoin:round;}
  </style>
 </defs>
 <g id="figure_1">
  <g id="patch_1">
   <path d="M 0 288 
L 432 288 
L 432 0 
L 0 0 
z
" style="fill:#ffffff;"/>
  </g>
  <g id="axes_1">
   <g id="patch_2">
    <path d="M 58.4 235.1 
L 422.4 235.1 
L 422.4 9.6 
L 58.4 9.6 
z
" style="fill:#ffffff;"/>
   </g>
   <g id="matplotlib.axis_1">
    <g id="xtick_1">
     <g id="line2d_1">
      <path clip-path="url(#p6a1f199a52)" d="M 58.4 235.1 
L 58.4 9.6 
" style="fill:none;stroke:#cccccc;stroke-linecap:round;stroke-width:0.8;"/>
     </g>
     <g id="line2d_2">
      <defs>
       <path d="M 0 0 
L 0 4.8 
" id="m2ef95c40d3" style="stroke:#262626;"/>
      </defs>
      <g>
       <use style="fill:#262626;stroke:#262626;" x="58.4" xlink:href="#m2ef95c40d3" y="235.1"/>
      </g>
     </g>
     <g id="text_1">
      <!-- 0.00 -->
      <defs>
       <path d="M 51.703125 34.421875 
Q 51.703125 24.515625 49.828125 17.75 
Q 47.953125 10.984375 44.703125 6.8125 
Q 41.453125 2.640625 37.0625 0.828125 
Q 32.671875 -0.984375 27.6875 -0.984375 
Q 22.65625 -0.984375 18.3125 0.828125 
Q 13.96875 2.640625 10.765625 6.78125 
Q 7.5625 10.9375 5.734375 17.703125 
Q 3.90625 24.46875 3.90625 34.421875 
Q 3.90625 44.828125 5.734375 51.640625 
Q 7.5625 58.453125 10.78125 62.5 
Q 14.015625 66.546875 18.40625 68.1875 
Q 22.796875 69.828125 27.984375 69.828125 
Q 32.90625 69.828125 37.21875 68.1875 
Q 41.546875 66.546875 44.765625 62.5 
Q 48 58.453125 49.84375 51.640625 
Q 51.703125 44.828125 51.703125 34.421875 
z
M 42.78125 34.421875 
Q 42.78125 42.625 41.796875 48.0625 
Q 40.828125 53.515625 38.921875 56.765625 
Q 37.015625 60.015625 34.25 61.359375 
Q 31.5 62.703125 27.984375 62.703125 
Q 24.265625 62.703125 21.4375 61.328125 
Q 18.609375 59.96875 16.671875 56.71875 
Q 14.75 53.46875 13.765625 48.015625 
Q 12.796875 42.578125 12.796875 34.421875 
Q 12.796875 26.515625 13.796875 21.09375 
Q 14.796875 15.671875 16.71875 12.375 
Q 18.65625 9.078125 21.4375 7.640625 
Q 24.21875 6.203125 27.78125 6.203125 
Q 31.25 6.203125 34.03125 7.640625 
Q 36.8125 9.078125 38.734375 12.375 
Q 40.671875 15.671875 41.71875 21.09375 
Q 42.78125 26.515625 42.78125 34.421875 
z
" id="LiberationSans-48"/>
       <path d="M 9.125 0 
L 9.125 10.6875 
L 18.65625 10.6875 
L 18.65625 0 
z
" id="LiberationSans-46"/>
      </defs>
      <g style="fill:#262626;" transform="translate(44.777344 253.545625)scale(0.14 -0.14)">
       <use xlink:href="#LiberationSans-48"/>
       <use x="55.615234" xlink:href="#LiberationSans-46"/>
       <use x="83.398438" xlink:href="#LiberationSans-48"/>
       <use x="139.013672" xlink:href="#LiberationSans-48"/>
      </g>
     </g>
    </g>
    <g id="xtick_2">
     <g id="line2d_3">
      <path clip-path="url(#p6a1f199a52)" d="M 172.15 235.1 
L 172.15 9.6 
" style="fill:none;stroke:#cccccc;stroke-linecap:round;stroke-width:0.8;"/>
     </g>
     <g id="line2d_4">
      <g>
       <use style="fill:#262626;stroke:#262626;" x="172.15" xlink:href="#m2ef95c40d3" y="235.1"/>
      </g>
     </g>
     <g id="text_2">
      <!-- 0.05 -->
      <defs>
       <path d="M 51.421875 22.40625 
Q 51.421875 17.234375 49.859375 12.9375 
Q 48.296875 8.640625 45.21875 5.53125 
Q 42.140625 2.4375 37.578125 0.71875 
Q 33.015625 -0.984375 27 -0.984375 
Q 21.578125 -0.984375 17.546875 0.28125 
Q 13.53125 1.5625 10.734375 3.78125 
Q 7.953125 6 6.3125 8.984375 
Q 4.6875 11.96875 4 15.375 
L 12.890625 16.40625 
Q 13.421875 14.453125 14.390625 12.625 
Q 15.375 10.796875 17.0625 9.34375 
Q 18.75 7.90625 21.21875 7.046875 
Q 23.6875 6.203125 27.203125 6.203125 
Q 30.609375 6.203125 33.390625 7.25 
Q 36.1875 8.296875 38.15625 10.34375 
Q 40.140625 12.40625 41.203125 15.375 
Q 42.28125 18.359375 42.28125 22.21875 
Q 42.28125 25.390625 41.25 28.046875 
Q 40.234375 30.71875 38.328125 32.640625 
Q 36.421875 34.578125 33.65625 35.640625 
Q 30.90625 36.71875 27.390625 36.71875 
Q 25.203125 36.71875 23.34375 36.328125 
Q 21.484375 35.9375 19.890625 35.25 
Q 18.3125 34.578125 17.015625 33.671875 
Q 15.71875 32.765625 14.59375 31.78125 
L 6 31.78125 
L 8.296875 68.796875 
L 47.40625 68.796875 
L 47.40625 61.328125 
L 16.3125 61.328125 
L 14.984375 39.5 
Q 17.328125 41.3125 20.84375 42.59375 
Q 24.359375 43.890625 29.203125 43.890625 
Q 34.328125 43.890625 38.421875 42.328125 
Q 42.53125 40.765625 45.40625 37.90625 
Q 48.296875 35.0625 49.859375 31.109375 
Q 51.421875 27.15625 51.421875 22.40625 
z
" id="LiberationSans-53"/>
      </defs>
      <g style="fill:#262626;" transform="translate(158.527344 253.545625)scale(0.14 -0.14)">
       <use xlink:href="#LiberationSans-48"/>
       <use x="55.615234" xlink:href="#LiberationSans-46"/>
       <use x="83.398438" xlink:href="#LiberationSans-48"/>
       <use x="139.013672" xlink:href="#LiberationSans-53"/>
      </g>
     </g>
    </g>
    <g id="xtick_3">
     <g id="line2d_5">
      <path clip-path="url(#p6a1f199a52)" d="M 285.9 235.1 
L 285.9 9.6 
" style="fill:none;stroke:#cccccc;stroke-linecap:round;stroke-width:0.8;"/>
     </g>
     <g id="line2d_6">
      <g>
       <use style="fill:#262626;stroke:#262626;" x="285.9" xlink:href="#m2ef95c40d3" y="235.1"/>
      </g>
     </g>
     <g id="text_3">
      <!-- 0.10 -->
      <defs>
       <path d="M 7.625 0 
L 7.625 7.46875 
L 25.140625 7.46875 
L 25.140625 60.40625 
L 9.625 49.3125 
L 9.625 57.625 
L 25.875 68.796875 
L 33.984375 68.796875 
L 33.984375 7.46875 
L 50.734375 7.46875 
L 50.734375 0 
z
" id="LiberationSans-49"/>
      </defs>
      <g style="fill:#262626;" transform="translate(272.277344 253.545625)scale(0.14 -0.14)">
       <use xlink:href="#LiberationSans-48"/>
       <use x="55.615234" xlink:href="#LiberationSans-46"/>
       <use x="83.398438" xlink:href="#LiberationSans-49"/>
       <use x="139.013672" xlink:href="#LiberationSans-48"/>
      </g>
     </g>
    </g>
    <g id="xtick_4">
     <g id="line2d_7">
      <path clip-path="url(#p6a1f199a52)" d="M 399.65 235.1 
L 399.65 9.6 
" style="fill:none;stroke:#cccccc;stroke-linecap:round;stroke-width:0.8;"/>
     </g>
     <g id="line2d_8">
      <g>
       <use style="fill:#262626;stroke:#262626;" x="399.65" xlink:href="#m2ef95c40d3" y="235.1"/>
      </g>
     </g>
     <g id="text_4">
      <!-- 0.15 -->
      <g style="fill:#262626;" transform="translate(386.027344 253.545625)scale(0.14 -0.14)">
       <use xlink:href="#LiberationSans-48"/>
       <use x="55.615234" xlink:href="#LiberationSans-46"/>
       <use x="83.398438" xlink:href="#LiberationSans-49"/>
       <use x="139.013672" xlink:href="#LiberationSans-53"/>
      </g>
     </g>
    </g>
    <g id="xtick_5">
     <g id="line2d_9">
      <defs>
       <path d="M 0 0 
L 0 3.2 
" id="m53506192ef" style="stroke:#262626;stroke-width:0.8;"/>
      </defs>
      <g>
       <use style="fill:#262626;stroke:#262626;stroke-width:0.8;" x="81.15" xlink:href="#m53506192ef" y="235.1"/>
      </g>
     </g>
    </g>
    <g id="xtick_6">
     <g id="line2d_10">
      <g>
       <use style="fill:#262626;stroke:#262626;stroke-width:0.8;" x="103.9" xlink:href="#m53506192ef" y="235.1"/>
      </g>
     </g>
    </g>
    <g id="xtick_7">
     <g id="line2d_11">
      <g>
       <use style="fill:#262626;stroke:#262626;stroke-width:0.8;" x="126.65" xlink:href="#m53506192ef" y="235.1"/>
      </g>
     </g>
    </g>
    <g id="xtick_8">
     <g id="line2d_12">
      <g>
       <use style="fill:#262626;stroke:#262626;stroke-width:0.8;" x="149.4" xlink:href="#m53506192ef" y="235.1"/>
      </g>
     </g>
    </g>
    <g id="xtick_9">
     <g id="line2d_13">
      <g>
       <use style="fill:#262626;stroke:#262626;stroke-width:0.8;" x="194.9" xlink:href="#m53506192ef" y="235.1"/>
      </g>
     </g>
    </g>
    <g id="xtick_10">
     <g id="line2d_14">
      <g>
       <use style="fill:#262626;stroke:#262626;stroke-width:0.8;" x="217.65" xlink:href="#m53506192ef" y="235.1"/>
      </g>
     </g>
    </g>
    <g id="xtick_11">
     <g id="line2d_15">
      <g>
       <use style="fill:#262626;stroke:#262626;stroke-width:0.8;" x="240.4" xlink:href="#m53506192ef" y="235.1"/>
      </g>
     </g>
    </g>
    <g id="xtick_12">
     <g id="line2d_16">
      <g>
       <use style="fill:#262626;stroke:#262626;stroke-width:0.8;" x="263.15" xlink:href="#m53506192ef" y="235.1"/>
      </g>
     </g>
    </g>
    <g id="xtick_13">
     <g id="line2d_17">
      <g>
       <use style="fill:#262626;stroke:#262626;stroke-width:0.8;" x="308.65" xlink:href="#m53506192ef" y="235.1"/>
      </g>
     </g>
    </g>
    <g id="xtick_14">
     <g id="line2d_18">
      <g>
       <use style="fill:#262626;stroke:#262626;stroke-width:0.8;" x="331.4" xlink:href="#m53506192ef" y="235.1"/>
      </g>
     </g>
    </g>
    <g id="xtick_15">
     <g id="line2d_19">
      <g>
       <use style="fill:#262626;stroke:#262626;stroke-width:0.8;" x="354.15" xlink:href="#m53506192ef" y="235.1"/>
      </g>
     </g>
    </g>
    <g id="xtick_16">
     <g id="line2d_20">
      <g>
       <use style="fill:#262626;stroke:#262626;stroke-width:0.8;" x="376.9" xlink:href="#m53506192ef" y="235.1"/>
      </g>
     </g>
    </g>
    <g id="xtick_17">
     <g id="line2d_21">
      <g>
       <use style="fill:#262626;stroke:#262626;stroke-width:0.8;" x="422.4" xlink:href="#m53506192ef" y="235.1"/>
      </g>
     </g>
    </g>
    <g id="text_5">
     <!-- Time (s) -->
     <defs>
      <path d="M 35.15625 61.1875 
L 35.15625 0 
L 25.875 0 
L 25.875 61.1875 
L 2.25 61.1875 
L 2.25 68.796875 
L 58.796875 68.796875 
L 58.796875 61.1875 
z
" id="LiberationSans-84"/>
      <path d="M 6.6875 64.0625 
L 6.6875 72.46875 
L 15.484375 72.46875 
L 15.484375 64.0625 
z
M 6.6875 0 
L 6.6875 52.828125 
L 15.484375 52.828125 
L 15.484375 0 
z
" id="LiberationSans-105"/>
      <path d="M 37.5 0 
L 37.5 33.5 
Q 37.5 37.359375 37.015625 39.9375 
Q 36.53125 42.53125 35.375 44.109375 
Q 34.234375 45.703125 32.375 46.359375 
Q 30.515625 47.015625 27.828125 47.015625 
Q 25.046875 47.015625 22.796875 45.921875 
Q 20.5625 44.828125 18.96875 42.75 
Q 17.390625 40.671875 16.53125 37.625 
Q 15.671875 34.578125 15.671875 30.609375 
L 15.671875 0 
L 6.9375 0 
L 6.9375 41.546875 
Q 6.9375 43.21875 6.90625 45.046875 
Q 6.890625 46.875 6.828125 48.5 
Q 6.78125 50.140625 6.734375 51.3125 
Q 6.6875 52.484375 6.640625 52.828125 
L 14.9375 52.828125 
Q 14.984375 52.59375 15.03125 51.515625 
Q 15.09375 50.4375 15.15625 49.046875 
Q 15.234375 47.65625 15.28125 46.21875 
Q 15.328125 44.78125 15.328125 43.796875 
L 15.484375 43.796875 
Q 16.65625 46.09375 18.015625 47.953125 
Q 19.390625 49.8125 21.21875 51.09375 
Q 23.046875 52.390625 25.40625 53.09375 
Q 27.78125 53.8125 30.90625 53.8125 
Q 36.921875 53.8125 40.40625 51.421875 
Q 43.890625 49.03125 45.265625 43.796875 
L 45.40625 43.796875 
Q 46.578125 46.09375 48.046875 47.953125 
Q 49.515625 49.8125 51.46875 51.09375 
Q 53.421875 52.390625 55.859375 53.09375 
Q 58.296875 53.8125 61.421875 53.8125 
Q 65.4375 53.8125 68.328125 52.734375 
Q 71.234375 51.65625 73.09375 49.40625 
Q 74.953125 47.171875 75.828125 43.625 
Q 76.703125 40.09375 76.703125 35.203125 
L 76.703125 0 
L 68.015625 0 
L 68.015625 33.5 
Q 68.015625 37.359375 67.53125 39.9375 
Q 67.046875 42.53125 65.890625 44.109375 
Q 64.75 45.703125 62.890625 46.359375 
Q 61.03125 47.015625 58.34375 47.015625 
Q 55.5625 47.015625 53.3125 45.96875 
Q 51.078125 44.921875 49.484375 42.875 
Q 47.90625 40.828125 47.046875 37.75 
Q 46.1875 34.671875 46.1875 30.609375 
L 46.1875 0 
z
" id="LiberationSans-109"/>
      <path d="M 13.484375 24.5625 
Q 13.484375 20.40625 14.328125 16.90625 
Q 15.1875 13.421875 16.96875 10.90625 
Q 18.75 8.40625 21.53125 7 
Q 24.3125 5.609375 28.21875 5.609375 
Q 33.9375 5.609375 37.375 7.90625 
Q 40.828125 10.203125 42.046875 13.71875 
L 49.75 11.53125 
Q 48.921875 9.328125 47.4375 7.109375 
Q 45.953125 4.890625 43.453125 3.09375 
Q 40.96875 1.3125 37.234375 0.15625 
Q 33.5 -0.984375 28.21875 -0.984375 
Q 16.5 -0.984375 10.375 6 
Q 4.25 12.984375 4.25 26.765625 
Q 4.25 34.1875 6.09375 39.328125 
Q 7.953125 44.484375 11.171875 47.703125 
Q 14.40625 50.921875 18.703125 52.359375 
Q 23 53.8125 27.875 53.8125 
Q 34.515625 53.8125 38.984375 51.65625 
Q 43.453125 49.515625 46.15625 45.71875 
Q 48.875 41.9375 50.015625 36.8125 
Q 51.171875 31.6875 51.171875 25.734375 
L 51.171875 24.5625 
z
M 42.09375 31.296875 
Q 41.359375 39.65625 37.84375 43.484375 
Q 34.328125 47.3125 27.734375 47.3125 
Q 25.53125 47.3125 23.109375 46.609375 
Q 20.703125 45.90625 18.65625 44.09375 
Q 16.609375 42.28125 15.1875 39.171875 
Q 13.765625 36.078125 13.578125 31.296875 
z
" id="LiberationSans-101"/>
      <path id="LiberationSans-32"/>
      <path d="M 6.203125 25.984375 
Q 6.203125 32.765625 7.21875 38.96875 
Q 8.25 45.171875 10.4375 50.875 
Q 12.640625 56.59375 16.0625 61.953125 
Q 19.484375 67.328125 24.21875 72.46875 
L 32.71875 72.46875 
Q 28.125 67.328125 24.78125 61.9375 
Q 21.4375 56.546875 19.28125 50.796875 
Q 17.140625 45.0625 16.09375 38.859375 
Q 15.046875 32.671875 15.046875 25.875 
Q 15.046875 19.09375 16.09375 12.890625 
Q 17.140625 6.6875 19.28125 0.921875 
Q 21.4375 -4.828125 24.78125 -10.203125 
Q 28.125 -15.578125 32.71875 -20.703125 
L 24.21875 -20.703125 
Q 19.484375 -15.578125 16.0625 -10.203125 
Q 12.640625 -4.828125 10.4375 0.875 
Q 8.25 6.59375 7.21875 12.765625 
Q 6.203125 18.953125 6.203125 25.78125 
z
" id="LiberationSans-40"/>
      <path d="M 46.390625 14.59375 
Q 46.390625 10.890625 44.9375 7.984375 
Q 43.5 5.078125 40.765625 3.09375 
Q 38.03125 1.125 34.046875 0.0625 
Q 30.078125 -0.984375 24.953125 -0.984375 
Q 20.359375 -0.984375 16.671875 -0.265625 
Q 12.984375 0.4375 10.203125 2 
Q 7.421875 3.5625 5.53125 6.125 
Q 3.65625 8.6875 2.78125 12.40625 
L 10.546875 13.921875 
Q 11.671875 9.671875 15.1875 7.6875 
Q 18.703125 5.71875 24.953125 5.71875 
Q 27.78125 5.71875 30.140625 6.109375 
Q 32.515625 6.5 34.21875 7.453125 
Q 35.9375 8.40625 36.890625 9.984375 
Q 37.84375 11.578125 37.84375 13.921875 
Q 37.84375 16.3125 36.71875 17.84375 
Q 35.59375 19.390625 33.59375 20.40625 
Q 31.59375 21.4375 28.734375 22.1875 
Q 25.875 22.953125 22.46875 23.875 
Q 19.28125 24.703125 16.15625 25.734375 
Q 13.03125 26.765625 10.515625 28.4375 
Q 8.015625 30.125 6.453125 32.609375 
Q 4.890625 35.109375 4.890625 38.875 
Q 4.890625 46.09375 10.03125 49.875 
Q 15.1875 53.65625 25.046875 53.65625 
Q 33.796875 53.65625 38.9375 50.578125 
Q 44.09375 47.515625 45.453125 40.71875 
L 37.546875 39.75 
Q 37.109375 41.796875 35.9375 43.1875 
Q 34.765625 44.578125 33.109375 45.4375 
Q 31.453125 46.296875 29.375 46.65625 
Q 27.296875 47.015625 25.046875 47.015625 
Q 19.09375 47.015625 16.25 45.203125 
Q 13.421875 43.40625 13.421875 39.75 
Q 13.421875 37.59375 14.46875 36.203125 
Q 15.53125 34.8125 17.40625 33.859375 
Q 19.28125 32.90625 21.921875 32.203125 
Q 24.5625 31.5 27.734375 30.71875 
Q 29.828125 30.171875 32.03125 29.5625 
Q 34.234375 28.953125 36.296875 28.09375 
Q 38.375 27.25 40.203125 26.09375 
Q 42.046875 24.953125 43.40625 23.34375 
Q 44.78125 21.734375 45.578125 19.578125 
Q 46.390625 17.4375 46.390625 14.59375 
z
" id="LiberationSans-115"/>
      <path d="M 27.09375 25.78125 
Q 27.09375 18.953125 26.0625 12.765625 
Q 25.046875 6.59375 22.84375 0.875 
Q 20.65625 -4.828125 17.234375 -10.203125 
Q 13.8125 -15.578125 9.078125 -20.703125 
L 0.59375 -20.703125 
Q 5.171875 -15.578125 8.515625 -10.203125 
Q 11.859375 -4.828125 14 0.921875 
Q 16.15625 6.6875 17.203125 12.890625 
Q 18.265625 19.09375 18.265625 25.875 
Q 18.265625 32.671875 17.203125 38.859375 
Q 16.15625 45.0625 14 50.796875 
Q 11.859375 56.546875 8.515625 61.9375 
Q 5.171875 67.328125 0.59375 72.46875 
L 9.078125 72.46875 
Q 13.8125 67.328125 17.234375 61.953125 
Q 20.65625 56.59375 22.84375 50.875 
Q 25.046875 45.171875 26.0625 38.96875 
Q 27.09375 32.765625 27.09375 25.984375 
z
" id="LiberationSans-41"/>
     </defs>
     <g style="fill:#262626;" transform="translate(207.412188 273.495)scale(0.18 -0.18)">
      <use xlink:href="#LiberationSans-84"/>
      <use x="61.037109" xlink:href="#LiberationSans-105"/>
      <use x="83.253906" xlink:href="#LiberationSans-109"/>
      <use x="166.554688" xlink:href="#LiberationSans-101"/>
      <use x="222.169922" xlink:href="#LiberationSans-32"/>
      <use x="249.953125" xlink:href="#LiberationSans-40"/>
      <use x="283.253906" xlink:href="#LiberationSans-115"/>
      <use x="333.253906" xlink:href="#LiberationSans-41"/>
     </g>
    </g>
   </g>
   <g id="matplotlib.axis_2">
    <g id="ytick_1">
     <g id="line2d_22">
      <path clip-path="url(#p6a1f199a52)" d="M 58.4 235.1 
L 422.4 235.1 
" style="fill:none;stroke:#cccccc;stroke-linecap:round;stroke-width:0.8;"/>
     </g>
     <g id="text_6">
      <!-- 0.4 -->
      <defs>
       <path d="M 43.015625 15.578125 
L 43.015625 0 
L 34.71875 0 
L 34.71875 15.578125 
L 2.296875 15.578125 
L 2.296875 22.40625 
L 33.796875 68.796875 
L 43.015625 68.796875 
L 43.015625 22.515625 
L 52.6875 22.515625 
L 52.6875 15.578125 
z
M 34.71875 58.890625 
Q 34.625 58.640625 34.234375 57.9375 
Q 33.84375 57.234375 33.34375 56.34375 
Q 32.859375 55.46875 32.34375 54.5625 
Q 31.84375 53.65625 31.453125 53.078125 
L 13.8125 27.09375 
Q 13.578125 26.703125 13.109375 26.0625 
Q 12.640625 25.4375 12.15625 24.78125 
Q 11.671875 24.125 11.171875 23.484375 
Q 10.6875 22.859375 10.40625 22.515625 
L 34.71875 22.515625 
z
" id="LiberationSans-52"/>
      </defs>
      <g style="fill:#262626;" transform="translate(30.64 240.172812)scale(0.14 -0.14)">
       <use xlink:href="#LiberationSans-48"/>
       <use x="55.615234" xlink:href="#LiberationSans-46"/>
       <use x="83.398438" xlink:href="#LiberationSans-52"/>
      </g>
     </g>
    </g>
    <g id="ytick_2">
     <g id="line2d_23">
      <path clip-path="url(#p6a1f199a52)" d="M 58.4 206.555696 
L 422.4 206.555696 
" style="fill:none;stroke:#cccccc;stroke-linecap:round;stroke-width:0.8;"/>
     </g>
     <g id="text_7">
      <!-- 0.5 -->
      <g style="fill:#262626;" transform="translate(30.64 211.628509)scale(0.14 -0.14)">
       <use xlink:href="#LiberationSans-48"/>
       <use x="55.615234" xlink:href="#LiberationSans-46"/>
       <use x="83.398438" xlink:href="#LiberationSans-53"/>
      </g>
     </g>
    </g>
    <g id="ytick_3">
     <g id="line2d_24">
      <path clip-path="url(#p6a1f199a52)" d="M 58.4 178.011392 
L 422.4 178.011392 
" style="fill:none;stroke:#cccccc;stroke-linecap:round;stroke-width:0.8;"/>
     </g>
     <g id="text_8">
      <!-- 0.6 -->
      <defs>
       <path d="M 51.21875 22.515625 
Q 51.21875 17.328125 49.78125 13 
Q 48.34375 8.6875 45.53125 5.578125 
Q 42.71875 2.484375 38.5625 0.75 
Q 34.421875 -0.984375 29 -0.984375 
Q 23 -0.984375 18.5 1.3125 
Q 14.015625 3.609375 11.03125 7.921875 
Q 8.0625 12.25 6.5625 18.53125 
Q 5.078125 24.8125 5.078125 32.8125 
Q 5.078125 42 6.765625 48.921875 
Q 8.453125 55.859375 11.625 60.5 
Q 14.796875 65.140625 19.359375 67.484375 
Q 23.921875 69.828125 29.6875 69.828125 
Q 33.203125 69.828125 36.28125 69.09375 
Q 39.359375 68.359375 41.875 66.71875 
Q 44.390625 65.09375 46.28125 62.40625 
Q 48.1875 59.71875 49.3125 55.8125 
L 40.921875 54.296875 
Q 39.546875 58.734375 36.546875 60.71875 
Q 33.546875 62.703125 29.59375 62.703125 
Q 25.984375 62.703125 23.046875 60.984375 
Q 20.125 59.28125 18.0625 55.875 
Q 16.015625 52.484375 14.90625 47.359375 
Q 13.8125 42.234375 13.8125 35.40625 
Q 16.21875 39.84375 20.5625 42.15625 
Q 24.90625 44.484375 30.515625 44.484375 
Q 35.203125 44.484375 39.015625 42.96875 
Q 42.828125 41.453125 45.53125 38.59375 
Q 48.25 35.75 49.734375 31.671875 
Q 51.21875 27.59375 51.21875 22.515625 
z
M 42.28125 22.125 
Q 42.28125 25.6875 41.40625 28.5625 
Q 40.53125 31.453125 38.765625 33.46875 
Q 37.015625 35.5 34.421875 36.59375 
Q 31.84375 37.703125 28.421875 37.703125 
Q 26.03125 37.703125 23.578125 36.984375 
Q 21.140625 36.28125 19.15625 34.6875 
Q 17.1875 33.109375 15.9375 30.515625 
Q 14.703125 27.9375 14.703125 24.21875 
Q 14.703125 20.40625 15.671875 17.109375 
Q 16.65625 13.8125 18.484375 11.375 
Q 20.3125 8.9375 22.890625 7.515625 
Q 25.484375 6.109375 28.71875 6.109375 
Q 31.890625 6.109375 34.40625 7.203125 
Q 36.921875 8.296875 38.671875 10.375 
Q 40.4375 12.453125 41.359375 15.421875 
Q 42.28125 18.40625 42.28125 22.125 
z
" id="LiberationSans-54"/>
      </defs>
      <g style="fill:#262626;" transform="translate(30.64 183.084205)scale(0.14 -0.14)">
       <use xlink:href="#LiberationSans-48"/>
       <use x="55.615234" xlink:href="#LiberationSans-46"/>
       <use x="83.398438" xlink:href="#LiberationSans-54"/>
      </g>
     </g>
    </g>
    <g id="ytick_4">
     <g id="line2d_25">
      <path clip-path="url(#p6a1f199a52)" d="M 58.4 149.467089 
L 422.4 149.467089 
" style="fill:none;stroke:#cccccc;stroke-linecap:round;stroke-width:0.8;"/>
     </g>
     <g id="text_9">
      <!-- 0.7 -->
      <defs>
       <path d="M 50.59375 61.671875 
Q 45.40625 53.765625 41.0625 46.453125 
Q 36.71875 39.15625 33.59375 31.75 
Q 30.46875 24.359375 28.734375 16.578125 
Q 27 8.796875 27 0 
L 17.828125 0 
Q 17.828125 8.25 19.78125 16.1875 
Q 21.734375 24.125 25.046875 31.765625 
Q 28.375 39.40625 32.765625 46.78125 
Q 37.15625 54.15625 42.09375 61.328125 
L 5.125 61.328125 
L 5.125 68.796875 
L 50.59375 68.796875 
z
" id="LiberationSans-55"/>
      </defs>
      <g style="fill:#262626;" transform="translate(30.64 154.539901)scale(0.14 -0.14)">
       <use xlink:href="#LiberationSans-48"/>
       <use x="55.615234" xlink:href="#LiberationSans-46"/>
       <use x="83.398438" xlink:href="#LiberationSans-55"/>
      </g>
     </g>
    </g>
    <g id="ytick_5">
     <g id="line2d_26">
      <path clip-path="url(#p6a1f199a52)" d="M 58.4 120.922785 
L 422.4 120.922785 
" style="fill:none;stroke:#cccccc;stroke-linecap:round;stroke-width:0.8;"/>
     </g>
     <g id="text_10">
      <!-- 0.8 -->
      <defs>
       <path d="M 51.265625 19.1875 
Q 51.265625 14.796875 49.875 11.109375 
Q 48.484375 7.421875 45.625 4.734375 
Q 42.78125 2.046875 38.328125 0.53125 
Q 33.890625 -0.984375 27.828125 -0.984375 
Q 21.78125 -0.984375 17.359375 0.53125 
Q 12.9375 2.046875 10.03125 4.703125 
Q 7.125 7.375 5.734375 11.0625 
Q 4.34375 14.75 4.34375 19.09375 
Q 4.34375 22.859375 5.484375 25.78125 
Q 6.640625 28.71875 8.5625 30.828125 
Q 10.5 32.953125 12.96875 34.25 
Q 15.4375 35.546875 18.0625 35.984375 
L 18.0625 36.1875 
Q 15.1875 36.859375 12.90625 38.375 
Q 10.640625 39.890625 9.09375 42.015625 
Q 7.5625 44.140625 6.75 46.71875 
Q 5.953125 49.3125 5.953125 52.203125 
Q 5.953125 55.8125 7.34375 59 
Q 8.734375 62.203125 11.46875 64.625 
Q 14.203125 67.046875 18.25 68.4375 
Q 22.3125 69.828125 27.640625 69.828125 
Q 33.25 69.828125 37.375 68.40625 
Q 41.5 67 44.203125 64.578125 
Q 46.921875 62.15625 48.234375 58.9375 
Q 49.5625 55.71875 49.5625 52.09375 
Q 49.5625 49.265625 48.75 46.671875 
Q 47.953125 44.09375 46.40625 41.96875 
Q 44.875 39.84375 42.59375 38.34375 
Q 40.328125 36.859375 37.359375 36.28125 
L 37.359375 36.078125 
Q 40.328125 35.59375 42.859375 34.296875 
Q 45.40625 33.015625 47.265625 30.890625 
Q 49.125 28.765625 50.1875 25.828125 
Q 51.265625 22.90625 51.265625 19.1875 
z
M 40.4375 51.609375 
Q 40.4375 54.203125 39.765625 56.34375 
Q 39.109375 58.5 37.59375 60.03125 
Q 36.078125 61.578125 33.640625 62.421875 
Q 31.203125 63.28125 27.640625 63.28125 
Q 24.171875 63.28125 21.78125 62.421875 
Q 19.390625 61.578125 17.84375 60.03125 
Q 16.3125 58.5 15.625 56.34375 
Q 14.9375 54.203125 14.9375 51.609375 
Q 14.9375 49.5625 15.46875 47.40625 
Q 16.015625 45.265625 17.421875 43.5 
Q 18.84375 41.75 21.328125 40.625 
Q 23.828125 39.5 27.734375 39.5 
Q 31.890625 39.5 34.40625 40.625 
Q 36.921875 41.75 38.25 43.5 
Q 39.59375 45.265625 40.015625 47.40625 
Q 40.4375 49.5625 40.4375 51.609375 
z
M 42.140625 20.015625 
Q 42.140625 22.515625 41.453125 24.828125 
Q 40.765625 27.15625 39.109375 28.9375 
Q 37.453125 30.71875 34.640625 31.8125 
Q 31.84375 32.90625 27.640625 32.90625 
Q 23.78125 32.90625 21.0625 31.8125 
Q 18.359375 30.71875 16.671875 28.90625 
Q 14.984375 27.09375 14.203125 24.71875 
Q 13.421875 22.359375 13.421875 19.828125 
Q 13.421875 16.65625 14.203125 14.03125 
Q 14.984375 11.421875 16.6875 9.546875 
Q 18.40625 7.671875 21.1875 6.640625 
Q 23.96875 5.609375 27.9375 5.609375 
Q 31.9375 5.609375 34.671875 6.640625 
Q 37.40625 7.671875 39.0625 9.546875 
Q 40.71875 11.421875 41.421875 14.078125 
Q 42.140625 16.75 42.140625 20.015625 
z
" id="LiberationSans-56"/>
      </defs>
      <g style="fill:#262626;" transform="translate(30.64 125.995597)scale(0.14 -0.14)">
       <use xlink:href="#LiberationSans-48"/>
       <use x="55.615234" xlink:href="#LiberationSans-46"/>
       <use x="83.398438" xlink:href="#LiberationSans-56"/>
      </g>
     </g>
    </g>
    <g id="ytick_6">
     <g id="line2d_27">
      <path clip-path="url(#p6a1f199a52)" d="M 58.4 92.378481 
L 422.4 92.378481 
" style="fill:none;stroke:#cccccc;stroke-linecap:round;stroke-width:0.8;"/>
     </g>
     <g id="text_11">
      <!-- 0.9 -->
      <defs>
       <path d="M 50.875 35.796875 
Q 50.875 26.609375 49.140625 19.703125 
Q 47.40625 12.796875 44.1875 8.203125 
Q 40.96875 3.609375 36.34375 1.3125 
Q 31.734375 -0.984375 25.984375 -0.984375 
Q 22.015625 -0.984375 18.84375 -0.171875 
Q 15.671875 0.640625 13.171875 2.34375 
Q 10.6875 4.046875 8.921875 6.78125 
Q 7.171875 9.515625 6.109375 13.375 
L 14.5 14.703125 
Q 15.875 10.25 18.78125 8.171875 
Q 21.6875 6.109375 26.125 6.109375 
Q 29.6875 6.109375 32.640625 7.78125 
Q 35.59375 9.46875 37.671875 12.84375 
Q 39.75 16.21875 40.921875 21.296875 
Q 42.09375 26.375 42.1875 33.203125 
Q 41.15625 30.90625 39.375 29.09375 
Q 37.59375 27.296875 35.328125 26.046875 
Q 33.0625 24.8125 30.421875 24.140625 
Q 27.78125 23.484375 25.09375 23.484375 
Q 20.40625 23.484375 16.625 25.171875 
Q 12.84375 26.859375 10.203125 29.875 
Q 7.5625 32.90625 6.125 37.171875 
Q 4.6875 41.453125 4.6875 46.6875 
Q 4.6875 52 6.21875 56.296875 
Q 7.765625 60.59375 10.6875 63.59375 
Q 13.625 66.609375 17.890625 68.21875 
Q 22.171875 69.828125 27.59375 69.828125 
Q 39.0625 69.828125 44.96875 61.328125 
Q 50.875 52.828125 50.875 35.796875 
z
M 41.3125 44.28125 
Q 41.3125 48.09375 40.40625 51.453125 
Q 39.5 54.828125 37.71875 57.3125 
Q 35.9375 59.8125 33.328125 61.25 
Q 30.71875 62.703125 27.296875 62.703125 
Q 24.125 62.703125 21.578125 61.578125 
Q 19.046875 60.453125 17.28125 58.375 
Q 15.53125 56.296875 14.578125 53.3125 
Q 13.625 50.34375 13.625 46.6875 
Q 13.625 43.21875 14.46875 40.234375 
Q 15.328125 37.25 17.03125 35.078125 
Q 18.75 32.90625 21.28125 31.65625 
Q 23.828125 30.421875 27.203125 30.421875 
Q 29.640625 30.421875 32.15625 31.25 
Q 34.671875 32.078125 36.6875 33.78125 
Q 38.71875 35.5 40.015625 38.109375 
Q 41.3125 40.71875 41.3125 44.28125 
z
" id="LiberationSans-57"/>
      </defs>
      <g style="fill:#262626;" transform="translate(30.64 97.451294)scale(0.14 -0.14)">
       <use xlink:href="#LiberationSans-48"/>
       <use x="55.615234" xlink:href="#LiberationSans-46"/>
       <use x="83.398438" xlink:href="#LiberationSans-57"/>
      </g>
     </g>
    </g>
    <g id="ytick_7">
     <g id="line2d_28">
      <path clip-path="url(#p6a1f199a52)" d="M 58.4 63.834177 
L 422.4 63.834177 
" style="fill:none;stroke:#cccccc;stroke-linecap:round;stroke-width:0.8;"/>
     </g>
     <g id="text_12">
      <!-- 1.0 -->
      <g style="fill:#262626;" transform="translate(30.64 68.90699)scale(0.14 -0.14)">
       <use xlink:href="#LiberationSans-49"/>
       <use x="55.615234" xlink:href="#LiberationSans-46"/>
       <use x="83.398438" xlink:href="#LiberationSans-48"/>
      </g>
     </g>
    </g>
    <g id="ytick_8">
     <g id="line2d_29">
      <path clip-path="url(#p6a1f199a52)" d="M 58.4 35.289873 
L 422.4 35.289873 
" style="fill:none;stroke:#cccccc;stroke-linecap:round;stroke-width:0.8;"/>
     </g>
     <g id="text_13">
      <!-- 1.1 -->
      <g style="fill:#262626;" transform="translate(30.64 40.362686)scale(0.14 -0.14)">
       <use xlink:href="#LiberationSans-49"/>
       <use x="55.615234" xlink:href="#LiberationSans-46"/>
       <use x="83.398438" xlink:href="#LiberationSans-49"/>
      </g>
     </g>
    </g>
    <g id="text_14">
     <!-- Test Accuracy -->
     <defs>
      <path d="M 27.046875 0.390625 
Q 25.046875 -0.140625 22.96875 -0.453125 
Q 20.90625 -0.78125 18.171875 -0.78125 
Q 7.625 -0.78125 7.625 11.1875 
L 7.625 46.4375 
L 1.515625 46.4375 
L 1.515625 52.828125 
L 7.953125 52.828125 
L 10.546875 64.65625 
L 16.40625 64.65625 
L 16.40625 52.828125 
L 26.171875 52.828125 
L 26.171875 46.4375 
L 16.40625 46.4375 
L 16.40625 13.09375 
Q 16.40625 9.28125 17.640625 7.734375 
Q 18.890625 6.203125 21.96875 6.203125 
Q 23.25 6.203125 24.4375 6.390625 
Q 25.640625 6.59375 27.046875 6.890625 
z
" id="LiberationSans-116"/>
      <path d="M 56.984375 0 
L 49.125 20.125 
L 17.78125 20.125 
L 9.859375 0 
L 0.203125 0 
L 28.265625 68.796875 
L 38.875 68.796875 
L 66.5 0 
z
M 37.5 50.09375 
Q 36.71875 52.046875 36 54.046875 
Q 35.296875 56.0625 34.765625 57.6875 
Q 34.234375 59.328125 33.859375 60.421875 
Q 33.5 61.53125 33.453125 61.765625 
Q 33.34375 61.53125 33 60.40625 
Q 32.671875 59.28125 32.109375 57.609375 
Q 31.546875 55.953125 30.828125 53.953125 
Q 30.125 51.953125 29.390625 50 
L 20.609375 27.390625 
L 46.34375 27.390625 
z
" id="LiberationSans-65"/>
      <path d="M 13.421875 26.65625 
Q 13.421875 22.125 14.078125 18.3125 
Q 14.75 14.5 16.3125 11.734375 
Q 17.875 8.984375 20.4375 7.46875 
Q 23 5.953125 26.765625 5.953125 
Q 31.453125 5.953125 34.59375 8.484375 
Q 37.75 11.03125 38.484375 16.3125 
L 47.359375 15.71875 
Q 46.921875 12.453125 45.453125 9.421875 
Q 44 6.390625 41.484375 4.09375 
Q 38.96875 1.8125 35.34375 0.40625 
Q 31.734375 -0.984375 27 -0.984375 
Q 20.796875 -0.984375 16.453125 1.109375 
Q 12.109375 3.21875 9.390625 6.90625 
Q 6.6875 10.59375 5.46875 15.59375 
Q 4.25 20.609375 4.25 26.46875 
Q 4.25 31.78125 5.125 35.859375 
Q 6 39.9375 7.59375 42.984375 
Q 9.1875 46.046875 11.328125 48.125 
Q 13.484375 50.203125 15.984375 51.4375 
Q 18.5 52.6875 21.28125 53.25 
Q 24.078125 53.8125 26.90625 53.8125 
Q 31.34375 53.8125 34.8125 52.59375 
Q 38.28125 51.375 40.796875 49.25 
Q 43.3125 47.125 44.875 44.234375 
Q 46.4375 41.359375 47.078125 38.03125 
L 38.03125 37.359375 
Q 37.359375 41.75 34.5625 44.328125 
Q 31.78125 46.921875 26.65625 46.921875 
Q 22.90625 46.921875 20.390625 45.671875 
Q 17.875 44.4375 16.3125 41.921875 
Q 14.75 39.40625 14.078125 35.59375 
Q 13.421875 31.78125 13.421875 26.65625 
z
" id="LiberationSans-99"/>
      <path d="M 15.328125 52.828125 
L 15.328125 19.34375 
Q 15.328125 15.484375 15.890625 12.890625 
Q 16.453125 10.296875 17.71875 8.703125 
Q 19 7.125 21.0625 6.46875 
Q 23.140625 5.8125 26.21875 5.8125 
Q 29.34375 5.8125 31.859375 6.90625 
Q 34.375 8.015625 36.15625 10.078125 
Q 37.9375 12.15625 38.90625 15.203125 
Q 39.890625 18.265625 39.890625 22.21875 
L 39.890625 52.828125 
L 48.6875 52.828125 
L 48.6875 11.28125 
Q 48.6875 9.625 48.703125 7.78125 
Q 48.734375 5.953125 48.78125 4.3125 
Q 48.828125 2.6875 48.875 1.515625 
Q 48.921875 0.34375 48.96875 0 
L 40.671875 0 
Q 40.625 0.25 40.578125 1.3125 
Q 40.53125 2.390625 40.453125 3.78125 
Q 40.375 5.171875 40.328125 6.609375 
Q 40.28125 8.0625 40.28125 9.03125 
L 40.140625 9.03125 
Q 38.875 6.734375 37.359375 4.875 
Q 35.84375 3.03125 33.84375 1.734375 
Q 31.84375 0.4375 29.25 -0.265625 
Q 26.65625 -0.984375 23.25 -0.984375 
Q 18.84375 -0.984375 15.671875 0.09375 
Q 12.5 1.171875 10.453125 3.421875 
Q 8.40625 5.671875 7.453125 9.1875 
Q 6.5 12.703125 6.5 17.625 
L 6.5 52.828125 
z
" id="LiberationSans-117"/>
      <path d="M 6.9375 0 
L 6.9375 40.53125 
Q 6.9375 42.1875 6.90625 43.921875 
Q 6.890625 45.65625 6.828125 47.265625 
Q 6.78125 48.875 6.734375 50.28125 
Q 6.6875 51.703125 6.640625 52.828125 
L 14.9375 52.828125 
Q 14.984375 51.703125 15.0625 50.265625 
Q 15.140625 48.828125 15.203125 47.3125 
Q 15.28125 45.796875 15.296875 44.40625 
Q 15.328125 43.015625 15.328125 42.046875 
L 15.53125 42.046875 
Q 16.453125 45.0625 17.5 47.28125 
Q 18.5625 49.515625 19.96875 50.953125 
Q 21.390625 52.390625 23.34375 53.09375 
Q 25.296875 53.8125 28.078125 53.8125 
Q 29.15625 53.8125 30.125 53.640625 
Q 31.109375 53.46875 31.640625 53.328125 
L 31.640625 45.265625 
Q 30.765625 45.515625 29.59375 45.625 
Q 28.421875 45.75 26.953125 45.75 
Q 23.921875 45.75 21.796875 44.375 
Q 19.671875 43.015625 18.328125 40.59375 
Q 17 38.1875 16.359375 34.84375 
Q 15.71875 31.5 15.71875 27.546875 
L 15.71875 0 
z
" id="LiberationSans-114"/>
      <path d="M 20.21875 -0.984375 
Q 12.25 -0.984375 8.25 3.21875 
Q 4.25 7.421875 4.25 14.75 
Q 4.25 19.96875 6.21875 23.3125 
Q 8.203125 26.65625 11.390625 28.5625 
Q 14.59375 30.46875 18.6875 31.203125 
Q 22.796875 31.9375 27.046875 32.03125 
L 38.921875 32.234375 
L 38.921875 35.109375 
Q 38.921875 38.375 38.234375 40.671875 
Q 37.546875 42.96875 36.125 44.375 
Q 34.71875 45.796875 32.59375 46.453125 
Q 30.46875 47.125 27.59375 47.125 
Q 25.046875 47.125 23 46.75 
Q 20.953125 46.390625 19.4375 45.4375 
Q 17.921875 44.484375 16.984375 42.84375 
Q 16.0625 41.21875 15.765625 38.71875 
L 6.59375 39.546875 
Q 7.078125 42.671875 8.4375 45.28125 
Q 9.8125 47.90625 12.328125 49.796875 
Q 14.84375 51.703125 18.625 52.75 
Q 22.40625 53.8125 27.78125 53.8125 
Q 37.75 53.8125 42.765625 49.234375 
Q 47.796875 44.671875 47.796875 36.03125 
L 47.796875 13.28125 
Q 47.796875 9.375 48.828125 7.390625 
Q 49.859375 5.421875 52.734375 5.421875 
Q 53.46875 5.421875 54.203125 5.515625 
Q 54.9375 5.609375 55.609375 5.765625 
L 55.609375 0.296875 
Q 53.953125 -0.09375 52.3125 -0.28125 
Q 50.6875 -0.484375 48.828125 -0.484375 
Q 46.34375 -0.484375 44.5625 0.171875 
Q 42.78125 0.828125 41.65625 2.171875 
Q 40.53125 3.515625 39.9375 5.484375 
Q 39.359375 7.46875 39.203125 10.109375 
L 38.921875 10.109375 
Q 37.5 7.5625 35.8125 5.515625 
Q 34.125 3.46875 31.875 2.03125 
Q 29.640625 0.59375 26.78125 -0.1875 
Q 23.921875 -0.984375 20.21875 -0.984375 
z
M 22.21875 5.609375 
Q 26.421875 5.609375 29.5625 7.140625 
Q 32.71875 8.6875 34.78125 11.078125 
Q 36.859375 13.484375 37.890625 16.3125 
Q 38.921875 19.140625 38.921875 21.734375 
L 38.921875 26.078125 
L 29.296875 25.875 
Q 26.078125 25.828125 23.171875 25.40625 
Q 20.265625 25 18.0625 23.78125 
Q 15.875 22.5625 14.578125 20.359375 
Q 13.28125 18.171875 13.28125 14.59375 
Q 13.28125 10.296875 15.59375 7.953125 
Q 17.921875 5.609375 22.21875 5.609375 
z
" id="LiberationSans-97"/>
      <path d="M 29.5 0 
Q 27.640625 -4.78125 25.703125 -8.609375 
Q 23.78125 -12.453125 21.390625 -15.15625 
Q 19 -17.875 16.0625 -19.3125 
Q 13.140625 -20.75 9.328125 -20.75 
Q 7.671875 -20.75 6.25 -20.65625 
Q 4.828125 -20.5625 3.265625 -20.21875 
L 3.265625 -13.625 
Q 4.203125 -13.765625 5.375 -13.84375 
Q 6.546875 -13.921875 7.375 -13.921875 
Q 11.234375 -13.921875 14.546875 -11.03125 
Q 17.875 -8.15625 20.359375 -1.859375 
L 21.1875 0.25 
L 0.25 52.828125 
L 9.625 52.828125 
L 20.75 23.640625 
Q 21.234375 22.3125 21.984375 20.109375 
Q 22.75 17.921875 23.5 15.71875 
Q 24.265625 13.53125 24.84375 11.765625 
Q 25.4375 10.015625 25.53125 9.578125 
Q 25.6875 10.109375 26.25 11.6875 
Q 26.8125 13.28125 27.515625 15.234375 
Q 28.21875 17.1875 28.953125 19.1875 
Q 29.6875 21.1875 30.171875 22.65625 
L 40.53125 52.828125 
L 49.8125 52.828125 
z
" id="LiberationSans-121"/>
     </defs>
     <g style="fill:#262626;" transform="translate(22.905 179.339688)rotate(-90)scale(0.18 -0.18)">
      <use xlink:href="#LiberationSans-84"/>
      <use x="60.912109" xlink:href="#LiberationSans-101"/>
      <use x="116.527344" xlink:href="#LiberationSans-115"/>
      <use x="166.527344" xlink:href="#LiberationSans-116"/>
      <use x="194.310547" xlink:href="#LiberationSans-32"/>
      <use x="222.015625" xlink:href="#LiberationSans-65"/>
      <use x="288.714844" xlink:href="#LiberationSans-99"/>
      <use x="338.714844" xlink:href="#LiberationSans-99"/>
      <use x="388.714844" xlink:href="#LiberationSans-117"/>
      <use x="444.330078" xlink:href="#LiberationSans-114"/>
      <use x="477.630859" xlink:href="#LiberationSans-97"/>
      <use x="533.246094" xlink:href="#LiberationSans-99"/>
      <use x="583.246094" xlink:href="#LiberationSans-121"/>
     </g>
    </g>
   </g>
   <g id="PolyCollection_1">
    <path clip-path="url(#p6a1f199a52)" d="M 58.4 206.555696 
L 58.4 206.555696 
L 60.675 206.555696 
L 62.95 206.555696 
L 65.225 206.555696 
L 67.5 206.555696 
L 69.775 206.555696 
L 72.05 206.555696 
L 74.325 206.555696 
L 76.6 206.555696 
L 78.875 206.555696 
L 81.15 206.555696 
L 83.425 206.555696 
L 85.7 206.555696 
L 87.975 206.555696 
L 90.25 206.555696 
L 92.525 206.555696 
L 94.8 206.555696 
L 97.075 206.555696 
L 99.35 206.555696 
L 101.625 206.555696 
L 103.9 206.555696 
L 106.175 207.2368 
L 108.45 207.2368 
L 110.725 207.2368 
L 113 201.310046 
L 115.275 199.179324 
L 117.55 178.011392 
L 119.825 185.844076 
L 122.1 181.792243 
L 124.375 178.481328 
L 126.65 171.670771 
L 128.925 166.706537 
L 131.2 165.132455 
L 133.475 160.515498 
L 135.75 156.244102 
L 138.025 160.515498 
L 140.3 159.003472 
L 142.575 159.917983 
L 144.85 161.530024 
L 147.125 150.673419 
L 149.4 147.883852 
L 151.675 150.673419 
L 153.95 147.16754 
L 156.225 147.16754 
L 158.5 137.333744 
L 160.775 137.333332 
L 163.05 134.045162 
L 165.325 139.9998 
L 167.6 139.9998 
L 169.875 137.333332 
L 172.15 134.045162 
L 174.425 139.986267 
L 176.7 136.557144 
L 178.975 134.045162 
L 181.25 139.986267 
L 183.525 139.986267 
L 185.8 137.333332 
L 188.075 139.986267 
L 190.35 147.883852 
L 192.625 145.17964 
L 194.9 147.883852 
L 197.175 152.253469 
L 199.45 142.738702 
L 201.725 147.677001 
L 204 147.677001 
L 206.275 147.677001 
L 208.55 144.73132 
L 210.825 144.73132 
L 213.1 144.73132 
L 215.375 144.73132 
L 217.65 144.73132 
L 219.925 144.73132 
L 222.2 144.73132 
L 224.475 144.73132 
L 226.75 144.73132 
L 229.025 144.73132 
L 231.3 144.73132 
L 233.575 144.73132 
L 235.85 139.552132 
L 238.125 139.552132 
L 240.4 137.652772 
L 242.675 126.148232 
L 244.95 131.266454 
L 247.225 130.907489 
L 249.5 125.714115 
L 251.775 133.459513 
L 254.05 130.907489 
L 256.325 128.692451 
L 258.6 133.459513 
L 260.875 128.692451 
L 263.15 133.459513 
L 265.425 137.652772 
L 267.7 133.459513 
L 269.975 134.714343 
L 272.25 133.459513 
L 274.525 134.714343 
L 276.8 134.714343 
L 279.075 133.459513 
L 281.35 125.714115 
L 283.625 125.714115 
L 285.9 125.714115 
L 288.175 125.714115 
L 290.45 125.714115 
L 292.725 125.714115 
L 295 125.714115 
L 297.275 125.714115 
L 299.55 125.714115 
L 301.825 125.714115 
L 304.1 125.714115 
L 306.375 130.037364 
L 308.65 130.037364 
L 310.925 130.037364 
L 313.2 130.037364 
L 315.475 130.037364 
L 317.75 130.037364 
L 320.025 128.692451 
L 322.3 128.692451 
L 324.575 128.692451 
L 326.85 128.692451 
L 329.125 135.431499 
L 331.4 128.692451 
L 333.675 128.692451 
L 335.95 123.061592 
L 338.225 128.692451 
L 340.5 123.061592 
L 342.775 123.061592 
L 345.05 123.061592 
L 347.325 123.061592 
L 349.6 123.061592 
L 351.875 126.148232 
L 354.15 123.06118 
L 356.425 125.727648 
L 358.7 125.727648 
L 360.975 123.06118 
L 363.25 125.727648 
L 365.525 123.06118 
L 367.8 125.727648 
L 370.075 123.06118 
L 372.35 123.06118 
L 374.625 125.727648 
L 376.9 119.773011 
L 379.175 123.06118 
L 381.45 123.061592 
L 383.725 123.061592 
L 386 123.06118 
L 388.275 123.061592 
L 390.55 123.061592 
L 392.825 123.061592 
L 395.1 123.061592 
L 397.375 123.061592 
L 399.65 123.061592 
L 401.925 123.061592 
L 404.2 123.061592 
L 406.475 123.061592 
L 408.75 123.061592 
L 411.025 123.061592 
L 413.3 123.061592 
L 415.575 123.061592 
L 417.85 123.061592 
L 420.125 123.061592 
L 422.4 123.061592 
L 424.675 123.061592 
L 426.95 123.061592 
L 429.225 123.061592 
L 431.5 123.061592 
L 433.775 123.061592 
L 436.05 123.061592 
L 438.325 123.061592 
L 440.6 123.061592 
L 442.875 123.061592 
L 445.15 123.061592 
L 447.425 123.061592 
L 449.7 123.061592 
L 451.975 123.061592 
L 454.25 123.061592 
L 456.525 123.061592 
L 458.8 123.061592 
L 461.075 123.061592 
L 463.35 123.061592 
L 465.625 123.061592 
L 467.9 123.061592 
L 470.175 123.061592 
L 472.45 123.061592 
L 474.725 123.061592 
L 477 123.061592 
L 479.275 123.061592 
L 481.55 123.061592 
L 483.825 123.061592 
L 486.1 123.061592 
L 488.375 123.061592 
L 490.65 123.061592 
L 492.925 123.061592 
L 495.2 123.061592 
L 497.475 123.061592 
L 499.75 123.061592 
L 502.025 123.061592 
L 504.3 123.061592 
L 506.575 123.061592 
L 508.85 123.061592 
L 511.125 123.061592 
L 513.4 123.061592 
L 515.675 123.061592 
L 517.95 123.061592 
L 520.225 123.061592 
L 522.5 123.061592 
L 524.775 123.061592 
L 527.05 123.061592 
L 529.325 123.061592 
L 531.6 123.061592 
L 533.875 123.061592 
L 536.15 123.061592 
L 538.425 123.061592 
L 540.7 123.061592 
L 542.975 123.061592 
L 545.25 123.061592 
L 547.525 123.061592 
L 549.8 123.061592 
L 552.075 123.061592 
L 554.35 123.061592 
L 556.625 123.061592 
L 558.9 123.061592 
L 561.175 123.061592 
L 563.45 123.061592 
L 565.725 123.061592 
L 568 123.061592 
L 570.275 123.061592 
L 572.55 123.061592 
L 574.825 123.061592 
L 577.1 123.061592 
L 579.375 123.061592 
L 581.65 123.061592 
L 583.925 123.061592 
L 586.2 123.061592 
L 588.475 123.061592 
L 590.75 123.061592 
L 593.025 123.061592 
L 595.3 123.061592 
L 597.575 123.061592 
L 599.85 123.061592 
L 602.125 123.061592 
L 604.4 123.061592 
L 606.675 123.061592 
L 608.95 123.061592 
L 611.225 123.061592 
L 613.5 123.061592 
L 615.775 123.061592 
L 618.05 123.061592 
L 620.325 123.061592 
L 622.6 123.061592 
L 624.875 123.061592 
L 627.15 123.061592 
L 629.425 123.061592 
L 631.7 123.061592 
L 633.975 123.061592 
L 636.25 123.061592 
L 638.525 123.061592 
L 640.8 123.061592 
L 643.075 123.061592 
L 645.35 123.061592 
L 647.625 123.061592 
L 649.9 123.061592 
L 652.175 123.061592 
L 654.45 123.061592 
L 656.725 123.061592 
L 659 123.061592 
L 661.275 123.061592 
L 663.55 123.061592 
L 665.825 123.061592 
L 668.1 123.061592 
L 670.375 123.061592 
L 672.65 123.061592 
L 674.925 123.061592 
L 677.2 123.061592 
L 679.475 123.061592 
L 681.75 123.061592 
L 684.025 123.061592 
L 686.3 123.061592 
L 688.575 123.061592 
L 690.85 123.061592 
L 693.125 123.061592 
L 695.4 123.061592 
L 697.675 123.061592 
L 699.95 123.061592 
L 702.225 123.061592 
L 704.5 123.061592 
L 706.775 123.061592 
L 709.05 123.061592 
L 711.325 123.061592 
L 713.6 123.061592 
L 715.875 123.061592 
L 718.15 123.061592 
L 720.425 123.061592 
L 722.7 123.061592 
L 724.975 123.061592 
L 727.25 123.061592 
L 729.525 123.061592 
L 731.8 123.061592 
L 734.075 123.061592 
L 736.35 123.061592 
L 738.625 123.061592 
L 740.9 123.061592 
L 743.175 123.061592 
L 745.45 123.061592 
L 747.725 123.061592 
L 750 123.061592 
L 752.275 123.061592 
L 754.55 123.061592 
L 756.825 123.061592 
L 759.1 123.061592 
L 761.375 123.061592 
L 763.65 123.061592 
L 765.925 123.061592 
L 768.2 123.061592 
L 770.475 123.061592 
L 772.75 123.061592 
L 775.025 123.061592 
L 777.3 123.061592 
L 779.575 123.061592 
L 781.85 123.061592 
L 784.125 123.061592 
L 786.4 123.061592 
L 788.675 123.061592 
L 790.95 123.061592 
L 793.225 123.061592 
L 795.5 123.061592 
L 795.5 94.997058 
L 795.5 94.997058 
L 793.225 94.997058 
L 790.95 94.997058 
L 788.675 94.997058 
L 786.4 94.997058 
L 784.125 94.997058 
L 781.85 94.997058 
L 779.575 94.997058 
L 777.3 94.997058 
L 775.025 94.997058 
L 772.75 94.997058 
L 770.475 94.997058 
L 768.2 94.997058 
L 765.925 94.997058 
L 763.65 94.997058 
L 761.375 94.997058 
L 759.1 94.997058 
L 756.825 94.997058 
L 754.55 94.997058 
L 752.275 94.997058 
L 750 94.997058 
L 747.725 94.997058 
L 745.45 94.997058 
L 743.175 94.997058 
L 740.9 94.997058 
L 738.625 94.997058 
L 736.35 94.997058 
L 734.075 94.997058 
L 731.8 94.997058 
L 729.525 94.997058 
L 727.25 94.997058 
L 724.975 94.997058 
L 722.7 94.997058 
L 720.425 94.997058 
L 718.15 94.997058 
L 715.875 94.997058 
L 713.6 94.997058 
L 711.325 94.997058 
L 709.05 94.997058 
L 706.775 94.997058 
L 704.5 94.997058 
L 702.225 94.997058 
L 699.95 94.997058 
L 697.675 94.997058 
L 695.4 94.997058 
L 693.125 94.997058 
L 690.85 94.997058 
L 688.575 94.997058 
L 686.3 94.997058 
L 684.025 94.997058 
L 681.75 94.997058 
L 679.475 94.997058 
L 677.2 94.997058 
L 674.925 94.997058 
L 672.65 94.997058 
L 670.375 94.997058 
L 668.1 94.997058 
L 665.825 94.997058 
L 663.55 94.997058 
L 661.275 94.997058 
L 659 94.997058 
L 656.725 94.997058 
L 654.45 94.997058 
L 652.175 94.997058 
L 649.9 94.997058 
L 647.625 94.997058 
L 645.35 94.997058 
L 643.075 94.997058 
L 640.8 94.997058 
L 638.525 94.997058 
L 636.25 94.997058 
L 633.975 94.997058 
L 631.7 94.997058 
L 629.425 94.997058 
L 627.15 94.997058 
L 624.875 94.997058 
L 622.6 94.997058 
L 620.325 94.997058 
L 618.05 94.997058 
L 615.775 94.997058 
L 613.5 94.997058 
L 611.225 94.997058 
L 608.95 94.997058 
L 606.675 94.997058 
L 604.4 94.997058 
L 602.125 94.997058 
L 599.85 94.997058 
L 597.575 94.997058 
L 595.3 94.997058 
L 593.025 94.997058 
L 590.75 94.997058 
L 588.475 94.997058 
L 586.2 94.997058 
L 583.925 94.997058 
L 581.65 94.997058 
L 579.375 94.997058 
L 577.1 94.997058 
L 574.825 94.997058 
L 572.55 94.997058 
L 570.275 94.997058 
L 568 94.997058 
L 565.725 94.997058 
L 563.45 94.997058 
L 561.175 94.997058 
L 558.9 94.997058 
L 556.625 94.997058 
L 554.35 94.997058 
L 552.075 94.997058 
L 549.8 94.997058 
L 547.525 94.997058 
L 545.25 94.997058 
L 542.975 94.997058 
L 540.7 94.997058 
L 538.425 94.997058 
L 536.15 94.997058 
L 533.875 94.997058 
L 531.6 94.997058 
L 529.325 94.997058 
L 527.05 94.997058 
L 524.775 94.997058 
L 522.5 94.997058 
L 520.225 94.997058 
L 517.95 94.997058 
L 515.675 94.997058 
L 513.4 94.997058 
L 511.125 94.997058 
L 508.85 94.997058 
L 506.575 94.997058 
L 504.3 94.997058 
L 502.025 94.997058 
L 499.75 94.997058 
L 497.475 94.997058 
L 495.2 94.997058 
L 492.925 94.997058 
L 490.65 94.997058 
L 488.375 94.997058 
L 486.1 94.997058 
L 483.825 94.997058 
L 481.55 94.997058 
L 479.275 94.997058 
L 477 94.997058 
L 474.725 94.997058 
L 472.45 94.997058 
L 470.175 94.997058 
L 467.9 94.997058 
L 465.625 94.997058 
L 463.35 94.997058 
L 461.075 94.997058 
L 458.8 94.997058 
L 456.525 94.997058 
L 454.25 94.997058 
L 451.975 94.997058 
L 449.7 94.997058 
L 447.425 94.997058 
L 445.15 94.997058 
L 442.875 94.997058 
L 440.6 94.997058 
L 438.325 94.997058 
L 436.05 94.997058 
L 433.775 94.997058 
L 431.5 94.997058 
L 429.225 94.997058 
L 426.95 94.997058 
L 424.675 94.997058 
L 422.4 94.997058 
L 420.125 94.997058 
L 417.85 94.997058 
L 415.575 94.997058 
L 413.3 94.997058 
L 411.025 94.997058 
L 408.75 94.997058 
L 406.475 94.997058 
L 404.2 94.997058 
L 401.925 94.997058 
L 399.65 94.997058 
L 397.375 94.997058 
L 395.1 94.997058 
L 392.825 94.997058 
L 390.55 94.997058 
L 388.275 94.997058 
L 386 99.754854 
L 383.725 94.997058 
L 381.45 94.997058 
L 379.175 99.754854 
L 376.9 98.285639 
L 374.625 101.84577 
L 372.35 99.754854 
L 370.075 99.754854 
L 367.8 101.84577 
L 365.525 99.754854 
L 363.25 101.84577 
L 360.975 99.754854 
L 358.7 101.84577 
L 356.425 101.84577 
L 354.15 99.754854 
L 351.875 96.667802 
L 349.6 94.997058 
L 347.325 94.997058 
L 345.05 94.997058 
L 342.775 94.997058 
L 340.5 94.997058 
L 338.225 94.123583 
L 335.95 94.997058 
L 333.675 94.123583 
L 331.4 94.123583 
L 329.125 92.141919 
L 326.85 94.123583 
L 324.575 94.123583 
L 322.3 94.123583 
L 320.025 94.123583 
L 317.75 88.021286 
L 315.475 88.021286 
L 313.2 88.021286 
L 310.925 88.021286 
L 308.65 88.021286 
L 306.375 88.021286 
L 304.1 92.344534 
L 301.825 92.344534 
L 299.55 92.344534 
L 297.275 92.344534 
L 295 92.344534 
L 292.725 92.344534 
L 290.45 92.344534 
L 288.175 92.344534 
L 285.9 92.344534 
L 283.625 92.344534 
L 281.35 92.344534 
L 279.075 94.113905 
L 276.8 88.10169 
L 274.525 88.10169 
L 272.25 94.113905 
L 269.975 88.10169 
L 267.7 94.113905 
L 265.425 94.67803 
L 263.15 94.113905 
L 260.875 94.123583 
L 258.6 94.113905 
L 256.325 94.123583 
L 254.05 91.908545 
L 251.775 94.113905 
L 249.5 92.344534 
L 247.225 91.908545 
L 244.95 96.306964 
L 242.675 96.667802 
L 240.4 94.67803 
L 238.125 97.536054 
L 235.85 97.536054 
L 233.575 92.356865 
L 231.3 92.356865 
L 229.025 92.356865 
L 226.75 92.356865 
L 224.475 92.356865 
L 222.2 92.356865 
L 219.925 92.356865 
L 217.65 92.356865 
L 215.375 92.356865 
L 213.1 92.356865 
L 210.825 92.356865 
L 208.55 92.356865 
L 206.275 89.411185 
L 204 89.411185 
L 201.725 89.411185 
L 199.45 89.5921 
L 197.175 99.106868 
L 194.9 98.719102 
L 192.625 106.180697 
L 190.35 98.719102 
L 188.075 106.616686 
L 185.8 114.027006 
L 183.525 106.616686 
L 181.25 106.616686 
L 178.975 112.557791 
L 176.7 105.288426 
L 174.425 106.616686 
L 172.15 112.557791 
L 169.875 114.027006 
L 167.6 116.117922 
L 165.325 116.117922 
L 163.05 112.557791 
L 160.775 114.027006 
L 158.5 109.26921 
L 156.225 104.192797 
L 153.95 104.192797 
L 151.675 100.686918 
L 149.4 98.719102 
L 147.125 100.686918 
L 144.85 94.587698 
L 142.575 100.957123 
L 140.3 106.629017 
L 138.025 105.116992 
L 135.75 99.873619 
L 133.475 105.116992 
L 131.2 105.257418 
L 128.925 108.440721 
L 126.65 122.506022 
L 124.375 139.482385 
L 122.1 145.686238 
L 119.825 155.906557 
L 117.55 178.011392 
L 115.275 175.872997 
L 113 183.257043 
L 110.725 191.602441 
L 108.45 191.602441 
L 106.175 191.602441 
L 103.9 206.555696 
L 101.625 206.555696 
L 99.35 206.555696 
L 97.075 206.555696 
L 94.8 206.555696 
L 92.525 206.555696 
L 90.25 206.555696 
L 87.975 206.555696 
L 85.7 206.555696 
L 83.425 206.555696 
L 81.15 206.555696 
L 78.875 206.555696 
L 76.6 206.555696 
L 74.325 206.555696 
L 72.05 206.555696 
L 69.775 206.555696 
L 67.5 206.555696 
L 65.225 206.555696 
L 62.95 206.555696 
L 60.675 206.555696 
L 58.4 206.555696 
z
" style="fill:#e41a1c;fill-opacity:0.2;stroke:#e41a1c;stroke-opacity:0.2;stroke-width:0.8;"/>
   </g>
   <g id="PolyCollection_2">
    <path clip-path="url(#p6a1f199a52)" d="M 58.4 206.555696 
L 58.4 206.555696 
L 60.675 206.555696 
L 62.95 206.555696 
L 65.225 206.555696 
L 67.5 206.555696 
L 69.775 206.555696 
L 72.05 206.555696 
L 74.325 206.555696 
L 76.6 206.555696 
L 78.875 206.555696 
L 81.15 206.555696 
L 83.425 206.555696 
L 85.7 206.555696 
L 87.975 206.555696 
L 90.25 206.555696 
L 92.525 206.555696 
L 94.8 206.555696 
L 97.075 206.555696 
L 99.35 206.555696 
L 101.625 206.555696 
L 103.9 206.555696 
L 106.175 206.555696 
L 108.45 206.555696 
L 110.725 206.555696 
L 113 206.555696 
L 115.275 206.555696 
L 117.55 206.555696 
L 119.825 206.555696 
L 122.1 206.555696 
L 124.375 206.555696 
L 126.65 210.083966 
L 128.925 208.664015 
L 131.2 208.664015 
L 133.475 208.664015 
L 135.75 205.809585 
L 138.025 205.809585 
L 140.3 206.555696 
L 142.575 207.078914 
L 144.85 202.37548 
L 147.125 199.340084 
L 149.4 192.806762 
L 151.675 188.103328 
L 153.95 182.213502 
L 156.225 191.092891 
L 158.5 188.337842 
L 160.775 179.67517 
L 163.05 184.771313 
L 165.325 198.69873 
L 167.6 193.73718 
L 169.875 176.16784 
L 172.15 184.426578 
L 174.425 180.975447 
L 176.7 174.280834 
L 178.975 170.064197 
L 181.25 176.16784 
L 183.525 161.895688 
L 185.8 150.949116 
L 188.075 172.123663 
L 190.35 142.251477 
L 192.625 155.412727 
L 194.9 159.793539 
L 197.175 156.22701 
L 199.45 128.113673 
L 201.725 151.230248 
L 204 141.140576 
L 206.275 140.446351 
L 208.55 159.488607 
L 210.825 134.004284 
L 213.1 132.956602 
L 215.375 129.216886 
L 217.65 136.926439 
L 219.925 135.035865 
L 222.2 120.089873 
L 224.475 124.82365 
L 226.75 113.841521 
L 229.025 113.841521 
L 231.3 113.841521 
L 233.575 101.46499 
L 235.85 106.650633 
L 238.125 106.650633 
L 240.4 106.650633 
L 242.675 101.46499 
L 244.95 106.650633 
L 247.225 106.650633 
L 249.5 102.470416 
L 251.775 107.17385 
L 254.05 107.17385 
L 256.325 91.632369 
L 258.6 95.906751 
L 260.875 92.901698 
L 263.15 92.901698 
L 265.425 85.162869 
L 267.7 77.360218 
L 269.975 77.360218 
L 272.25 77.360218 
L 274.525 77.360218 
L 276.8 73.071308 
L 279.075 63.834177 
L 281.35 63.834177 
L 283.625 63.834177 
L 285.9 63.834177 
L 288.175 63.834177 
L 290.45 63.834177 
L 292.725 63.834177 
L 295 63.834177 
L 297.275 63.834177 
L 299.55 63.834177 
L 301.825 63.834177 
L 304.1 63.834177 
L 306.375 63.834177 
L 308.65 63.834177 
L 310.925 63.834177 
L 313.2 63.834177 
L 315.475 63.834177 
L 317.75 63.834177 
L 320.025 63.834177 
L 322.3 63.834177 
L 324.575 63.834177 
L 326.85 63.834177 
L 329.125 63.834177 
L 331.4 63.834177 
L 333.675 63.834177 
L 335.95 63.834177 
L 338.225 63.834177 
L 340.5 63.834177 
L 342.775 63.834177 
L 345.05 63.834177 
L 347.325 63.834177 
L 349.6 63.834177 
L 351.875 63.834177 
L 354.15 63.834177 
L 356.425 63.834177 
L 358.7 63.834177 
L 360.975 63.834177 
L 363.25 63.834177 
L 365.525 63.834177 
L 367.8 63.834177 
L 370.075 63.834177 
L 372.35 63.834177 
L 374.625 63.834177 
L 376.9 63.834177 
L 379.175 63.834177 
L 381.45 63.834177 
L 383.725 63.834177 
L 386 63.834177 
L 388.275 63.834177 
L 390.55 63.834177 
L 392.825 63.834177 
L 395.1 63.834177 
L 397.375 63.834177 
L 399.65 63.834177 
L 401.925 63.834177 
L 404.2 63.834177 
L 406.475 63.834177 
L 408.75 63.834177 
L 411.025 63.834177 
L 413.3 63.834177 
L 415.575 63.834177 
L 417.85 63.834177 
L 420.125 63.834177 
L 422.4 63.834177 
L 424.675 63.834177 
L 426.95 63.834177 
L 429.225 63.834177 
L 431.5 63.834177 
L 433.775 63.834177 
L 436.05 63.834177 
L 438.325 63.834177 
L 440.6 63.834177 
L 442.875 63.834177 
L 445.15 63.834177 
L 447.425 63.834177 
L 449.7 63.834177 
L 451.975 63.834177 
L 454.25 63.834177 
L 456.525 63.834177 
L 458.8 63.834177 
L 461.075 63.834177 
L 463.35 63.834177 
L 465.625 63.834177 
L 467.9 63.834177 
L 470.175 63.834177 
L 472.45 63.834177 
L 474.725 63.834177 
L 477 63.834177 
L 479.275 63.834177 
L 481.55 63.834177 
L 483.825 63.834177 
L 486.1 63.834177 
L 488.375 63.834177 
L 490.65 63.834177 
L 492.925 63.834177 
L 495.2 63.834177 
L 497.475 63.834177 
L 499.75 63.834177 
L 502.025 63.834177 
L 504.3 63.834177 
L 506.575 63.834177 
L 508.85 63.834177 
L 511.125 63.834177 
L 513.4 63.834177 
L 515.675 63.834177 
L 517.95 63.834177 
L 520.225 63.834177 
L 522.5 63.834177 
L 524.775 63.834177 
L 527.05 63.834177 
L 529.325 63.834177 
L 531.6 63.834177 
L 533.875 63.834177 
L 536.15 63.834177 
L 538.425 63.834177 
L 540.7 63.834177 
L 542.975 63.834177 
L 545.25 63.834177 
L 547.525 63.834177 
L 549.8 63.834177 
L 552.075 63.834177 
L 554.35 63.834177 
L 556.625 63.834177 
L 558.9 63.834177 
L 561.175 63.834177 
L 563.45 63.834177 
L 565.725 63.834177 
L 568 63.834177 
L 570.275 63.834177 
L 572.55 63.834177 
L 574.825 63.834177 
L 577.1 63.834177 
L 579.375 63.834177 
L 581.65 63.834177 
L 583.925 63.834177 
L 586.2 63.834177 
L 588.475 63.834177 
L 590.75 63.834177 
L 593.025 63.834177 
L 595.3 63.834177 
L 597.575 63.834177 
L 599.85 63.834177 
L 602.125 63.834177 
L 604.4 63.834177 
L 606.675 63.834177 
L 608.95 63.834177 
L 611.225 63.834177 
L 613.5 63.834177 
L 615.775 63.834177 
L 618.05 63.834177 
L 620.325 63.834177 
L 622.6 63.834177 
L 624.875 63.834177 
L 627.15 63.834177 
L 629.425 63.834177 
L 631.7 63.834177 
L 633.975 63.834177 
L 636.25 63.834177 
L 638.525 63.834177 
L 640.8 63.834177 
L 643.075 63.834177 
L 645.35 63.834177 
L 647.625 63.834177 
L 649.9 63.834177 
L 652.175 63.834177 
L 654.45 63.834177 
L 656.725 63.834177 
L 659 63.834177 
L 661.275 63.834177 
L 663.55 63.834177 
L 665.825 63.834177 
L 668.1 63.834177 
L 670.375 63.834177 
L 672.65 63.834177 
L 674.925 63.834177 
L 677.2 63.834177 
L 679.475 63.834177 
L 681.75 63.834177 
L 684.025 63.834177 
L 686.3 63.834177 
L 688.575 63.834177 
L 690.85 63.834177 
L 693.125 63.834177 
L 695.4 63.834177 
L 697.675 63.834177 
L 699.95 63.834177 
L 702.225 63.834177 
L 704.5 63.834177 
L 706.775 63.834177 
L 709.05 63.834177 
L 711.325 63.834177 
L 713.6 63.834177 
L 715.875 63.834177 
L 718.15 63.834177 
L 720.425 63.834177 
L 722.7 63.834177 
L 724.975 63.834177 
L 727.25 63.834177 
L 729.525 63.834177 
L 731.8 63.834177 
L 734.075 63.834177 
L 736.35 63.834177 
L 738.625 63.834177 
L 740.9 63.834177 
L 743.175 63.834177 
L 745.45 63.834177 
L 747.725 63.834177 
L 750 63.834177 
L 752.275 63.834177 
L 754.55 63.834177 
L 756.825 63.834177 
L 759.1 63.834177 
L 761.375 63.834177 
L 763.65 63.834177 
L 765.925 63.834177 
L 768.2 63.834177 
L 770.475 63.834177 
L 772.75 63.834177 
L 775.025 63.834177 
L 777.3 63.834177 
L 779.575 63.834177 
L 781.85 63.834177 
L 784.125 63.834177 
L 786.4 63.834177 
L 788.675 63.834177 
L 790.95 63.834177 
L 793.225 63.834177 
L 795.5 63.834177 
L 795.5 63.834177 
L 795.5 63.834177 
L 793.225 63.834177 
L 790.95 63.834177 
L 788.675 63.834177 
L 786.4 63.834177 
L 784.125 63.834177 
L 781.85 63.834177 
L 779.575 63.834177 
L 777.3 63.834177 
L 775.025 63.834177 
L 772.75 63.834177 
L 770.475 63.834177 
L 768.2 63.834177 
L 765.925 63.834177 
L 763.65 63.834177 
L 761.375 63.834177 
L 759.1 63.834177 
L 756.825 63.834177 
L 754.55 63.834177 
L 752.275 63.834177 
L 750 63.834177 
L 747.725 63.834177 
L 745.45 63.834177 
L 743.175 63.834177 
L 740.9 63.834177 
L 738.625 63.834177 
L 736.35 63.834177 
L 734.075 63.834177 
L 731.8 63.834177 
L 729.525 63.834177 
L 727.25 63.834177 
L 724.975 63.834177 
L 722.7 63.834177 
L 720.425 63.834177 
L 718.15 63.834177 
L 715.875 63.834177 
L 713.6 63.834177 
L 711.325 63.834177 
L 709.05 63.834177 
L 706.775 63.834177 
L 704.5 63.834177 
L 702.225 63.834177 
L 699.95 63.834177 
L 697.675 63.834177 
L 695.4 63.834177 
L 693.125 63.834177 
L 690.85 63.834177 
L 688.575 63.834177 
L 686.3 63.834177 
L 684.025 63.834177 
L 681.75 63.834177 
L 679.475 63.834177 
L 677.2 63.834177 
L 674.925 63.834177 
L 672.65 63.834177 
L 670.375 63.834177 
L 668.1 63.834177 
L 665.825 63.834177 
L 663.55 63.834177 
L 661.275 63.834177 
L 659 63.834177 
L 656.725 63.834177 
L 654.45 63.834177 
L 652.175 63.834177 
L 649.9 63.834177 
L 647.625 63.834177 
L 645.35 63.834177 
L 643.075 63.834177 
L 640.8 63.834177 
L 638.525 63.834177 
L 636.25 63.834177 
L 633.975 63.834177 
L 631.7 63.834177 
L 629.425 63.834177 
L 627.15 63.834177 
L 624.875 63.834177 
L 622.6 63.834177 
L 620.325 63.834177 
L 618.05 63.834177 
L 615.775 63.834177 
L 613.5 63.834177 
L 611.225 63.834177 
L 608.95 63.834177 
L 606.675 63.834177 
L 604.4 63.834177 
L 602.125 63.834177 
L 599.85 63.834177 
L 597.575 63.834177 
L 595.3 63.834177 
L 593.025 63.834177 
L 590.75 63.834177 
L 588.475 63.834177 
L 586.2 63.834177 
L 583.925 63.834177 
L 581.65 63.834177 
L 579.375 63.834177 
L 577.1 63.834177 
L 574.825 63.834177 
L 572.55 63.834177 
L 570.275 63.834177 
L 568 63.834177 
L 565.725 63.834177 
L 563.45 63.834177 
L 561.175 63.834177 
L 558.9 63.834177 
L 556.625 63.834177 
L 554.35 63.834177 
L 552.075 63.834177 
L 549.8 63.834177 
L 547.525 63.834177 
L 545.25 63.834177 
L 542.975 63.834177 
L 540.7 63.834177 
L 538.425 63.834177 
L 536.15 63.834177 
L 533.875 63.834177 
L 531.6 63.834177 
L 529.325 63.834177 
L 527.05 63.834177 
L 524.775 63.834177 
L 522.5 63.834177 
L 520.225 63.834177 
L 517.95 63.834177 
L 515.675 63.834177 
L 513.4 63.834177 
L 511.125 63.834177 
L 508.85 63.834177 
L 506.575 63.834177 
L 504.3 63.834177 
L 502.025 63.834177 
L 499.75 63.834177 
L 497.475 63.834177 
L 495.2 63.834177 
L 492.925 63.834177 
L 490.65 63.834177 
L 488.375 63.834177 
L 486.1 63.834177 
L 483.825 63.834177 
L 481.55 63.834177 
L 479.275 63.834177 
L 477 63.834177 
L 474.725 63.834177 
L 472.45 63.834177 
L 470.175 63.834177 
L 467.9 63.834177 
L 465.625 63.834177 
L 463.35 63.834177 
L 461.075 63.834177 
L 458.8 63.834177 
L 456.525 63.834177 
L 454.25 63.834177 
L 451.975 63.834177 
L 449.7 63.834177 
L 447.425 63.834177 
L 445.15 63.834177 
L 442.875 63.834177 
L 440.6 63.834177 
L 438.325 63.834177 
L 436.05 63.834177 
L 433.775 63.834177 
L 431.5 63.834177 
L 429.225 63.834177 
L 426.95 63.834177 
L 424.675 63.834177 
L 422.4 63.834177 
L 420.125 63.834177 
L 417.85 63.834177 
L 415.575 63.834177 
L 413.3 63.834177 
L 411.025 63.834177 
L 408.75 63.834177 
L 406.475 63.834177 
L 404.2 63.834177 
L 401.925 63.834177 
L 399.65 63.834177 
L 397.375 63.834177 
L 395.1 63.834177 
L 392.825 63.834177 
L 390.55 63.834177 
L 388.275 63.834177 
L 386 63.834177 
L 383.725 63.834177 
L 381.45 63.834177 
L 379.175 63.834177 
L 376.9 63.834177 
L 374.625 63.834177 
L 372.35 63.834177 
L 370.075 63.834177 
L 367.8 63.834177 
L 365.525 63.834177 
L 363.25 63.834177 
L 360.975 63.834177 
L 358.7 63.834177 
L 356.425 63.834177 
L 354.15 63.834177 
L 351.875 63.834177 
L 349.6 63.834177 
L 347.325 63.834177 
L 345.05 63.834177 
L 342.775 63.834177 
L 340.5 63.834177 
L 338.225 63.834177 
L 335.95 63.834177 
L 333.675 63.834177 
L 331.4 63.834177 
L 329.125 63.834177 
L 326.85 63.834177 
L 324.575 63.834177 
L 322.3 63.834177 
L 320.025 63.834177 
L 317.75 63.834177 
L 315.475 63.834177 
L 313.2 63.834177 
L 310.925 63.834177 
L 308.65 63.834177 
L 306.375 63.834177 
L 304.1 63.834177 
L 301.825 63.834177 
L 299.55 63.834177 
L 297.275 63.834177 
L 295 63.834177 
L 292.725 63.834177 
L 290.45 63.834177 
L 288.175 63.834177 
L 285.9 63.834177 
L 283.625 63.834177 
L 281.35 63.834177 
L 279.075 63.834177 
L 276.8 60.305907 
L 274.525 61.725858 
L 272.25 61.725858 
L 269.975 61.725858 
L 267.7 61.725858 
L 265.425 59.632068 
L 263.15 69.019821 
L 260.875 69.019821 
L 258.6 83.14135 
L 256.325 75.99801 
L 254.05 83.291972 
L 251.775 83.291972 
L 249.5 82.286546 
L 247.225 78.106329 
L 244.95 78.106329 
L 242.675 77.583112 
L 240.4 78.106329 
L 238.125 78.106329 
L 235.85 78.106329 
L 233.575 77.583112 
L 231.3 76.624302 
L 229.025 76.624302 
L 226.75 76.624302 
L 224.475 77.059894 
L 222.2 81.793671 
L 219.925 83.974262 
L 217.65 76.374827 
L 215.375 84.084379 
L 213.1 86.053525 
L 210.825 90.714704 
L 208.55 93.774684 
L 206.275 78.563775 
L 204 89.287273 
L 201.725 96.324183 
L 199.45 90.896454 
L 197.175 97.036281 
L 194.9 104.887474 
L 192.625 103.559424 
L 190.35 116.720675 
L 188.075 103.975071 
L 185.8 113.731897 
L 183.525 108.494185 
L 181.25 122.766337 
L 178.975 123.16112 
L 176.7 96.109039 
L 174.425 106.541009 
L 172.15 114.507599 
L 169.875 122.766337 
L 167.6 116.614718 
L 165.325 128.779751 
L 163.05 125.580585 
L 160.775 136.38559 
L 158.5 133.431778 
L 156.225 147.803311 
L 153.95 156.682701 
L 151.675 167.919457 
L 149.4 168.924884 
L 147.125 173.809283 
L 144.85 182.191609 
L 142.575 183.197036 
L 140.3 178.011392 
L 138.025 190.175226 
L 135.75 190.175226 
L 133.475 193.029656 
L 131.2 193.029656 
L 128.925 193.029656 
L 126.65 197.318565 
L 124.375 206.555696 
L 122.1 206.555696 
L 119.825 206.555696 
L 117.55 206.555696 
L 115.275 206.555696 
L 113 206.555696 
L 110.725 206.555696 
L 108.45 206.555696 
L 106.175 206.555696 
L 103.9 206.555696 
L 101.625 206.555696 
L 99.35 206.555696 
L 97.075 206.555696 
L 94.8 206.555696 
L 92.525 206.555696 
L 90.25 206.555696 
L 87.975 206.555696 
L 85.7 206.555696 
L 83.425 206.555696 
L 81.15 206.555696 
L 78.875 206.555696 
L 76.6 206.555696 
L 74.325 206.555696 
L 72.05 206.555696 
L 69.775 206.555696 
L 67.5 206.555696 
L 65.225 206.555696 
L 62.95 206.555696 
L 60.675 206.555696 
L 58.4 206.555696 
z
" style="fill:#377eb8;fill-opacity:0.2;stroke:#377eb8;stroke-opacity:0.2;stroke-width:0.8;"/>
   </g>
   <g id="PolyCollection_3">
    <path clip-path="url(#p6a1f199a52)" d="M 58.4 206.555696 
L 58.4 206.555696 
L 60.675 206.555696 
L 62.95 206.555696 
L 65.225 206.555696 
L 67.5 206.555696 
L 69.775 206.555696 
L 72.05 206.555696 
L 74.325 206.555696 
L 76.6 206.555696 
L 78.875 206.555696 
L 81.15 206.555696 
L 83.425 206.555696 
L 85.7 206.555696 
L 87.975 206.555696 
L 90.25 206.555696 
L 92.525 206.555696 
L 94.8 206.555696 
L 97.075 206.555696 
L 99.35 206.555696 
L 101.625 206.555696 
L 103.9 206.555696 
L 106.175 206.555696 
L 108.45 206.555696 
L 110.725 210.083966 
L 113 210.083966 
L 115.275 210.083966 
L 117.55 210.083966 
L 119.825 210.083966 
L 122.1 210.083966 
L 124.375 210.757806 
L 126.65 210.757806 
L 128.925 210.757806 
L 131.2 210.757806 
L 133.475 207.078914 
L 135.75 217.119592 
L 138.025 213.746584 
L 140.3 208.037723 
L 142.575 202.84744 
L 144.85 209.763289 
L 147.125 199.340084 
L 149.4 191.450633 
L 151.675 186.305494 
L 153.95 193.329979 
L 156.225 190.439992 
L 158.5 186.415612 
L 160.775 173.490541 
L 163.05 170.930128 
L 165.325 174.303137 
L 167.6 182.22803 
L 169.875 173.490541 
L 172.15 170.064197 
L 174.425 162.548588 
L 176.7 159.793539 
L 178.975 155.792045 
L 181.25 142.385825 
L 183.525 141.106656 
L 185.8 139.237377 
L 188.075 128.632251 
L 190.35 128.632251 
L 192.625 128.632251 
L 194.9 116.742568 
L 197.175 121.446002 
L 199.45 124.130378 
L 201.725 115.737142 
L 204 116.742568 
L 206.275 113.707173 
L 208.55 105.904521 
L 210.825 115.737142 
L 213.1 101.615612 
L 215.375 101.46499 
L 217.65 101.46499 
L 219.925 101.46499 
L 222.2 101.46499 
L 224.475 101.46499 
L 226.75 102.942377 
L 229.025 102.942377 
L 231.3 102.942377 
L 233.575 96.580591 
L 235.85 100.087947 
L 238.125 92.901698 
L 240.4 92.901698 
L 242.675 92.901698 
L 244.95 92.901698 
L 247.225 92.901698 
L 249.5 81.634599 
L 251.775 88.198265 
L 254.05 80.214648 
L 256.325 80.214648 
L 258.6 80.214648 
L 260.875 77.360218 
L 263.15 73.071308 
L 265.425 73.071308 
L 267.7 73.071308 
L 269.975 73.071308 
L 272.25 73.071308 
L 274.525 73.071308 
L 276.8 73.071308 
L 279.075 73.071308 
L 281.35 73.071308 
L 283.625 63.834177 
L 285.9 63.834177 
L 288.175 63.834177 
L 290.45 63.834177 
L 292.725 63.834177 
L 295 63.834177 
L 297.275 63.834177 
L 299.55 63.834177 
L 301.825 63.834177 
L 304.1 63.834177 
L 306.375 63.834177 
L 308.65 63.834177 
L 310.925 63.834177 
L 313.2 63.834177 
L 315.475 63.834177 
L 317.75 63.834177 
L 320.025 63.834177 
L 322.3 63.834177 
L 324.575 63.834177 
L 326.85 63.834177 
L 329.125 63.834177 
L 331.4 63.834177 
L 333.675 63.834177 
L 335.95 63.834177 
L 338.225 63.834177 
L 340.5 63.834177 
L 342.775 63.834177 
L 345.05 63.834177 
L 347.325 63.834177 
L 349.6 63.834177 
L 351.875 63.834177 
L 354.15 63.834177 
L 356.425 63.834177 
L 358.7 63.834177 
L 360.975 63.834177 
L 363.25 63.834177 
L 365.525 63.834177 
L 367.8 63.834177 
L 370.075 63.834177 
L 372.35 63.834177 
L 374.625 63.834177 
L 376.9 63.834177 
L 379.175 63.834177 
L 381.45 63.834177 
L 383.725 63.834177 
L 386 63.834177 
L 388.275 63.834177 
L 390.55 63.834177 
L 392.825 63.834177 
L 395.1 63.834177 
L 397.375 63.834177 
L 399.65 63.834177 
L 401.925 63.834177 
L 404.2 63.834177 
L 406.475 63.834177 
L 408.75 63.834177 
L 411.025 63.834177 
L 413.3 63.834177 
L 415.575 63.834177 
L 417.85 63.834177 
L 420.125 63.834177 
L 422.4 63.834177 
L 424.675 63.834177 
L 426.95 63.834177 
L 429.225 63.834177 
L 431.5 63.834177 
L 433.775 63.834177 
L 436.05 63.834177 
L 438.325 63.834177 
L 440.6 63.834177 
L 442.875 63.834177 
L 445.15 63.834177 
L 447.425 63.834177 
L 449.7 63.834177 
L 451.975 63.834177 
L 454.25 63.834177 
L 456.525 63.834177 
L 458.8 63.834177 
L 461.075 63.834177 
L 463.35 63.834177 
L 465.625 63.834177 
L 467.9 63.834177 
L 470.175 63.834177 
L 472.45 63.834177 
L 474.725 63.834177 
L 477 63.834177 
L 479.275 63.834177 
L 481.55 63.834177 
L 483.825 63.834177 
L 486.1 63.834177 
L 488.375 63.834177 
L 490.65 63.834177 
L 492.925 63.834177 
L 495.2 63.834177 
L 497.475 63.834177 
L 499.75 63.834177 
L 502.025 63.834177 
L 504.3 63.834177 
L 506.575 63.834177 
L 508.85 63.834177 
L 511.125 63.834177 
L 513.4 63.834177 
L 515.675 63.834177 
L 517.95 63.834177 
L 520.225 63.834177 
L 522.5 63.834177 
L 524.775 63.834177 
L 527.05 63.834177 
L 529.325 63.834177 
L 531.6 63.834177 
L 533.875 63.834177 
L 536.15 63.834177 
L 538.425 63.834177 
L 540.7 63.834177 
L 542.975 63.834177 
L 545.25 63.834177 
L 547.525 63.834177 
L 549.8 63.834177 
L 552.075 63.834177 
L 554.35 63.834177 
L 556.625 63.834177 
L 558.9 63.834177 
L 561.175 63.834177 
L 563.45 63.834177 
L 565.725 63.834177 
L 568 63.834177 
L 570.275 63.834177 
L 572.55 63.834177 
L 574.825 63.834177 
L 577.1 63.834177 
L 579.375 63.834177 
L 581.65 63.834177 
L 583.925 63.834177 
L 586.2 63.834177 
L 588.475 63.834177 
L 590.75 63.834177 
L 593.025 63.834177 
L 595.3 63.834177 
L 597.575 63.834177 
L 599.85 63.834177 
L 602.125 63.834177 
L 604.4 63.834177 
L 606.675 63.834177 
L 608.95 63.834177 
L 611.225 63.834177 
L 613.5 63.834177 
L 615.775 63.834177 
L 618.05 63.834177 
L 620.325 63.834177 
L 622.6 63.834177 
L 624.875 63.834177 
L 627.15 63.834177 
L 629.425 63.834177 
L 631.7 63.834177 
L 633.975 63.834177 
L 636.25 63.834177 
L 638.525 63.834177 
L 640.8 63.834177 
L 643.075 63.834177 
L 645.35 63.834177 
L 647.625 63.834177 
L 649.9 63.834177 
L 652.175 63.834177 
L 654.45 63.834177 
L 656.725 63.834177 
L 659 63.834177 
L 661.275 63.834177 
L 663.55 63.834177 
L 665.825 63.834177 
L 668.1 63.834177 
L 670.375 63.834177 
L 672.65 63.834177 
L 674.925 63.834177 
L 677.2 63.834177 
L 679.475 63.834177 
L 681.75 63.834177 
L 684.025 63.834177 
L 686.3 63.834177 
L 688.575 63.834177 
L 690.85 63.834177 
L 693.125 63.834177 
L 695.4 63.834177 
L 697.675 63.834177 
L 699.95 63.834177 
L 702.225 63.834177 
L 704.5 63.834177 
L 706.775 63.834177 
L 709.05 63.834177 
L 711.325 63.834177 
L 713.6 63.834177 
L 715.875 63.834177 
L 718.15 63.834177 
L 720.425 63.834177 
L 722.7 63.834177 
L 724.975 63.834177 
L 727.25 63.834177 
L 729.525 63.834177 
L 731.8 63.834177 
L 734.075 63.834177 
L 736.35 63.834177 
L 738.625 63.834177 
L 740.9 63.834177 
L 743.175 63.834177 
L 745.45 63.834177 
L 747.725 63.834177 
L 750 63.834177 
L 752.275 63.834177 
L 754.55 63.834177 
L 756.825 63.834177 
L 759.1 63.834177 
L 761.375 63.834177 
L 763.65 63.834177 
L 765.925 63.834177 
L 768.2 63.834177 
L 770.475 63.834177 
L 772.75 63.834177 
L 775.025 63.834177 
L 777.3 63.834177 
L 779.575 63.834177 
L 781.85 63.834177 
L 784.125 63.834177 
L 786.4 63.834177 
L 788.675 63.834177 
L 790.95 63.834177 
L 793.225 63.834177 
L 795.5 63.834177 
L 795.5 63.834177 
L 795.5 63.834177 
L 793.225 63.834177 
L 790.95 63.834177 
L 788.675 63.834177 
L 786.4 63.834177 
L 784.125 63.834177 
L 781.85 63.834177 
L 779.575 63.834177 
L 777.3 63.834177 
L 775.025 63.834177 
L 772.75 63.834177 
L 770.475 63.834177 
L 768.2 63.834177 
L 765.925 63.834177 
L 763.65 63.834177 
L 761.375 63.834177 
L 759.1 63.834177 
L 756.825 63.834177 
L 754.55 63.834177 
L 752.275 63.834177 
L 750 63.834177 
L 747.725 63.834177 
L 745.45 63.834177 
L 743.175 63.834177 
L 740.9 63.834177 
L 738.625 63.834177 
L 736.35 63.834177 
L 734.075 63.834177 
L 731.8 63.834177 
L 729.525 63.834177 
L 727.25 63.834177 
L 724.975 63.834177 
L 722.7 63.834177 
L 720.425 63.834177 
L 718.15 63.834177 
L 715.875 63.834177 
L 713.6 63.834177 
L 711.325 63.834177 
L 709.05 63.834177 
L 706.775 63.834177 
L 704.5 63.834177 
L 702.225 63.834177 
L 699.95 63.834177 
L 697.675 63.834177 
L 695.4 63.834177 
L 693.125 63.834177 
L 690.85 63.834177 
L 688.575 63.834177 
L 686.3 63.834177 
L 684.025 63.834177 
L 681.75 63.834177 
L 679.475 63.834177 
L 677.2 63.834177 
L 674.925 63.834177 
L 672.65 63.834177 
L 670.375 63.834177 
L 668.1 63.834177 
L 665.825 63.834177 
L 663.55 63.834177 
L 661.275 63.834177 
L 659 63.834177 
L 656.725 63.834177 
L 654.45 63.834177 
L 652.175 63.834177 
L 649.9 63.834177 
L 647.625 63.834177 
L 645.35 63.834177 
L 643.075 63.834177 
L 640.8 63.834177 
L 638.525 63.834177 
L 636.25 63.834177 
L 633.975 63.834177 
L 631.7 63.834177 
L 629.425 63.834177 
L 627.15 63.834177 
L 624.875 63.834177 
L 622.6 63.834177 
L 620.325 63.834177 
L 618.05 63.834177 
L 615.775 63.834177 
L 613.5 63.834177 
L 611.225 63.834177 
L 608.95 63.834177 
L 606.675 63.834177 
L 604.4 63.834177 
L 602.125 63.834177 
L 599.85 63.834177 
L 597.575 63.834177 
L 595.3 63.834177 
L 593.025 63.834177 
L 590.75 63.834177 
L 588.475 63.834177 
L 586.2 63.834177 
L 583.925 63.834177 
L 581.65 63.834177 
L 579.375 63.834177 
L 577.1 63.834177 
L 574.825 63.834177 
L 572.55 63.834177 
L 570.275 63.834177 
L 568 63.834177 
L 565.725 63.834177 
L 563.45 63.834177 
L 561.175 63.834177 
L 558.9 63.834177 
L 556.625 63.834177 
L 554.35 63.834177 
L 552.075 63.834177 
L 549.8 63.834177 
L 547.525 63.834177 
L 545.25 63.834177 
L 542.975 63.834177 
L 540.7 63.834177 
L 538.425 63.834177 
L 536.15 63.834177 
L 533.875 63.834177 
L 531.6 63.834177 
L 529.325 63.834177 
L 527.05 63.834177 
L 524.775 63.834177 
L 522.5 63.834177 
L 520.225 63.834177 
L 517.95 63.834177 
L 515.675 63.834177 
L 513.4 63.834177 
L 511.125 63.834177 
L 508.85 63.834177 
L 506.575 63.834177 
L 504.3 63.834177 
L 502.025 63.834177 
L 499.75 63.834177 
L 497.475 63.834177 
L 495.2 63.834177 
L 492.925 63.834177 
L 490.65 63.834177 
L 488.375 63.834177 
L 486.1 63.834177 
L 483.825 63.834177 
L 481.55 63.834177 
L 479.275 63.834177 
L 477 63.834177 
L 474.725 63.834177 
L 472.45 63.834177 
L 470.175 63.834177 
L 467.9 63.834177 
L 465.625 63.834177 
L 463.35 63.834177 
L 461.075 63.834177 
L 458.8 63.834177 
L 456.525 63.834177 
L 454.25 63.834177 
L 451.975 63.834177 
L 449.7 63.834177 
L 447.425 63.834177 
L 445.15 63.834177 
L 442.875 63.834177 
L 440.6 63.834177 
L 438.325 63.834177 
L 436.05 63.834177 
L 433.775 63.834177 
L 431.5 63.834177 
L 429.225 63.834177 
L 426.95 63.834177 
L 424.675 63.834177 
L 422.4 63.834177 
L 420.125 63.834177 
L 417.85 63.834177 
L 415.575 63.834177 
L 413.3 63.834177 
L 411.025 63.834177 
L 408.75 63.834177 
L 406.475 63.834177 
L 404.2 63.834177 
L 401.925 63.834177 
L 399.65 63.834177 
L 397.375 63.834177 
L 395.1 63.834177 
L 392.825 63.834177 
L 390.55 63.834177 
L 388.275 63.834177 
L 386 63.834177 
L 383.725 63.834177 
L 381.45 63.834177 
L 379.175 63.834177 
L 376.9 63.834177 
L 374.625 63.834177 
L 372.35 63.834177 
L 370.075 63.834177 
L 367.8 63.834177 
L 365.525 63.834177 
L 363.25 63.834177 
L 360.975 63.834177 
L 358.7 63.834177 
L 356.425 63.834177 
L 354.15 63.834177 
L 351.875 63.834177 
L 349.6 63.834177 
L 347.325 63.834177 
L 345.05 63.834177 
L 342.775 63.834177 
L 340.5 63.834177 
L 338.225 63.834177 
L 335.95 63.834177 
L 333.675 63.834177 
L 331.4 63.834177 
L 329.125 63.834177 
L 326.85 63.834177 
L 324.575 63.834177 
L 322.3 63.834177 
L 320.025 63.834177 
L 317.75 63.834177 
L 315.475 63.834177 
L 313.2 63.834177 
L 310.925 63.834177 
L 308.65 63.834177 
L 306.375 63.834177 
L 304.1 63.834177 
L 301.825 63.834177 
L 299.55 63.834177 
L 297.275 63.834177 
L 295 63.834177 
L 292.725 63.834177 
L 290.45 63.834177 
L 288.175 63.834177 
L 285.9 63.834177 
L 283.625 63.834177 
L 281.35 60.305907 
L 279.075 60.305907 
L 276.8 60.305907 
L 274.525 60.305907 
L 272.25 60.305907 
L 269.975 60.305907 
L 267.7 60.305907 
L 265.425 60.305907 
L 263.15 60.305907 
L 260.875 61.725858 
L 258.6 64.580289 
L 256.325 64.580289 
L 254.05 64.580289 
L 251.775 68.014394 
L 249.5 68.869198 
L 247.225 69.019821 
L 244.95 69.019821 
L 242.675 69.019821 
L 240.4 69.019821 
L 238.125 69.019821 
L 235.85 67.542433 
L 233.575 71.049789 
L 231.3 70.396863 
L 229.025 70.396863 
L 226.75 70.396863 
L 224.475 77.583112 
L 222.2 77.583112 
L 219.925 77.583112 
L 217.65 77.583112 
L 215.375 77.583112 
L 213.1 88.850211 
L 210.825 91.855264 
L 208.55 90.270162 
L 206.275 88.176371 
L 204 96.558698 
L 201.725 91.855264 
L 199.45 89.170888 
L 197.175 97.564124 
L 194.9 96.558698 
L 192.625 96.086737 
L 190.35 96.086737 
L 188.075 96.086737 
L 185.8 96.899332 
L 183.525 100.738914 
L 181.25 105.168606 
L 178.975 108.888968 
L 176.7 104.887474 
L 174.425 119.259007 
L 172.15 123.16112 
L 169.875 131.152497 
L 167.6 150.959312 
L 165.325 141.757623 
L 163.05 133.71291 
L 160.775 131.152497 
L 158.5 135.354009 
L 156.225 137.038489 
L 153.95 145.566223 
L 151.675 141.172987 
L 149.4 153.154431 
L 147.125 173.809283 
L 144.85 174.803799 
L 142.575 170.301927 
L 140.3 170.820505 
L 138.025 176.529365 
L 135.75 184.574079 
L 133.475 183.197036 
L 131.2 185.227004 
L 128.925 185.227004 
L 126.65 185.227004 
L 124.375 185.227004 
L 122.1 197.318565 
L 119.825 197.318565 
L 117.55 197.318565 
L 115.275 197.318565 
L 113 197.318565 
L 110.725 197.318565 
L 108.45 206.555696 
L 106.175 206.555696 
L 103.9 206.555696 
L 101.625 206.555696 
L 99.35 206.555696 
L 97.075 206.555696 
L 94.8 206.555696 
L 92.525 206.555696 
L 90.25 206.555696 
L 87.975 206.555696 
L 85.7 206.555696 
L 83.425 206.555696 
L 81.15 206.555696 
L 78.875 206.555696 
L 76.6 206.555696 
L 74.325 206.555696 
L 72.05 206.555696 
L 69.775 206.555696 
L 67.5 206.555696 
L 65.225 206.555696 
L 62.95 206.555696 
L 60.675 206.555696 
L 58.4 206.555696 
z
" style="fill:#4daf4a;fill-opacity:0.2;stroke:#4daf4a;stroke-opacity:0.2;stroke-width:0.8;"/>
   </g>
   <g id="line2d_30">
    <path clip-path="url(#p6a1f199a52)" d="M 58.4 206.555696 
L 103.9 206.555696 
L 106.175 199.41962 
L 110.725 199.41962 
L 113 192.283544 
L 115.275 187.52616 
L 117.55 178.011392 
L 122.1 163.739241 
L 124.375 158.981857 
L 126.65 147.088397 
L 128.925 137.573629 
L 133.475 132.816245 
L 135.75 128.058861 
L 138.025 132.816245 
L 140.3 132.816245 
L 149.4 123.301477 
L 151.675 125.680169 
L 156.225 125.680169 
L 158.5 123.301477 
L 160.775 125.680169 
L 163.05 123.301477 
L 165.325 128.058861 
L 167.6 128.058861 
L 172.15 123.301477 
L 174.425 123.301477 
L 176.7 120.922785 
L 178.975 123.301477 
L 183.525 123.301477 
L 185.8 125.680169 
L 188.075 123.301477 
L 190.35 123.301477 
L 192.625 125.680169 
L 194.9 123.301477 
L 197.175 125.680169 
L 199.45 116.165401 
L 201.725 118.544093 
L 238.125 118.544093 
L 240.4 116.165401 
L 242.675 111.408017 
L 244.95 113.786709 
L 249.5 109.029325 
L 251.775 113.786709 
L 254.05 111.408017 
L 256.325 111.408017 
L 258.6 113.786709 
L 260.875 111.408017 
L 265.425 116.165401 
L 269.975 111.408017 
L 272.25 113.786709 
L 274.525 111.408017 
L 276.8 111.408017 
L 279.075 113.786709 
L 281.35 109.029325 
L 317.75 109.029325 
L 320.025 111.408017 
L 326.85 111.408017 
L 329.125 113.786709 
L 331.4 111.408017 
L 333.675 111.408017 
L 335.95 109.029325 
L 338.225 111.408017 
L 340.5 109.029325 
L 349.6 109.029325 
L 351.875 111.408017 
L 354.15 111.408017 
L 356.425 113.786709 
L 358.7 113.786709 
L 360.975 111.408017 
L 363.25 113.786709 
L 365.525 111.408017 
L 367.8 113.786709 
L 370.075 111.408017 
L 372.35 111.408017 
L 374.625 113.786709 
L 376.9 109.029325 
L 379.175 111.408017 
L 381.45 109.029325 
L 383.725 109.029325 
L 386 111.408017 
L 388.275 109.029325 
L 433 109.029325 
L 433 109.029325 
" style="fill:none;stroke:#e41a1c;stroke-linecap:round;stroke-width:2;"/>
   </g>
   <g id="line2d_31">
    <path clip-path="url(#p6a1f199a52)" d="M 58.4 206.555696 
L 124.375 206.555696 
L 128.925 200.846835 
L 133.475 200.846835 
L 135.75 197.992405 
L 138.025 197.992405 
L 140.3 192.283544 
L 142.575 195.137975 
L 144.85 192.283544 
L 149.4 180.865823 
L 151.675 178.011392 
L 153.95 169.448101 
L 156.225 169.448101 
L 158.5 160.88481 
L 163.05 155.175949 
L 165.325 163.739241 
L 167.6 155.175949 
L 169.875 149.467089 
L 172.15 149.467089 
L 174.425 143.758228 
L 176.7 135.194937 
L 178.975 146.612658 
L 181.25 149.467089 
L 183.525 135.194937 
L 185.8 132.340506 
L 188.075 138.049367 
L 190.35 129.486076 
L 192.625 129.486076 
L 194.9 132.340506 
L 197.175 126.631646 
L 199.45 109.505063 
L 201.725 123.777215 
L 204 115.213924 
L 206.275 109.505063 
L 208.55 126.631646 
L 210.825 112.359494 
L 215.375 106.650633 
L 217.65 106.650633 
L 219.925 109.505063 
L 222.2 100.941772 
L 224.475 100.941772 
L 226.75 95.232911 
L 231.3 95.232911 
L 233.575 89.524051 
L 235.85 92.378481 
L 240.4 92.378481 
L 242.675 89.524051 
L 244.95 92.378481 
L 249.5 92.378481 
L 251.775 95.232911 
L 254.05 95.232911 
L 256.325 83.81519 
L 258.6 89.524051 
L 260.875 80.960759 
L 263.15 80.960759 
L 265.425 72.397468 
L 267.7 69.543038 
L 274.525 69.543038 
L 279.075 63.834177 
L 433 63.834177 
L 433 63.834177 
" style="fill:none;stroke:#377eb8;stroke-linecap:round;stroke-width:2;"/>
   </g>
   <g id="line2d_32">
    <path clip-path="url(#p6a1f199a52)" d="M 58.4 206.555696 
L 108.45 206.555696 
L 110.725 203.701266 
L 122.1 203.701266 
L 124.375 197.992405 
L 131.2 197.992405 
L 133.475 195.137975 
L 135.75 200.846835 
L 140.3 189.429114 
L 142.575 186.574684 
L 144.85 192.283544 
L 147.125 186.574684 
L 149.4 172.302532 
L 151.675 163.739241 
L 153.95 169.448101 
L 156.225 163.739241 
L 158.5 160.88481 
L 160.775 152.321519 
L 163.05 152.321519 
L 165.325 158.03038 
L 167.6 166.593671 
L 169.875 152.321519 
L 174.425 140.903797 
L 176.7 132.340506 
L 178.975 132.340506 
L 181.25 123.777215 
L 185.8 118.068354 
L 188.075 112.359494 
L 192.625 112.359494 
L 194.9 106.650633 
L 197.175 109.505063 
L 201.725 103.796203 
L 204 106.650633 
L 206.275 100.941772 
L 208.55 98.087342 
L 210.825 103.796203 
L 213.1 95.232911 
L 215.375 89.524051 
L 224.475 89.524051 
L 226.75 86.66962 
L 231.3 86.66962 
L 233.575 83.81519 
L 235.85 83.81519 
L 238.125 80.960759 
L 247.225 80.960759 
L 249.5 75.251899 
L 251.775 78.106329 
L 254.05 72.397468 
L 258.6 72.397468 
L 263.15 66.688608 
L 281.35 66.688608 
L 283.625 63.834177 
L 433 63.834177 
L 433 63.834177 
" style="fill:none;stroke:#4daf4a;stroke-linecap:round;stroke-width:2;"/>
   </g>
   <g id="line2d_33"/>
   <g id="line2d_34"/>
   <g id="line2d_35"/>
   <g id="line2d_36"/>
   <g id="patch_3">
    <path d="M 58.4 235.1 
L 58.4 9.6 
" style="fill:none;stroke:#cccccc;stroke-linecap:square;stroke-linejoin:miter;"/>
   </g>
   <g id="patch_4">
    <path d="M 422.4 235.1 
L 422.4 9.6 
" style="fill:none;stroke:#cccccc;stroke-linecap:square;stroke-linejoin:miter;"/>
   </g>
   <g id="patch_5">
    <path d="M 58.4 235.1 
L 422.4 235.1 
" style="fill:none;stroke:#cccccc;stroke-linecap:square;stroke-linejoin:miter;"/>
   </g>
   <g id="patch_6">
    <path d="M 58.4 9.6 
L 422.4 9.6 
" style="fill:none;stroke:#cccccc;stroke-linecap:square;stroke-linejoin:miter;"/>
   </g>
   <g id="legend_1">
    <g id="patch_7">
     <path d="M 71 101.338125 
L 210.640625 101.338125 
Q 214.240625 101.338125 214.240625 97.738125 
L 214.240625 22.2 
Q 214.240625 18.6 210.640625 18.6 
L 71 18.6 
Q 67.4 18.6 67.4 22.2 
L 67.4 97.738125 
Q 67.4 101.338125 71 101.338125 
z
" style="fill:#ffffff;opacity:0.8;stroke:#cccccc;stroke-linejoin:miter;stroke-width:0.8;"/>
    </g>
    <g id="line2d_37">
     <path d="M 74.6 32.544375 
L 110.6 32.544375 
" style="fill:none;stroke:#e41a1c;stroke-linecap:round;stroke-width:1.2;"/>
    </g>
    <g id="line2d_38"/>
    <g id="text_15">
     <!-- Tactile -->
     <defs>
      <path d="M 6.734375 0 
L 6.734375 72.46875 
L 15.53125 72.46875 
L 15.53125 0 
z
" id="LiberationSans-108"/>
     </defs>
     <g style="fill:#262626;" transform="translate(125 38.844375)scale(0.18 -0.18)">
      <use xlink:href="#LiberationSans-84"/>
      <use x="60.912109" xlink:href="#LiberationSans-97"/>
      <use x="116.527344" xlink:href="#LiberationSans-99"/>
      <use x="166.527344" xlink:href="#LiberationSans-116"/>
      <use x="194.310547" xlink:href="#LiberationSans-105"/>
      <use x="216.527344" xlink:href="#LiberationSans-108"/>
      <use x="238.744141" xlink:href="#LiberationSans-101"/>
     </g>
    </g>
    <g id="line2d_39">
     <path d="M 74.6 58.32375 
L 110.6 58.32375 
" style="fill:none;stroke:#377eb8;stroke-linecap:round;stroke-width:1.2;"/>
    </g>
    <g id="line2d_40"/>
    <g id="text_16">
     <!-- Vision -->
     <defs>
      <path d="M 38.1875 0 
L 28.515625 0 
L 0.4375 68.796875 
L 10.25 68.796875 
L 29.296875 20.359375 
Q 30.03125 18.171875 30.765625 15.984375 
Q 31.5 13.8125 32.078125 12.109375 
Q 32.765625 10.109375 33.40625 8.203125 
Q 33.984375 10.015625 34.671875 12.015625 
Q 35.25 13.71875 35.953125 15.859375 
Q 36.671875 18.015625 37.5 20.359375 
L 56.453125 68.796875 
L 66.265625 68.796875 
z
" id="LiberationSans-86"/>
      <path d="M 51.421875 26.46875 
Q 51.421875 12.59375 45.3125 5.796875 
Q 39.203125 -0.984375 27.59375 -0.984375 
Q 22.078125 -0.984375 17.71875 0.671875 
Q 13.375 2.34375 10.375 5.765625 
Q 7.375 9.1875 5.78125 14.328125 
Q 4.203125 19.484375 4.203125 26.46875 
Q 4.203125 53.8125 27.875 53.8125 
Q 34.03125 53.8125 38.5 52.09375 
Q 42.96875 50.390625 45.828125 46.96875 
Q 48.6875 43.5625 50.046875 38.421875 
Q 51.421875 33.296875 51.421875 26.46875 
z
M 42.1875 26.46875 
Q 42.1875 32.625 41.234375 36.625 
Q 40.28125 40.625 38.453125 43.015625 
Q 36.625 45.40625 33.984375 46.359375 
Q 31.34375 47.3125 28.03125 47.3125 
Q 24.65625 47.3125 21.9375 46.3125 
Q 19.234375 45.3125 17.328125 42.890625 
Q 15.4375 40.484375 14.421875 36.46875 
Q 13.421875 32.46875 13.421875 26.46875 
Q 13.421875 20.3125 14.5 16.28125 
Q 15.578125 12.25 17.453125 9.859375 
Q 19.34375 7.46875 21.90625 6.484375 
Q 24.46875 5.515625 27.484375 5.515625 
Q 30.859375 5.515625 33.59375 6.46875 
Q 36.328125 7.421875 38.234375 9.8125 
Q 40.140625 12.203125 41.15625 16.25 
Q 42.1875 20.3125 42.1875 26.46875 
z
" id="LiberationSans-111"/>
      <path d="M 40.28125 0 
L 40.28125 33.5 
Q 40.28125 37.359375 39.71875 39.9375 
Q 39.15625 42.53125 37.890625 44.109375 
Q 36.625 45.703125 34.546875 46.359375 
Q 32.46875 47.015625 29.390625 47.015625 
Q 26.265625 47.015625 23.75 45.921875 
Q 21.234375 44.828125 19.453125 42.75 
Q 17.671875 40.671875 16.6875 37.625 
Q 15.71875 34.578125 15.71875 30.609375 
L 15.71875 0 
L 6.9375 0 
L 6.9375 41.546875 
Q 6.9375 43.21875 6.90625 45.046875 
Q 6.890625 46.875 6.828125 48.5 
Q 6.78125 50.140625 6.734375 51.3125 
Q 6.6875 52.484375 6.640625 52.828125 
L 14.9375 52.828125 
Q 14.984375 52.59375 15.03125 51.515625 
Q 15.09375 50.4375 15.15625 49.046875 
Q 15.234375 47.65625 15.28125 46.21875 
Q 15.328125 44.78125 15.328125 43.796875 
L 15.484375 43.796875 
Q 16.75 46.09375 18.265625 47.953125 
Q 19.78125 49.8125 21.78125 51.09375 
Q 23.78125 52.390625 26.359375 53.09375 
Q 28.953125 53.8125 32.375 53.8125 
Q 36.765625 53.8125 39.9375 52.734375 
Q 43.109375 51.65625 45.15625 49.40625 
Q 47.21875 47.171875 48.171875 43.625 
Q 49.125 40.09375 49.125 35.203125 
L 49.125 0 
z
" id="LiberationSans-110"/>
     </defs>
     <g style="fill:#262626;" transform="translate(125 64.62375)scale(0.18 -0.18)">
      <use xlink:href="#LiberationSans-86"/>
      <use x="66.683594" xlink:href="#LiberationSans-105"/>
      <use x="88.900391" xlink:href="#LiberationSans-115"/>
      <use x="138.900391" xlink:href="#LiberationSans-105"/>
      <use x="161.117188" xlink:href="#LiberationSans-111"/>
      <use x="216.732422" xlink:href="#LiberationSans-110"/>
     </g>
    </g>
    <g id="line2d_41">
     <path d="M 74.6 84.103125 
L 110.6 84.103125 
" style="fill:none;stroke:#4daf4a;stroke-linecap:round;stroke-width:1.2;"/>
    </g>
    <g id="line2d_42"/>
    <g id="text_17">
     <!-- Combined -->
     <defs>
      <path d="M 38.671875 62.203125 
Q 32.8125 62.203125 28.296875 60.25 
Q 23.78125 58.296875 20.71875 54.6875 
Q 17.671875 51.078125 16.109375 46 
Q 14.546875 40.921875 14.546875 34.71875 
Q 14.546875 28.515625 16.234375 23.359375 
Q 17.921875 18.21875 21.0625 14.5 
Q 24.21875 10.796875 28.78125 8.734375 
Q 33.34375 6.6875 39.0625 6.6875 
Q 43.0625 6.6875 46.359375 7.734375 
Q 49.65625 8.796875 52.3125 10.6875 
Q 54.984375 12.59375 57.078125 15.203125 
Q 59.1875 17.828125 60.796875 21 
L 68.40625 17.1875 
Q 66.546875 13.328125 63.8125 10 
Q 61.078125 6.6875 57.390625 4.25 
Q 53.71875 1.8125 49.046875 0.40625 
Q 44.390625 -0.984375 38.625 -0.984375 
Q 30.28125 -0.984375 24 1.671875 
Q 17.71875 4.34375 13.5 9.109375 
Q 9.28125 13.875 7.171875 20.40625 
Q 5.078125 26.953125 5.078125 34.71875 
Q 5.078125 42.78125 7.296875 49.265625 
Q 9.515625 55.765625 13.78125 60.328125 
Q 18.0625 64.890625 24.3125 67.359375 
Q 30.5625 69.828125 38.578125 69.828125 
Q 49.5625 69.828125 56.9375 65.53125 
Q 64.3125 61.234375 67.78125 52.78125 
L 58.9375 49.859375 
Q 57.953125 52.296875 56.296875 54.515625 
Q 54.640625 56.734375 52.140625 58.4375 
Q 49.65625 60.15625 46.3125 61.171875 
Q 42.96875 62.203125 38.671875 62.203125 
z
" id="LiberationSans-67"/>
      <path d="M 51.421875 26.65625 
Q 51.421875 -0.984375 31.984375 -0.984375 
Q 25.984375 -0.984375 22 1.1875 
Q 18.015625 3.375 15.53125 8.203125 
L 15.4375 8.203125 
Q 15.4375 6.9375 15.359375 5.5625 
Q 15.28125 4.203125 15.203125 3.03125 
Q 15.140625 1.859375 15.0625 1.03125 
Q 14.984375 0.203125 14.9375 0 
L 6.453125 0 
Q 6.5 0.4375 6.546875 1.484375 
Q 6.59375 2.546875 6.640625 4 
Q 6.6875 5.46875 6.703125 7.21875 
Q 6.734375 8.984375 6.734375 10.890625 
L 6.734375 72.46875 
L 15.53125 72.46875 
L 15.53125 51.8125 
Q 15.53125 50.34375 15.5 49 
Q 15.484375 47.65625 15.4375 46.625 
Q 15.375 45.40625 15.328125 44.34375 
L 15.53125 44.34375 
Q 17.96875 49.421875 22 51.609375 
Q 26.03125 53.8125 31.984375 53.8125 
Q 42 53.8125 46.703125 47.0625 
Q 51.421875 40.328125 51.421875 26.65625 
z
M 42.1875 26.375 
Q 42.1875 31.84375 41.5 35.75 
Q 40.828125 39.65625 39.3125 42.15625 
Q 37.796875 44.671875 35.453125 45.84375 
Q 33.109375 47.015625 29.734375 47.015625 
Q 26.265625 47.015625 23.609375 45.890625 
Q 20.953125 44.78125 19.171875 42.28125 
Q 17.390625 39.796875 16.453125 35.734375 
Q 15.53125 31.6875 15.53125 25.828125 
Q 15.53125 20.171875 16.453125 16.3125 
Q 17.390625 12.453125 19.171875 10.03125 
Q 20.953125 7.625 23.578125 6.5625 
Q 26.21875 5.515625 29.640625 5.515625 
Q 32.859375 5.515625 35.203125 6.640625 
Q 37.546875 7.765625 39.109375 10.25 
Q 40.671875 12.75 41.421875 16.71875 
Q 42.1875 20.703125 42.1875 26.375 
z
" id="LiberationSans-98"/>
      <path d="M 40.09375 8.5 
Q 37.640625 3.421875 33.609375 1.21875 
Q 29.59375 -0.984375 23.640625 -0.984375 
Q 13.625 -0.984375 8.90625 5.75 
Q 4.203125 12.5 4.203125 26.171875 
Q 4.203125 53.8125 23.640625 53.8125 
Q 29.640625 53.8125 33.640625 51.609375 
Q 37.640625 49.421875 40.09375 44.625 
L 40.1875 44.625 
Q 40.1875 45.125 40.15625 46.171875 
Q 40.140625 47.21875 40.109375 48.359375 
Q 40.09375 49.515625 40.09375 50.53125 
Q 40.09375 51.5625 40.09375 52 
L 40.09375 72.46875 
L 48.875 72.46875 
L 48.875 10.890625 
Q 48.875 8.984375 48.890625 7.21875 
Q 48.921875 5.46875 48.96875 4 
Q 49.03125 2.546875 49.078125 1.484375 
Q 49.125 0.4375 49.171875 0 
L 40.765625 0 
Q 40.671875 0.484375 40.59375 1.390625 
Q 40.53125 2.296875 40.453125 3.46875 
Q 40.375 4.640625 40.328125 5.9375 
Q 40.28125 7.234375 40.28125 8.5 
z
M 13.421875 26.46875 
Q 13.421875 21 14.109375 17.09375 
Q 14.796875 13.1875 16.3125 10.671875 
Q 17.828125 8.15625 20.171875 6.984375 
Q 22.515625 5.8125 25.875 5.8125 
Q 29.34375 5.8125 32 6.9375 
Q 34.671875 8.0625 36.453125 10.578125 
Q 38.234375 13.09375 39.15625 17.140625 
Q 40.09375 21.1875 40.09375 27.046875 
Q 40.09375 32.671875 39.15625 36.546875 
Q 38.234375 40.4375 36.421875 42.828125 
Q 34.625 45.21875 32 46.265625 
Q 29.390625 47.3125 25.984375 47.3125 
Q 22.75 47.3125 20.40625 46.1875 
Q 18.0625 45.0625 16.5 42.578125 
Q 14.9375 40.09375 14.171875 36.109375 
Q 13.421875 32.125 13.421875 26.46875 
z
" id="LiberationSans-100"/>
     </defs>
     <g style="fill:#262626;" transform="translate(125 90.403125)scale(0.18 -0.18)">
      <use xlink:href="#LiberationSans-67"/>
      <use x="72.216797" xlink:href="#LiberationSans-111"/>
      <use x="127.832031" xlink:href="#LiberationSans-109"/>
      <use x="211.132812" xlink:href="#LiberationSans-98"/>
      <use x="266.748047" xlink:href="#LiberationSans-105"/>
      <use x="288.964844" xlink:href="#LiberationSans-110"/>
      <use x="344.580078" xlink:href="#LiberationSans-101"/>
      <use x="400.195312" xlink:href="#LiberationSans-100"/>
     </g>
    </g>
   </g>
  </g>
 </g>
 <defs>
  <clipPath id="p6a1f199a52">
   <rect height="225.5" width="364" x="58.4" y="9.6"/>
  </clipPath>
 </defs>
</svg>
